0
SECTION
2
ENTITIES
0
MTEXT
5
10B8
330
23
100
AcDbEntity
8
RAHMEN_DICK
48
7.0
100
AcDbMText
10
5560.928338
20
61.2045185002
30
0.0
40
17.5
41
0.0
71
     1
72
     1
1
16
7
SLDTEXTSTYLE4
73
     1
44
1.0
0
MTEXT
5
10B9
330
23
100
AcDbEntity
8
RAHMEN_DICK
48
7.0
100
AcDbMText
10
5210.928338
20
61.2045185002
30
0.0
40
17.5
41
0.0
71
     1
72
     1
1
15
7
SLDTEXTSTYLE4
73
     1
44
1.0
0
MTEXT
5
10BA
330
23
100
AcDbEntity
8
RAHMEN_DICK
48
7.0
100
AcDbMText
10
4859.901669
20
61.2045185002
30
0.0
40
17.5
41
0.0
71
     1
72
     1
1
14
7
SLDTEXTSTYLE5
73
     1
44
1.0
0
MTEXT
5
10BB
330
23
100
AcDbEntity
8
RAHMEN_DICK
48
7.0
100
AcDbMText
10
4510.928338
20
61.2045185002
30
0.0
40
17.5
41
0.0
71
     1
72
     1
1
13
7
SLDTEXTSTYLE4
73
     1
44
1.0
0
MTEXT
5
10BC
330
23
100
AcDbEntity
8
RAHMEN_DICK
48
7.0
100
AcDbMText
10
4160.928338
20
61.2045185002
30
0.0
40
17.5
41
0.0
71
     1
72
     1
1
12
7
SLDTEXTSTYLE4
73
     1
44
1.0
0
MTEXT
5
10BD
330
23
100
AcDbEntity
8
RAHMEN_DICK
48
7.0
100
AcDbMText
10
3813.11
20
61.2045185002
30
0.0
40
17.5
41
0.0
71
     1
72
     1
1
11
7
SLDTEXTSTYLE6
73
     1
44
1.0
0
MTEXT
5
10BE
330
23
100
AcDbEntity
8
RAHMEN_DICK
48
7.0
100
AcDbMText
10
3460.928338
20
61.2045185002
30
0.0
40
17.5
41
0.0
71
     1
72
     1
1
10
7
SLDTEXTSTYLE4
73
     1
44
1.0
0
MTEXT
5
10BF
330
23
100
AcDbEntity
8
RAHMEN_DICK
48
7.0
100
AcDbMText
10
3113.623331
20
61.2045185002
30
0.0
40
17.5
41
0.0
71
     1
72
     1
1
9
7
SLDTEXTSTYLE7
73
     1
44
1.0
0
MTEXT
5
10C0
330
23
100
AcDbEntity
8
RAHMEN_DICK
48
7.0
100
AcDbMText
10
2763.623331
20
61.2045185002
30
0.0
40
17.5
41
0.0
71
     1
72
     1
1
8
7
SLDTEXTSTYLE7
73
     1
44
1.0
0
MTEXT
5
10C1
330
23
100
AcDbEntity
8
RAHMEN_DICK
48
7.0
100
AcDbMText
10
2413.623331
20
61.2045185002
30
0.0
40
17.5
41
0.0
71
     1
72
     1
1
7
7
SLDTEXTSTYLE7
73
     1
44
1.0
0
MTEXT
5
10C2
330
23
100
AcDbEntity
8
RAHMEN_DICK
48
7.0
100
AcDbMText
10
2063.623331
20
61.2045185002
30
0.0
40
17.5
41
0.0
71
     1
72
     1
1
6
7
SLDTEXTSTYLE7
73
     1
44
1.0
0
MTEXT
5
10C3
330
23
100
AcDbEntity
8
RAHMEN_DICK
48
7.0
100
AcDbMText
10
1713.623331
20
61.2045185002
30
0.0
40
17.5
41
0.0
71
     1
72
     1
1
5
7
SLDTEXTSTYLE7
73
     1
44
1.0
0
MTEXT
5
10C4
330
23
100
AcDbEntity
8
RAHMEN_DICK
48
7.0
100
AcDbMText
10
1362.596669
20
61.2045185002
30
0.0
40
17.5
41
0.0
71
     1
72
     1
1
4
7
SLDTEXTSTYLE8
73
     1
44
1.0
0
MTEXT
5
10C5
330
23
100
AcDbEntity
8
RAHMEN_DICK
48
7.0
100
AcDbMText
10
1013.623331
20
61.2045185002
30
0.0
40
17.5
41
0.0
71
     1
72
     1
1
3
7
SLDTEXTSTYLE7
73
     1
44
1.0
0
MTEXT
5
10C6
330
23
100
AcDbEntity
8
RAHMEN_DICK
48
7.0
100
AcDbMText
10
663.623331
20
61.2045185002
30
0.0
40
17.5
41
0.0
71
     1
72
     1
1
2
7
SLDTEXTSTYLE7
73
     1
44
1.0
0
MTEXT
5
10C7
330
23
100
AcDbEntity
8
RAHMEN_DICK
48
7.0
100
AcDbMText
10
315.805
20
61.2045185002
30
0.0
40
17.5
41
0.0
71
     1
72
     1
1
1
7
SLDTEXTSTYLE9
73
     1
44
1.0
0
MTEXT
5
10C8
330
23
100
AcDbEntity
8
RAHMEN_DICK
48
7.0
100
AcDbMText
10
46.596669
20
208.2045185002
30
0.0
40
17.5
41
0.0
71
     1
72
     1
1
M
7
SLDTEXTSTYLE8
73
     1
44
1.0
0
MTEXT
5
10C9
330
23
100
AcDbEntity
8
RAHMEN_DICK
48
7.0
100
AcDbMText
10
47.623331
20
512.7045185002
30
0.0
40
17.5
41
0.0
71
     1
72
     1
1
L
7
SLDTEXTSTYLE7
73
     1
44
1.0
0
MTEXT
5
10CA
330
23
100
AcDbEntity
8
RAHMEN_DICK
48
7.0
100
AcDbMText
10
47.11
20
862.7045185002
30
0.0
40
17.5
41
0.0
71
     1
72
     1
1
K
7
SLDTEXTSTYLE10
73
     1
44
1.0
0
MTEXT
5
10CB
330
23
100
AcDbEntity
8
RAHMEN_DICK
48
7.0
100
AcDbMText
10
48.906669
20
1212.7045185002
30
0.0
40
17.5
41
0.0
71
     1
72
     1
1
J
7
SLDTEXTSTYLE11
73
     1
44
1.0
0
MTEXT
5
10CC
330
23
100
AcDbEntity
8
RAHMEN_DICK
48
7.0
100
AcDbMText
10
47.366669
20
1562.7045185002
30
0.0
40
17.5
41
0.0
71
     1
72
     1
1
H
7
SLDTEXTSTYLE12
73
     1
44
1.0
0
MTEXT
5
10CD
330
23
100
AcDbEntity
8
RAHMEN_DICK
48
7.0
100
AcDbMText
10
47.238331
20
1912.7045185002
30
0.0
40
17.5
41
0.0
71
     1
72
     1
1
G
7
SLDTEXTSTYLE13
73
     1
44
1.0
0
MTEXT
5
10CE
330
23
100
AcDbEntity
8
RAHMEN_DICK
48
7.0
100
AcDbMText
10
47.88
20
2262.7045185002
30
0.0
40
17.5
41
0.0
71
     1
72
     1
1
F
7
SLDTEXTSTYLE14
73
     1
44
1.0
0
MTEXT
5
10CF
330
23
100
AcDbEntity
8
RAHMEN_DICK
48
7.0
100
AcDbMText
10
47.88
20
2612.7045185002
30
0.0
40
17.5
41
0.0
71
     1
72
     1
1
E
7
SLDTEXTSTYLE14
73
     1
44
1.0
0
MTEXT
5
10D0
330
23
100
AcDbEntity
8
RAHMEN_DICK
48
7.0
100
AcDbMText
10
47.366669
20
2962.7045185002
30
0.0
40
17.5
41
0.0
71
     1
72
     1
1
D
7
SLDTEXTSTYLE12
73
     1
44
1.0
0
MTEXT
5
10D1
330
23
100
AcDbEntity
8
RAHMEN_DICK
48
7.0
100
AcDbMText
10
47.366669
20
3312.7045185002
30
0.0
40
17.5
41
0.0
71
     1
72
     1
1
C
7
SLDTEXTSTYLE12
73
     1
44
1.0
0
MTEXT
5
10D2
330
23
100
AcDbEntity
8
RAHMEN_DICK
48
7.0
100
AcDbMText
10
47.11
20
3662.7045185002
30
0.0
40
17.5
41
0.0
71
     1
72
     1
1
B
7
SLDTEXTSTYLE10
73
     1
44
1.0
0
MTEXT
5
10D3
330
23
100
AcDbEntity
8
RAHMEN_DICK
48
7.0
100
AcDbMText
10
46.596669
20
3967.2045185002
30
0.0
40
17.5
41
0.0
71
     1
72
     1
1
A
7
SLDTEXTSTYLE8
73
     1
44
1.0
0
MTEXT
5
10D4
330
23
100
AcDbEntity
8
RAHMEN_DICK
48
7.0
100
AcDbMText
10
5828.596669
20
208.2045185002
30
0.0
40
17.5
41
0.0
71
     1
72
     1
1
M
7
SLDTEXTSTYLE8
73
     1
44
1.0
0
MTEXT
5
10D5
330
23
100
AcDbEntity
8
RAHMEN_DICK
48
7.0
100
AcDbMText
10
5829.623331
20
512.7045185002
30
0.0
40
17.5
41
0.0
71
     1
72
     1
1
L
7
SLDTEXTSTYLE7
73
     1
44
1.0
0
MTEXT
5
10D6
330
23
100
AcDbEntity
8
RAHMEN_DICK
48
7.0
100
AcDbMText
10
5829.11
20
862.7045185002
30
0.0
40
17.5
41
0.0
71
     1
72
     1
1
K
7
SLDTEXTSTYLE10
73
     1
44
1.0
0
MTEXT
5
10D7
330
23
100
AcDbEntity
8
RAHMEN_DICK
48
7.0
100
AcDbMText
10
5830.906669
20
1212.7045185002
30
0.0
40
17.5
41
0.0
71
     1
72
     1
1
J
7
SLDTEXTSTYLE11
73
     1
44
1.0
0
MTEXT
5
10D8
330
23
100
AcDbEntity
8
RAHMEN_DICK
48
7.0
100
AcDbMText
10
5829.366669
20
1562.7045185002
30
0.0
40
17.5
41
0.0
71
     1
72
     1
1
H
7
SLDTEXTSTYLE12
73
     1
44
1.0
0
MTEXT
5
10D9
330
23
100
AcDbEntity
8
RAHMEN_DICK
48
7.0
100
AcDbMText
10
5829.238331
20
1912.7045185002
30
0.0
40
17.5
41
0.0
71
     1
72
     1
1
G
7
SLDTEXTSTYLE13
73
     1
44
1.0
0
MTEXT
5
10DA
330
23
100
AcDbEntity
8
RAHMEN_DICK
48
7.0
100
AcDbMText
10
5829.88
20
2262.7045185002
30
0.0
40
17.5
41
0.0
71
     1
72
     1
1
F
7
SLDTEXTSTYLE14
73
     1
44
1.0
0
MTEXT
5
10DB
330
23
100
AcDbEntity
8
RAHMEN_DICK
48
7.0
100
AcDbMText
10
5829.88
20
2612.7045185002
30
0.0
40
17.5
41
0.0
71
     1
72
     1
1
E
7
SLDTEXTSTYLE14
73
     1
44
1.0
0
MTEXT
5
10DC
330
23
100
AcDbEntity
8
RAHMEN_DICK
48
7.0
100
AcDbMText
10
5829.366669
20
2962.7045185002
30
0.0
40
17.5
41
0.0
71
     1
72
     1
1
D
7
SLDTEXTSTYLE12
73
     1
44
1.0
0
MTEXT
5
10DD
330
23
100
AcDbEntity
8
RAHMEN_DICK
48
7.0
100
AcDbMText
10
5829.366669
20
3312.7045185002
30
0.0
40
17.5
41
0.0
71
     1
72
     1
1
C
7
SLDTEXTSTYLE12
73
     1
44
1.0
0
MTEXT
5
10DE
330
23
100
AcDbEntity
8
RAHMEN_DICK
48
7.0
100
AcDbMText
10
5829.11
20
3662.7045185002
30
0.0
40
17.5
41
0.0
71
     1
72
     1
1
B
7
SLDTEXTSTYLE10
73
     1
44
1.0
0
MTEXT
5
10DF
330
23
100
AcDbEntity
8
RAHMEN_DICK
48
7.0
100
AcDbMText
10
5828.596669
20
3967.2045185002
30
0.0
40
17.5
41
0.0
71
     1
72
     1
1
A
7
SLDTEXTSTYLE8
73
     1
44
1.0
0
MTEXT
5
10E0
330
23
100
AcDbEntity
8
RAHMEN_DICK
48
7.0
100
AcDbMText
10
5560.928338
20
4114.2045185002
30
0.0
40
17.5
41
0.0
71
     1
72
     1
1
16
7
SLDTEXTSTYLE4
73
     1
44
1.0
0
MTEXT
5
10E1
330
23
100
AcDbEntity
8
RAHMEN_DICK
48
7.0
100
AcDbMText
10
5210.928338
20
4114.2045185002
30
0.0
40
17.5
41
0.0
71
     1
72
     1
1
15
7
SLDTEXTSTYLE4
73
     1
44
1.0
0
MTEXT
5
10E2
330
23
100
AcDbEntity
8
RAHMEN_DICK
48
7.0
100
AcDbMText
10
4859.901669
20
4114.2045185002
30
0.0
40
17.5
41
0.0
71
     1
72
     1
1
14
7
SLDTEXTSTYLE5
73
     1
44
1.0
0
MTEXT
5
10E3
330
23
100
AcDbEntity
8
RAHMEN_DICK
48
7.0
100
AcDbMText
10
4510.928338
20
4114.2045185002
30
0.0
40
17.5
41
0.0
71
     1
72
     1
1
13
7
SLDTEXTSTYLE4
73
     1
44
1.0
0
MTEXT
5
10E4
330
23
100
AcDbEntity
8
RAHMEN_DICK
48
7.0
100
AcDbMText
10
4160.928338
20
4114.2045185002
30
0.0
40
17.5
41
0.0
71
     1
72
     1
1
12
7
SLDTEXTSTYLE4
73
     1
44
1.0
0
MTEXT
5
10E5
330
23
100
AcDbEntity
8
RAHMEN_DICK
48
7.0
100
AcDbMText
10
3813.11
20
4114.2045185002
30
0.0
40
17.5
41
0.0
71
     1
72
     1
1
11
7
SLDTEXTSTYLE6
73
     1
44
1.0
0
MTEXT
5
10E6
330
23
100
AcDbEntity
8
RAHMEN_DICK
48
7.0
100
AcDbMText
10
3460.928338
20
4114.2045185002
30
0.0
40
17.5
41
0.0
71
     1
72
     1
1
10
7
SLDTEXTSTYLE4
73
     1
44
1.0
0
MTEXT
5
10E7
330
23
100
AcDbEntity
8
RAHMEN_DICK
48
7.0
100
AcDbMText
10
3113.623331
20
4114.2045185002
30
0.0
40
17.5
41
0.0
71
     1
72
     1
1
9
7
SLDTEXTSTYLE7
73
     1
44
1.0
0
MTEXT
5
10E8
330
23
100
AcDbEntity
8
RAHMEN_DICK
48
7.0
100
AcDbMText
10
2763.623331
20
4114.2045185002
30
0.0
40
17.5
41
0.0
71
     1
72
     1
1
8
7
SLDTEXTSTYLE7
73
     1
44
1.0
0
MTEXT
5
10E9
330
23
100
AcDbEntity
8
RAHMEN_DICK
48
7.0
100
AcDbMText
10
2413.623331
20
4114.2045185002
30
0.0
40
17.5
41
0.0
71
     1
72
     1
1
7
7
SLDTEXTSTYLE7
73
     1
44
1.0
0
MTEXT
5
10EA
330
23
100
AcDbEntity
8
RAHMEN_DICK
48
7.0
100
AcDbMText
10
2063.623331
20
4114.2045185002
30
0.0
40
17.5
41
0.0
71
     1
72
     1
1
6
7
SLDTEXTSTYLE7
73
     1
44
1.0
0
MTEXT
5
10EB
330
23
100
AcDbEntity
8
RAHMEN_DICK
48
7.0
100
AcDbMText
10
1713.623331
20
4114.2045185002
30
0.0
40
17.5
41
0.0
71
     1
72
     1
1
5
7
SLDTEXTSTYLE7
73
     1
44
1.0
0
MTEXT
5
10EC
330
23
100
AcDbEntity
8
RAHMEN_DICK
48
7.0
100
AcDbMText
10
1362.596669
20
4114.2045185002
30
0.0
40
17.5
41
0.0
71
     1
72
     1
1
4
7
SLDTEXTSTYLE8
73
     1
44
1.0
0
MTEXT
5
10ED
330
23
100
AcDbEntity
8
RAHMEN_DICK
48
7.0
100
AcDbMText
10
1013.623331
20
4114.2045185002
30
0.0
40
17.5
41
0.0
71
     1
72
     1
1
3
7
SLDTEXTSTYLE7
73
     1
44
1.0
0
MTEXT
5
10EE
330
23
100
AcDbEntity
8
RAHMEN_DICK
48
7.0
100
AcDbMText
10
663.623331
20
4114.2045185002
30
0.0
40
17.5
41
0.0
71
     1
72
     1
1
2
7
SLDTEXTSTYLE7
73
     1
44
1.0
0
MTEXT
5
10EF
330
23
100
AcDbEntity
8
RAHMEN_DICK
48
7.0
100
AcDbMText
10
315.805
20
4114.2045185002
30
0.0
40
17.5
41
0.0
71
     1
72
     1
1
1
7
SLDTEXTSTYLE9
73
     1
44
1.0
0
MTEXT
5
10F0
330
23
100
AcDbEntity
8
20
48
7.0
100
AcDbMText
10
4521.0612983432
20
565.4223733213
30
0.0
40
14.7
41
0.0
71
     1
72
     1
1
Auftraggeber
7
SLDTEXTSTYLE15
73
     1
44
1.0
0
MTEXT
5
10F1
330
23
100
AcDbEntity
8
TEXT
48
7.0
100
AcDbMText
10
5741.5639940241
20
124.1420588477
30
0.0
40
21.0
41
0.0
71
     2
72
     1
1
2
7
SLDTEXTSTYLE16
73
     1
44
1.0
0
MTEXT
5
10F2
330
23
100
AcDbEntity
8
TEXT
48
7.0
100
AcDbMText
10
5767.2856037095
20
157.9626894637
30
0.0
40
21.0
41
0.0
71
     2
72
     1
1
1
7
SLDTEXTSTYLE16
73
     1
44
1.0
0
MTEXT
5
10F3
330
23
100
AcDbEntity
8
TEXT
48
7.0
100
AcDbMText
10
5210.6423590538
20
489.508394198
30
0.0
40
24.5
41
0.0
71
     1
72
     1
1
ST
7
SLDTEXTSTYLE17
73
     1
44
1.0
0
MTEXT
5
10F4
330
23
100
AcDbEntity
8
TEXT
48
7.0
100
AcDbMText
10
5210.6423590538
20
301.8113245299
30
0.0
40
24.5
41
0.0
71
     1
72
     1
1
base frame
7
SLDTEXTSTYLE18
73
     1
44
1.0
0
MTEXT
5
10F5
330
23
100
AcDbEntity
8
TEXT
48
7.0
100
AcDbMText
10
5303.199986
20
180.6238245299
30
0.0
40
24.5
41
0.0
71
     1
72
     1
1
314-092-59196-10
7
SLDTEXTSTYLE19
73
     1
44
1.0
0
MTEXT
5
10F6
330
23
100
AcDbEntity
8
TEXT
48
7.0
100
AcDbMText
10
5136.6599720062
20
301.8367955994
30
0.0
40
14.7
41
0.0
71
     2
72
     1
1
Martini, Christopher
7
SLDTEXTSTYLE20
73
     1
44
1.0
0
MTEXT
5
10F7
330
23
100
AcDbEntity
8
20
48
7.0
100
AcDbMText
10
4526.920741
20
431.8998195994
30
0.0
40
14.7
41
0.0
71
     1
72
     1
1
CAD: SolidWorks
7
SLDTEXTSTYLE15
73
     1
44
1.0
0
MTEXT
5
10F8
330
23
100
AcDbEntity
8
20
48
7.0
100
AcDbMText
10
5136.9094267804
20
379.5173146656
30
0.0
40
14.7
41
0.0
71
     2
72
     1
1
EN ISO
7
SLDTEXTSTYLE15
73
     1
44
1.0
0
MTEXT
5
10F9
330
23
100
AcDbEntity
8
20
48
7.0
100
AcDbMText
10
5137.1876082684
20
358.4381183353
30
0.0
40
14.7
41
0.0
71
     2
72
     1
1
1302
7
SLDTEXTSTYLE15
73
     1
44
1.0
0
MTEXT
5
10FA
330
23
100
AcDbEntity
8
20
48
7.0
100
AcDbMText
10
4906.301022
20
91.8367955994
30
0.0
40
14.7
41
0.0
71
     1
72
     1
1
Urspr.
7
SLDTEXTSTYLE15
73
     1
44
1.0
0
MTEXT
5
10FB
330
23
100
AcDbEntity
8
20
48
7.0
100
AcDbMText
10
4804.7161042494
20
89.7458918736
30
0.0
40
11.2
41
0.0
71
     1
72
     1
1
Name
7
SLDTEXTSTYLE15
73
     1
44
1.0
0
MTEXT
5
10FC
330
23
100
AcDbEntity
8
20
48
7.0
100
AcDbMText
10
5137.0816943701
20
331.0986459384
30
0.0
40
14.7
41
0.0
71
     2
72
     1
1
Name
7
SLDTEXTSTYLE15
73
     1
44
1.0
0
MTEXT
5
10FD
330
23
100
AcDbEntity
8
20
48
7.0
100
AcDbMText
10
5208.8389816199
20
167.611794319
30
0.0
40
14.7
41
0.0
71
     1
72
     1
1
DRW No.
7
SLDTEXTSTYLE15
73
     1
44
1.0
0
MTEXT
5
10FE
330
23
100
AcDbEntity
8
20
48
7.0
100
AcDbMText
10
5210.6423590538
20
142.9367885994
30
0.0
40
14.7
41
0.0
71
     1
72
     1
1
Art-Nr.
7
SLDTEXTSTYLE15
73
     1
44
1.0
0
MTEXT
5
10FF
330
23
100
AcDbEntity
8
20
48
7.0
100
AcDbMText
10
5714.1076958005
20
552.625848414
30
0.0
40
14.7
41
0.0
71
     1
72
     1
1
U-F:
7
SLDTEXTSTYLE15
73
     1
44
1.0
0
MTEXT
5
1100
330
23
100
AcDbEntity
8
20
48
7.0
100
AcDbMText
10
5755.8090730557
20
555.0772904609
30
0.0
40
21.0
41
0.0
71
     1
72
     1
1
A1
7
SLDTEXTSTYLE15
73
     1
44
1.0
0
MTEXT
5
1101
330
23
100
AcDbEntity
8
20
48
7.0
100
AcDbMText
10
4977.8613064539
20
358.4381183353
30
0.0
40
14.7
41
0.0
71
     2
72
     1
1
ISO 2768-mK
7
SLDTEXTSTYLE15
73
     1
44
1.0
0
MTEXT
5
1102
330
23
100
AcDbEntity
8
20
48
7.0
100
AcDbMText
10
4521.0612983432
20
544.4223733213
30
0.0
40
14.7
41
0.0
71
     1
72
     1
1
Customer:
7
SLDTEXTSTYLE15
73
     1
44
1.0
0
MTEXT
5
1103
330
23
100
AcDbEntity
8
20
48
7.0
100
AcDbMText
10
4790.7365140715
20
358.4381183353
30
0.0
40
14.7
41
0.0
71
     2
72
     1
1
ISO 13715
7
SLDTEXTSTYLE15
73
     1
44
1.0
0
MTEXT
5
110A
330
23
100
AcDbEntity
8
20
48
7.0
100
AcDbMText
10
5210.6423590538
20
512.6320857033
30
0.0
40
14.7
41
0.0
71
     1
72
     1
1
Werkstoff/Material
7
SLDTEXTSTYLE15
73
     1
44
1.0
0
MTEXT
5
110B
330
23
100
AcDbEntity
8
20
48
7.0
100
AcDbMText
10
5211.5681633629
20
331.0759904786
30
0.0
40
14.7
41
0.0
71
     1
72
     1
1
Description
7
SLDTEXTSTYLE15
73
     1
44
1.0
0
MTEXT
5
110C
330
23
100
AcDbEntity
8
20
48
7.0
100
AcDbMText
10
5210.6423590538
20
403.2421884081
30
0.0
40
14.7
41
0.0
71
     1
72
     1
1
Beschreibung
7
SLDTEXTSTYLE15
73
     1
44
1.0
0
MTEXT
5
110D
330
23
100
AcDbEntity
8
TEXT
48
7.0
100
AcDbMText
10
5210.6423590538
20
377.3516858502
30
0.0
40
24.5
41
0.0
71
     1
72
     1
1
Grundrahmen
7
SLDTEXTSTYLE18
73
     1
44
1.0
0
MTEXT
5
110E
330
23
100
AcDbEntity
8
20
48
7.0
100
AcDbMText
10
5210.6423590538
20
443.1318095994
30
0.0
40
14.7
41
0.0
71
     1
72
     1
1
Maßstab/Scale
7
SLDTEXTSTYLE15
73
     1
44
1.0
0
MTEXT
5
1115
330
23
100
AcDbEntity
8
20
48
7.0
100
AcDbMText
10
5759.0497367049
20
117.8600455799
30
0.0
40
14.7
41
0.0
71
     1
72
     1
1
Bl./Sh.
7
SLDTEXTSTYLE15
73
     1
44
1.0
0
MTEXT
5
1116
330
23
100
AcDbEntity
8
20
48
7.0
100
AcDbMText
10
5729.604134834
20
186.8613195618
30
0.0
40
12.6
41
0.0
71
     1
72
     1
1
Blatt/Sheet
7
SLDTEXTSTYLE15
73
     1
44
1.0
0
MTEXT
5
1117
330
23
100
AcDbEntity
8
20
48
7.0
100
AcDbMText
10
4893.8516845377
20
272.0867955994
30
0.0
40
14.7
41
0.0
71
     1
72
     1
1
geneh.
7
SLDTEXTSTYLE15
73
     1
44
1.0
0
MTEXT
5
1118
330
23
100
AcDbEntity
8
20
48
7.0
100
AcDbMText
10
4893.8516845377
20
301.8367955994
30
0.0
40
14.7
41
0.0
71
     1
72
     1
1
erstel.
7
SLDTEXTSTYLE15
73
     1
44
1.0
0
MTEXT
5
1119
330
23
100
AcDbEntity
8
20
48
7.0
100
AcDbMText
10
5016.2367391015
20
331.0986459384
30
0.0
40
14.7
41
0.0
71
     2
72
     1
1
Datum/Date
7
SLDTEXTSTYLE15
73
     1
44
1.0
0
MTEXT
5
111A
330
23
100
AcDbEntity
8
20
48
7.0
100
AcDbMText
10
5139.7865522129
20
449.4887584103
30
0.0
40
14.7
41
0.0
71
     2
72
     1
1
Oberfläche
7
SLDTEXTSTYLE15
73
     1
44
1.0
0
MTEXT
5
111B
330
23
100
AcDbEntity
8
20
48
7.0
100
AcDbMText
10
5137.2743698329
20
431.0577052625
30
0.0
40
14.7
41
0.0
71
     2
72
     1
1
Surfaces
7
SLDTEXTSTYLE15
73
     1
44
1.0
0
MTEXT
5
1128
330
23
100
AcDbEntity
8
20
48
7.0
100
AcDbMText
10
4790.7569307083
20
431.8998195994
30
0.0
40
14.7
41
0.0
71
     2
72
     1
1
Workpeace egdes
7
SLDTEXTSTYLE15
73
     1
44
1.0
0
MTEXT
5
1129
330
23
100
AcDbEntity
8
20
48
7.0
100
AcDbMText
10
4787.1840153176
20
450.0452056041
30
0.0
40
14.7
41
0.0
71
     2
72
     1
1
Werkstückkanten
7
SLDTEXTSTYLE15
73
     1
44
1.0
0
MTEXT
5
112A
330
23
100
AcDbEntity
8
20
48
7.0
100
AcDbMText
10
4700.5388651881
20
89.7458918736
30
0.0
40
11.2
41
0.0
71
     1
72
     1
1
Datum/Date
7
SLDTEXTSTYLE15
73
     1
44
1.0
0
MTEXT
5
112B
330
23
100
AcDbEntity
8
20
48
7.0
100
AcDbMText
10
4568.200042
20
90.0958915659
30
0.0
40
11.2
41
0.0
71
     1
72
     1
1
Änd.Nr./Mod.no.
7
SLDTEXTSTYLE15
73
     1
44
1.0
0
MTEXT
5
112C
330
23
100
AcDbEntity
8
20
48
7.0
100
AcDbMText
10
4511.3302417372
20
90.0958915659
30
0.0
40
11.2
41
0.0
71
     1
72
     1
1
Index
7
SLDTEXTSTYLE15
73
     1
44
1.0
0
MTEXT
5
112D
330
23
100
AcDbEntity
8
TEXT
48
7.0
100
AcDbMText
10
5302.7109119685
20
132.9363258103
30
0.0
40
24.5
41
0.0
71
     1
72
     1
1
1006942
7
SLDTEXTSTYLE19
73
     1
44
1.0
0
MTEXT
5
112E
330
23
100
AcDbEntity
8
20
48
7.0
100
AcDbMText
10
4517.9646775816
20
509.8735862502
30
0.0
40
14.7
41
0.0
71
     1
72
     1
1
A-Nr.
7
SLDTEXTSTYLE15
73
     1
44
1.0
0
MTEXT
5
112F
330
23
100
AcDbEntity
8
TEXT
48
7.0
100
AcDbMText
10
5731.4608284222
20
220.2923000316
30
0.0
40
21.0
41
0.0
71
     2
72
     1
1
0
7
SLDTEXTSTYLE21
73
     1
44
1.0
0
MTEXT
5
1130
330
23
100
AcDbEntity
8
20
48
7.0
100
AcDbMText
10
4517.9646775816
20
478.2277518042
30
0.0
40
14.7
41
0.0
71
     1
72
     1
1
Item No.
7
SLDTEXTSTYLE15
73
     1
44
1.0
0
MTEXT
5
1131
330
23
100
AcDbEntity
8
20
48
7.0
100
AcDbMText
10
5209.4499945386
20
123.1617955994
30
0.0
40
14.7
41
0.0
71
     1
72
     1
1
Item No.
7
SLDTEXTSTYLE15
73
     1
44
1.0
0
MTEXT
5
1132
330
23
100
AcDbEntity
8
20
48
7.0
100
AcDbMText
10
5208.8389816199
20
187.7768354936
30
0.0
40
14.7
41
0.0
71
     1
72
     1
1
Z-Nr.
7
SLDTEXTSTYLE15
73
     1
44
1.0
0
MTEXT
5
1133
330
23
100
AcDbEntity
8
TEXT
48
7.0
100
AcDbMText
10
5705.3652043288
20
123.1391401395
30
0.0
40
14.7
41
0.0
71
     2
72
     1
1
en
7
SLDTEXTSTYLE19
73
     1
44
1.0
0
MTEXT
5
1134
330
23
100
AcDbEntity
8
20
48
7.0
100
AcDbMText
10
5692.4096566146
20
145.1041465194
30
0.0
40
14.7
41
0.0
71
     1
72
     1
1
SP
7
SLDTEXTSTYLE15
73
     1
44
1.0
0
MTEXT
5
1135
330
23
100
AcDbEntity
8
TEXT
48
7.0
100
AcDbMText
10
4977.0
20
301.8367955994
30
0.0
40
14.7
41
0.0
71
     1
72
     1
1
23.07.2026
7
SLDTEXTSTYLE20
73
     1
44
1.0
0
MTEXT
5
113C
330
23
100
AcDbEntity
8
0
6
Continuous
62
     7
48
7.0
370
     0
100
AcDbMText
10
4927.7826976795
20
495.7880892081
30
0.0
40
17.5
41
0.0
71
     1
72
     1
1
Size ISO 14405
7
SLDTEXTSTYLE22
73
     1
44
1.0
0
MTEXT
5
1200
330
23
100
AcDbEntity
8
SLD-0
48
7.0
100
AcDbMText
10
1566.7433945048
20
3867.2898157765
30
0.0
40
29.6333333333
41
0.0
71
     2
72
     1
1
WELDMENT ITEM #1
7
SLDTEXTSTYLE0
73
     1
44
1.0
0
MTEXT
5
130E
330
23
100
AcDbEntity
8
SLD-0
48
7.0
100
AcDbMText
10
4415.0854922309
20
3891.4553566626
30
0.0
40
29.6333333333
41
0.0
71
     2
72
     1
1
WELDMENT ITEM #2
7
SLDTEXTSTYLE0
73
     1
44
1.0
0
MTEXT
5
1390
330
23
100
AcDbEntity
8
SLD-0
48
7.0
100
AcDbMText
10
1022.5324843623
20
2744.5249819917
30
0.0
40
29.6333333333
41
0.0
71
     2
72
     1
1
WELDMENT ITEM #3
7
SLDTEXTSTYLE0
73
     1
44
1.0
0
MTEXT
5
1416
330
23
100
AcDbEntity
8
SLD-0
48
7.0
100
AcDbMText
10
2327.8288651258
20
2734.9266404095
30
0.0
40
29.6333333333
41
0.0
71
     2
72
     1
1
WELDMENT ITEM #4
7
SLDTEXTSTYLE0
73
     1
44
1.0
0
MTEXT
5
14B7
330
23
100
AcDbEntity
8
SLD-0
48
7.0
100
AcDbMText
10
3448.8857282099
20
2732.3066646532
30
0.0
40
29.6333333333
41
0.0
71
     2
72
     1
1
WELDMENT ITEM #5
7
SLDTEXTSTYLE0
73
     1
44
1.0
0
MTEXT
5
1592
330
23
100
AcDbEntity
8
SLD-0
48
7.0
100
AcDbMText
10
4774.8886787941
20
2686.2372745935
30
0.0
40
29.6333333333
41
0.0
71
     2
72
     1
1
WELDMENT ITEM #6
7
SLDTEXTSTYLE0
73
     1
44
1.0
0
MTEXT
5
1616
330
23
100
AcDbEntity
8
SLD-0
48
7.0
100
AcDbMText
10
824.603765808
20
1465.6164906554
30
0.0
40
29.6333333333
41
0.0
71
     2
72
     1
1
WELDMENT ITEM #7
7
SLDTEXTSTYLE0
73
     1
44
1.0
0
MTEXT
5
16D0
330
23
100
AcDbEntity
8
SLD-0
48
7.0
100
AcDbMText
10
2143.8678690238
20
1505.2229780705
30
0.0
40
29.6333333333
41
0.0
71
     2
72
     1
1
WELDMENT ITEM #8
7
SLDTEXTSTYLE0
73
     1
44
1.0
0
MTEXT
5
17A1
330
23
100
AcDbEntity
8
SLD-0
48
7.0
100
AcDbMText
10
3611.0414828786
20
1428.1832381062
30
0.0
40
29.6333333333
41
0.0
71
     2
72
     1
1
WELDMENT ITEM #9
7
SLDTEXTSTYLE0
73
     1
44
1.0
0
ATTDEF
5
B3
330
7E
100
AcDbEntity
8
FORMAT
62
     7
48
7.0
100
AcDbText
10
7598.8688483986
20
1038.9616683166
30
0.0
40
24.5
1
POWDERCOAT RAL 7035
41
0.75
7
SLDTEXTSTYLE0
11
7598.8688483986
21
1026.2886073649
31
0.0
100
AcDbAttributeDefinition
3

2
AUTOATTR0
70
     0
74
     1
0
MTEXT
5
89
330
85
100
AcDbEntity
8
SLD-0
62
     0
48
7.0
100
AcDbMText
10
0.0
20
22.558685446
30
0.0
40
17.5
41
0.0
71
     1
72
     1
1
\LTOLERANCES:
7
SLDTEXTSTYLE0
73
     1
44
1.0
0
MTEXT
5
8A
330
85
100
AcDbEntity
8
SLD-0
62
     0
48
7.0
100
AcDbMText
10
-25.666664876
20
-26.4413160665
30
0.0
40
17.5
41
0.0
71
     1
72
     1
1
X.X
7
SLDTEXTSTYLE0
73
     1
44
1.0
0
MTEXT
5
8B
330
85
100
AcDbEntity
8
SLD-0
62
     0
48
7.0
100
AcDbMText
10
86.6249995306
20
-26.4413160665
30
0.0
40
17.5
41
0.0
71
     1
72
     1
1
%%p
7
SLDTEXTSTYLE0
73
     1
44
1.0
0
MTEXT
5
8C
330
85
100
AcDbEntity
8
SLD-0
62
     0
48
7.0
100
AcDbMText
10
116.4187513664
20
-26.4413160665
30
0.0
40
17.5
41
0.0
71
     1
72
     1
1
0.2
7
SLDTEXTSTYLE0
73
     1
44
1.0
0
MTEXT
5
8D
330
85
100
AcDbEntity
8
SLD-0
62
     0
48
7.0
100
AcDbMText
10
-25.666664876
20
-50.9413168227
30
0.0
40
17.5
41
0.0
71
     1
72
     1
1
X.XX
7
SLDTEXTSTYLE0
73
     1
44
1.0
0
MTEXT
5
8E
330
85
100
AcDbEntity
8
SLD-0
62
     0
48
7.0
100
AcDbMText
10
87.9131918773
20
-50.9413168227
30
0.0
40
17.5
41
0.0
71
     1
72
     1
1
%%p
7
SLDTEXTSTYLE0
73
     1
44
1.0
0
MTEXT
5
8F
330
85
100
AcDbEntity
8
SLD-0
62
     0
48
7.0
100
AcDbMText
10
117.7069437131
20
-50.9413168227
30
0.0
40
17.5
41
0.0
71
     1
72
     1
1
0.10
7
SLDTEXTSTYLE0
73
     1
44
1.0
0
MTEXT
5
90
330
85
100
AcDbEntity
8
SLD-0
62
     0
48
7.0
100
AcDbMText
10
-25.666664876
20
-75.4413175789
30
0.0
40
17.5
41
0.0
71
     1
72
     1
1
X.XXX
7
SLDTEXTSTYLE0
73
     1
44
1.0
0
MTEXT
5
91
330
85
100
AcDbEntity
8
SLD-0
62
     0
48
7.0
100
AcDbMText
10
89.201384224
20
-75.4413175789
30
0.0
40
17.5
41
0.0
71
     1
72
     1
1
%%p
7
SLDTEXTSTYLE0
73
     1
44
1.0
0
MTEXT
5
92
330
85
100
AcDbEntity
8
SLD-0
62
     0
48
7.0
100
AcDbMText
10
118.9951360598
20
-75.4413175789
30
0.0
40
17.5
41
0.0
71
     1
72
     1
1
0.010
7
SLDTEXTSTYLE0
73
     1
44
1.0
0
MTEXT
5
93
330
85
100
AcDbEntity
8
SLD-0
62
     0
48
7.0
100
AcDbMText
10
-25.666664876
20
-99.9413183352
30
0.0
40
17.5
41
0.0
71
     1
72
     1
1
ANGLES
7
SLDTEXTSTYLE0
73
     1
44
1.0
0
MTEXT
5
94
330
85
100
AcDbEntity
8
SLD-0
62
     0
48
7.0
100
AcDbMText
10
89.7604105994
20
-99.9413183352
30
0.0
40
17.5
41
0.0
71
     1
72
     1
1
%%p
7
SLDTEXTSTYLE0
73
     1
44
1.0
0
MTEXT
5
95
330
85
100
AcDbEntity
8
SLD-0
62
     0
48
7.0
100
AcDbMText
10
112.9916624352
20
-99.9413183352
30
0.0
40
17.5
41
0.0
71
     1
72
     1
1
0
7
SLDTEXTSTYLE0
73
     1
44
1.0
0
MTEXT
5
96
330
85
100
AcDbEntity
8
SLD-0
62
     0
48
7.0
100
AcDbMText
10
125.8249981329
20
-99.9413183352
30
0.0
40
17.5
41
0.0
71
     1
72
     1
1
%%d
7
SLDTEXTSTYLE0
73
     1
44
1.0
0
MTEXT
5
97
330
85
100
AcDbEntity
8
SLD-0
62
     0
48
7.0
100
AcDbMText
10
143.5000037029
20
-99.9413183352
30
0.0
40
17.5
41
0.0
71
     1
72
     1
1
30'
7
SLDTEXTSTYLE0
73
     1
44
1.0
0
MTEXT
5
9C
330
99
100
AcDbEntity
8
FORMAT
62
     0
48
7.0
100
AcDbMText
10
154.65625
20
31.5821596244
30
0.0
40
24.5
41
0.0
71
     3
72
     1
1
MATERIAL:
7
SLDTEXTSTYLE0
73
     1
44
1.0
0
MTEXT
5
9D
330
99
100
AcDbEntity
8
FORMAT
62
     0
48
7.0
100
AcDbMText
10
155.660078153
20
-0.0977020888
30
0.0
40
24.5
41
0.0
71
     3
72
     1
1
HEAT TREAT:
7
SLDTEXTSTYLE0
73
     1
44
1.0
0
MTEXT
5
9E
330
99
100
AcDbEntity
8
FORMAT
62
     0
48
7.0
100
AcDbMText
10
161.3256998882
20
-63.4574255152
30
0.0
40
24.5
41
0.0
71
     3
72
     1
1
FINISH:
7
SLDTEXTSTYLE0
73
     1
44
1.0
0
MTEXT
5
A7
330
A0
100
AcDbEntity
8
SLD-0
62
     0
48
7.0
100
AcDbMText
10
0.0
20
31.5821596244
30
0.0
40
24.5
41
0.0
71
     1
72
     1
1
NOTES:
7
SLDTEXTSTYLE0
73
     1
44
1.0
0
MTEXT
5
A9
330
A0
100
AcDbEntity
8
SLD-0
62
     0
48
7.0
100
AcDbMText
10
69.9999984354
20
-31.777563802
30
0.0
40
24.5
41
0.0
71
     1
72
     1
1
BREAK AL SHARP CORNERS 0.2  x 45
7
SLDTEXTSTYLE1
73
     1
44
1.0
0
MTEXT
5
AA
330
A0
100
AcDbEntity
8
SLD-0
62
     0
48
7.0
100
AcDbMText
10
623.7680446357
20
-31.777563802
30
0.0
40
24.5
41
0.0
71
     1
72
     1
1
%%d
7
SLDTEXTSTYLE0
73
     1
44
1.0
0
MTEXT
5
AB
330
A0
100
AcDbEntity
8
SLD-0
62
     0
48
7.0
100
AcDbMText
10
0.0
20
-31.777563802
30
0.0
40
24.5
41
0.0
71
     1
72
     1
1
1.
7
SLDTEXTSTYLE0
73
     1
44
1.0
0
MTEXT
5
AC
330
A0
100
AcDbEntity
8
SLD-0
62
     0
48
7.0
100
AcDbMText
10
69.9999984354
20
-63.4574255152
30
0.0
40
24.5
41
0.0
71
     1
72
     1
1
ALL HOLES AND MACHINED SURFACES FREE OF PAINT
7
SLDTEXTSTYLE0
73
     1
44
1.0
0
MTEXT
5
AD
330
A0
100
AcDbEntity
8
SLD-0
62
     0
48
7.0
100
AcDbMText
10
0.0
20
-63.4574255152
30
0.0
40
24.5
41
0.0
71
     1
72
     1
1
2.
7
SLDTEXTSTYLE0
73
     1
44
1.0
0
MTEXT
5
AE
330
A0
100
AcDbEntity
8
SLD-0
62
     0
48
7.0
100
AcDbMText
10
69.9999984354
20
-148.7310415311
30
0.0
40
24.5
41
0.0
71
     1
72
     1
1
ALL
7
SLDTEXTSTYLE0
73
     1
44
1.0
0
MTEXT
5
AF
330
A0
100
AcDbEntity
8
SLD-0
62
     0
48
7.0
100
AcDbMText
10
256.6273873895
20
-148.7310415311
30
0.0
40
24.5
41
0.0
71
     1
72
     1
1
=
7
SLDTEXTSTYLE0
73
     1
44
1.0
0
MTEXT
5
B0
330
A0
100
AcDbEntity
8
SLD-0
62
     0
48
7.0
100
AcDbMText
10
323.7301571935
20
-104.8011817965
30
0.0
40
24.5
41
0.0
71
     1
72
     1
1
6.3
7
SLDTEXTSTYLE0
73
     1
44
1.0
0
MTEXT
5
B1
330
A0
100
AcDbEntity
8
SLD-0
62
     0
48
7.0
100
AcDbMText
10
0.0
20
-148.7310415311
30
0.0
40
24.5
41
0.0
71
     1
72
     1
1
3.
7
SLDTEXTSTYLE0
73
     1
44
1.0
0
MTEXT
5
4B2
330
4AF
100
AcDbEntity
8
SLD-0
62
     0
48
7.0
100
AcDbMText
10
0.0
20
42.9742957746
30
0.0
40
33.3375
41
0.0
71
     1
72
     1
1
- PRE-MACHINE OF ALL WELDMENT
7
SLDTEXTSTYLE0
73
     1
44
1.0
0
MTEXT
5
4B3
330
4AF
100
AcDbEntity
8
SLD-0
62
     0
48
7.0
100
AcDbMText
10
0.0
20
-8.4757015759
30
0.0
40
33.3375
41
0.0
71
     1
72
     1
1
ITEMS PERMITTED.
7
SLDTEXTSTYLE0
73
     1
44
1.0
0
MTEXT
5
4B5
330
4AF
100
AcDbEntity
8
SLD-0
62
     0
48
7.0
100
AcDbMText
10
0.0
20
-111.3757027963
30
0.0
40
33.3375
41
0.0
71
     1
72
     1
1
- ALL WELDS TO BE 6mm
7
SLDTEXTSTYLE3
73
     1
44
1.0
0
MTEXT
5
4B6
330
4AF
100
AcDbEntity
8
SLD-0
62
     0
48
7.0
100
AcDbMText
10
0.0
20
-162.8257034065
30
0.0
40
33.3375
41
0.0
71
     1
72
     1
1
CONTINUOUS FILLET WELDS, ALL
7
SLDTEXTSTYLE0
73
     1
44
1.0
0
MTEXT
5
4B7
330
4AF
100
AcDbEntity
8
SLD-0
62
     0
48
7.0
100
AcDbMText
10
0.0
20
-214.2757040167
30
0.0
40
33.3375
41
0.0
71
     1
72
     1
1
AROUND ALL JOINTS.
7
SLDTEXTSTYLE0
73
     1
44
1.0
0
MTEXT
5
4B8
330
4AF
100
AcDbEntity
8
SLD-0
62
     0
48
7.0
100
AcDbMText
10
0.0
20
-317.1757052371
30
0.0
40
33.3375
41
0.0
71
     1
72
     1
1
- MAKE NOTE OF CORRECT
7
SLDTEXTSTYLE0
73
     1
44
1.0
0
MTEXT
5
4B9
330
4AF
100
AcDbEntity
8
SLD-0
62
     0
48
7.0
100
AcDbMText
10
0.0
20
-368.6257058473
30
0.0
40
33.3375
41
0.0
71
     1
72
     1
1
ORIENTATION OF EACH ITEM WITH
7
SLDTEXTSTYLE0
73
     1
44
1.0
0
MTEXT
5
4BA
330
4AF
100
AcDbEntity
8
SLD-0
62
     0
48
7.0
100
AcDbMText
10
0.0
20
-420.0757064575
30
0.0
40
33.3375
41
0.0
71
     1
72
     1
1
RESPECT TO THE HOLES.
7
SLDTEXTSTYLE0
73
     1
44
1.0
0
MTEXT
5
4BB
330
4AF
100
AcDbEntity
8
SLD-0
62
     0
48
7.0
100
AcDbMText
10
0.0
20
-522.975707678
30
0.0
40
33.3375
41
0.0
71
     1
72
     1
1
- WELDS ON BOTTOM OF WELDMENT
7
SLDTEXTSTYLE0
73
     1
44
1.0
0
MTEXT
5
4BC
330
4AF
100
AcDbEntity
8
SLD-0
62
     0
48
7.0
100
AcDbMText
10
0.0
20
-574.4257082882
30
0.0
40
33.3375
41
0.0
71
     1
72
     1
1
MUST BE GROUND FLUSH.
7
SLDTEXTSTYLE0
73
     1
44
1.0
0
MTEXT
5
51E
330
51B
100
AcDbEntity
8
20
62
     0
48
7.0
100
AcDbMText
10
0.0
20
18.9492957746
30
0.0
40
14.7
41
0.0
71
     1
72
     1
1
Schutzvermerk nach ISO 16016 beachten
7
SLDTEXTSTYLE15
73
     1
44
1.0
0
MTEXT
5
51F
330
51B
100
AcDbEntity
8
20
62
     0
48
7.0
100
AcDbMText
10
0.0
20
-0.038204567
30
0.0
40
14.7
41
0.0
71
     1
72
     1
1
Follow protection notice to ISO 16016
7
SLDTEXTSTYLE15
73
     1
44
1.0
0
MTEXT
5
529
330
526
100
AcDbEntity
8
20
62
     0
48
7.0
100
AcDbMText
10
0.0
20
18.9492957746
30
0.0
40
14.7
41
0.0
71
     1
72
     1
1
Gewicht (kg)
7
SLDTEXTSTYLE15
73
     1
44
1.0
0
MTEXT
5
52A
330
526
100
AcDbEntity
8
20
62
     0
48
7.0
100
AcDbMText
10
0.0
20
-0.038204567
30
0.0
40
14.7
41
0.0
71
     1
72
     1
1
Weight
7
SLDTEXTSTYLE15
73
     1
44
1.0
0
MTEXT
5
536
330
533
100
AcDbEntity
8
20
62
     0
48
7.0
100
AcDbMText
10
34.1660034229
20
18.9492957746
30
0.0
40
14.7
41
0.0
71
     2
72
     1
1
General
7
SLDTEXTSTYLE15
73
     1
44
1.0
0
MTEXT
5
537
330
533
100
AcDbEntity
8
20
62
     0
48
7.0
100
AcDbMText
10
34.310190572
20
-0.038204567
30
0.0
40
14.7
41
0.0
71
     2
72
     1
1
tolerances
7
SLDTEXTSTYLE15
73
     1
44
1.0
0
MTEXT
5
53C
330
539
100
AcDbEntity
8
20
62
     0
48
7.0
100
AcDbMText
10
45.7779784424
20
18.9492957746
30
0.0
40
14.7
41
0.0
71
     2
72
     1
1
Allgemein-
7
SLDTEXTSTYLE15
73
     1
44
1.0
0
MTEXT
5
53D
330
539
100
AcDbEntity
8
20
62
     0
48
7.0
100
AcDbMText
10
45.2752211151
20
-0.038204567
30
0.0
40
14.7
41
0.0
71
     2
72
     1
1
Toleranzen
7
SLDTEXTSTYLE15
73
     1
44
1.0
0
MTEXT
5
553
330
54E
100
AcDbEntity
8
0
6
Continuous
62
     0
48
7.0
370
     0
100
AcDbMText
10
0.0
20
22.558685446
30
0.0
40
17.5
41
0.0
71
     1
72
     1
1
E
7
SLDTEXTSTYLE22
73
     1
44
1.0
0
MTEXT
5
5CC
330
556
100
AcDbEntity
8
SLD-0
62
     0
48
7.0
100
AcDbMText
10
25.1552411807
20
-7.4096003316
30
0.0
40
24.5
41
0.0
71
     1
72
     1
1
ITEM
7
SLDTEXTSTYLE0
73
     1
44
1.0
0
MTEXT
5
5CD
330
556
100
AcDbEntity
8
SLD-0
62
     0
48
7.0
100
AcDbMText
10
28.7791989264
20
-39.0894620448
30
0.0
40
24.5
41
0.0
71
     1
72
     1
1
NO.
7
SLDTEXTSTYLE0
73
     1
44
1.0
0
MTEXT
5
5CE
330
556
100
AcDbEntity
8
SLD-0
62
     0
48
7.0
100
AcDbMText
10
140.9940136632
20
-23.2495311882
30
0.0
40
24.5
41
0.0
71
     1
72
     1
1
QTY.
7
SLDTEXTSTYLE0
73
     1
44
1.0
0
MTEXT
5
5CF
330
556
100
AcDbEntity
8
SLD-0
62
     0
48
7.0
100
AcDbMText
10
342.8660896535
20
-23.2495311882
30
0.0
40
24.5
41
0.0
71
     1
72
     1
1
DESCRIPTION
7
SLDTEXTSTYLE0
73
     1
44
1.0
0
MTEXT
5
5D0
330
556
100
AcDbEntity
8
SLD-0
62
     0
48
7.0
100
AcDbMText
10
710.0566148177
20
-23.2495311882
30
0.0
40
24.5
41
0.0
71
     1
72
     1
1
LENGTH
7
SLDTEXTSTYLE0
73
     1
44
1.0
0
MTEXT
5
5D1
330
556
100
AcDbEntity
8
SLD-0
62
     0
48
7.0
100
AcDbMText
10
916.3283919946
20
-23.2495311882
30
0.0
40
24.5
41
0.0
71
     1
72
     1
1
MATERIAL
7
SLDTEXTSTYLE0
73
     1
44
1.0
0
MTEXT
5
5D2
330
556
100
AcDbEntity
8
SLD-0
62
     0
48
7.0
100
AcDbMText
10
50.5229494754
20
-95.2492134618
30
0.0
40
24.5
41
0.0
71
     1
72
     1
1
1
7
SLDTEXTSTYLE0
73
     1
44
1.0
0
MTEXT
5
5D3
330
556
100
AcDbEntity
8
SLD-0
62
     0
48
7.0
100
AcDbMText
10
167.3145017389
20
-95.2492134618
30
0.0
40
24.5
41
0.0
71
     1
72
     1
1
1
7
SLDTEXTSTYLE0
73
     1
44
1.0
0
MTEXT
5
5D5
330
556
100
AcDbEntity
8
SLD-0
62
     0
48
7.0
100
AcDbMText
10
305.7077596824
20
-95.2492134618
30
0.0
40
24.5
41
0.0
71
     1
72
     1
1
8" x 4" x 1/4" WALL
7
SLDTEXTSTYLE23
73
     1
44
1.0
0
MTEXT
5
5D6
330
556
100
AcDbEntity
8
SLD-0
62
     0
48
7.0
100
AcDbMText
10
721.0135545932
20
-95.2492134618
30
0.0
40
24.5
41
0.0
71
     1
72
     1
1
1803.2
7
SLDTEXTSTYLE0
73
     1
44
1.0
0
MTEXT
5
5D7
330
556
100
AcDbEntity
8
SLD-0
62
     0
48
7.0
100
AcDbMText
10
889.3783921406
20
-79.4092826052
30
0.0
40
24.5
41
0.0
71
     1
72
     1
1
Plain Carbon
7
SLDTEXTSTYLE0
73
     1
44
1.0
0
MTEXT
5
5D8
330
556
100
AcDbEntity
8
SLD-0
62
     0
48
7.0
100
AcDbMText
10
954.2013108761
20
-111.0891443184
30
0.0
40
24.5
41
0.0
71
     1
72
     1
1
Steel
7
SLDTEXTSTYLE0
73
     1
44
1.0
0
MTEXT
5
5D9
330
556
100
AcDbEntity
8
SLD-0
62
     0
48
7.0
100
AcDbMText
10
50.5229494754
20
-167.2488957355
30
0.0
40
24.5
41
0.0
71
     1
72
     1
1
2
7
SLDTEXTSTYLE0
73
     1
44
1.0
0
MTEXT
5
5DA
330
556
100
AcDbEntity
8
SLD-0
62
     0
48
7.0
100
AcDbMText
10
167.3145017389
20
-167.2488957355
30
0.0
40
24.5
41
0.0
71
     1
72
     1
1
1
7
SLDTEXTSTYLE0
73
     1
44
1.0
0
MTEXT
5
5DB
330
556
100
AcDbEntity
8
SLD-0
62
     0
48
7.0
100
AcDbMText
10
305.7077596824
20
-167.2488957355
30
0.0
40
24.5
41
0.0
71
     1
72
     1
1
8" x 4" x 1/4" WALL
7
SLDTEXTSTYLE23
73
     1
44
1.0
0
MTEXT
5
5DC
330
556
100
AcDbEntity
8
SLD-0
62
     0
48
7.0
100
AcDbMText
10
721.0135545932
20
-167.2488957355
30
0.0
40
24.5
41
0.0
71
     1
72
     1
1
1803.2
7
SLDTEXTSTYLE0
73
     1
44
1.0
0
MTEXT
5
5DD
330
556
100
AcDbEntity
8
SLD-0
62
     0
48
7.0
100
AcDbMText
10
889.3783921406
20
-151.4089648789
30
0.0
40
24.5
41
0.0
71
     1
72
     1
1
Plain Carbon
7
SLDTEXTSTYLE0
73
     1
44
1.0
0
MTEXT
5
5DE
330
556
100
AcDbEntity
8
SLD-0
62
     0
48
7.0
100
AcDbMText
10
954.2013108761
20
-183.0888265921
30
0.0
40
24.5
41
0.0
71
     1
72
     1
1
Steel
7
SLDTEXTSTYLE0
73
     1
44
1.0
0
MTEXT
5
5DF
330
556
100
AcDbEntity
8
SLD-0
62
     0
48
7.0
100
AcDbMText
10
50.5229494754
20
-239.2485780091
30
0.0
40
24.5
41
0.0
71
     1
72
     1
1
3
7
SLDTEXTSTYLE0
73
     1
44
1.0
0
MTEXT
5
5E0
330
556
100
AcDbEntity
8
SLD-0
62
     0
48
7.0
100
AcDbMText
10
167.3145017389
20
-239.2485780091
30
0.0
40
24.5
41
0.0
71
     1
72
     1
1
2
7
SLDTEXTSTYLE0
73
     1
44
1.0
0
MTEXT
5
5E1
330
556
100
AcDbEntity
8
SLD-0
62
     0
48
7.0
100
AcDbMText
10
305.7077596824
20
-239.2485780091
30
0.0
40
24.5
41
0.0
71
     1
72
     1
1
8" x 4" x 1/4" WALL
7
SLDTEXTSTYLE23
73
     1
44
1.0
0
MTEXT
5
5E2
330
556
100
AcDbEntity
8
SLD-0
62
     0
48
7.0
100
AcDbMText
10
730.0649445854
20
-239.2485780091
30
0.0
40
24.5
41
0.0
71
     1
72
     1
1
653.6
7
SLDTEXTSTYLE0
73
     1
44
1.0
0
MTEXT
5
5E3
330
556
100
AcDbEntity
8
SLD-0
62
     0
48
7.0
100
AcDbMText
10
889.3783921406
20
-223.4086471525
30
0.0
40
24.5
41
0.0
71
     1
72
     1
1
Plain Carbon
7
SLDTEXTSTYLE0
73
     1
44
1.0
0
MTEXT
5
5E4
330
556
100
AcDbEntity
8
SLD-0
62
     0
48
7.0
100
AcDbMText
10
954.2013108761
20
-255.0885088657
30
0.0
40
24.5
41
0.0
71
     1
72
     1
1
Steel
7
SLDTEXTSTYLE0
73
     1
44
1.0
0
MTEXT
5
5E5
330
556
100
AcDbEntity
8
SLD-0
62
     0
48
7.0
100
AcDbMText
10
50.5229494754
20
-311.2482602827
30
0.0
40
24.5
41
0.0
71
     1
72
     1
1
4
7
SLDTEXTSTYLE0
73
     1
44
1.0
0
MTEXT
5
5E6
330
556
100
AcDbEntity
8
SLD-0
62
     0
48
7.0
100
AcDbMText
10
167.3145017389
20
-311.2482602827
30
0.0
40
24.5
41
0.0
71
     1
72
     1
1
1
7
SLDTEXTSTYLE0
73
     1
44
1.0
0
MTEXT
5
5E7
330
556
100
AcDbEntity
8
SLD-0
62
     0
48
7.0
100
AcDbMText
10
305.7077596824
20
-311.2482602827
30
0.0
40
24.5
41
0.0
71
     1
72
     1
1
8" x 4" x 1/4" WALL
7
SLDTEXTSTYLE23
73
     1
44
1.0
0
MTEXT
5
5E8
330
556
100
AcDbEntity
8
SLD-0
62
     0
48
7.0
100
AcDbMText
10
730.0649445854
20
-311.2482602827
30
0.0
40
24.5
41
0.0
71
     1
72
     1
1
653.6
7
SLDTEXTSTYLE0
73
     1
44
1.0
0
MTEXT
5
5E9
330
556
100
AcDbEntity
8
SLD-0
62
     0
48
7.0
100
AcDbMText
10
889.3783921406
20
-295.4083294261
30
0.0
40
24.5
41
0.0
71
     1
72
     1
1
Plain Carbon
7
SLDTEXTSTYLE0
73
     1
44
1.0
0
MTEXT
5
5EA
330
556
100
AcDbEntity
8
SLD-0
62
     0
48
7.0
100
AcDbMText
10
954.2013108761
20
-327.0881911393
30
0.0
40
24.5
41
0.0
71
     1
72
     1
1
Steel
7
SLDTEXTSTYLE0
73
     1
44
1.0
0
MTEXT
5
5EB
330
556
100
AcDbEntity
8
SLD-0
62
     0
48
7.0
100
AcDbMText
10
50.5229494754
20
-383.2479425564
30
0.0
40
24.5
41
0.0
71
     1
72
     1
1
5
7
SLDTEXTSTYLE0
73
     1
44
1.0
0
MTEXT
5
5EC
330
556
100
AcDbEntity
8
SLD-0
62
     0
48
7.0
100
AcDbMText
10
167.3145017389
20
-383.2479425564
30
0.0
40
24.5
41
0.0
71
     1
72
     1
1
2
7
SLDTEXTSTYLE0
73
     1
44
1.0
0
MTEXT
5
5ED
330
556
100
AcDbEntity
8
SLD-0
62
     0
48
7.0
100
AcDbMText
10
305.7077596824
20
-383.2479425564
30
0.0
40
24.5
41
0.0
71
     1
72
     1
1
4" x 4" x 1/4" WALL
7
SLDTEXTSTYLE23
73
     1
44
1.0
0
MTEXT
5
5EE
330
556
100
AcDbEntity
8
SLD-0
62
     0
48
7.0
100
AcDbMText
10
730.0649445854
20
-383.2479425564
30
0.0
40
24.5
41
0.0
71
     1
72
     1
1
298.4
7
SLDTEXTSTYLE0
73
     1
44
1.0
0
MTEXT
5
5EF
330
556
100
AcDbEntity
8
SLD-0
62
     0
48
7.0
100
AcDbMText
10
889.3783921406
20
-367.4080116998
30
0.0
40
24.5
41
0.0
71
     1
72
     1
1
Plain Carbon
7
SLDTEXTSTYLE0
73
     1
44
1.0
0
MTEXT
5
5F0
330
556
100
AcDbEntity
8
SLD-0
62
     0
48
7.0
100
AcDbMText
10
954.2013108761
20
-399.087873413
30
0.0
40
24.5
41
0.0
71
     1
72
     1
1
Steel
7
SLDTEXTSTYLE0
73
     1
44
1.0
0
MTEXT
5
5F1
330
556
100
AcDbEntity
8
SLD-0
62
     0
48
7.0
100
AcDbMText
10
50.5229494754
20
-455.24762483
30
0.0
40
24.5
41
0.0
71
     1
72
     1
1
6
7
SLDTEXTSTYLE0
73
     1
44
1.0
0
MTEXT
5
5F2
330
556
100
AcDbEntity
8
SLD-0
62
     0
48
7.0
100
AcDbMText
10
167.3145017389
20
-455.24762483
30
0.0
40
24.5
41
0.0
71
     1
72
     1
1
1
7
SLDTEXTSTYLE0
73
     1
44
1.0
0
MTEXT
5
5F3
330
556
100
AcDbEntity
8
SLD-0
62
     0
48
7.0
100
AcDbMText
10
305.7077596824
20
-455.24762483
30
0.0
40
24.5
41
0.0
71
     1
72
     1
1
4" x 4" x 1/4" WALL
7
SLDTEXTSTYLE23
73
     1
44
1.0
0
MTEXT
5
5F4
330
556
100
AcDbEntity
8
SLD-0
62
     0
48
7.0
100
AcDbMText
10
730.0649445854
20
-455.24762483
30
0.0
40
24.5
41
0.0
71
     1
72
     1
1
803.2
7
SLDTEXTSTYLE0
73
     1
44
1.0
0
MTEXT
5
5F5
330
556
100
AcDbEntity
8
SLD-0
62
     0
48
7.0
100
AcDbMText
10
889.3783921406
20
-439.4076939734
30
0.0
40
24.5
41
0.0
71
     1
72
     1
1
Plain Carbon
7
SLDTEXTSTYLE0
73
     1
44
1.0
0
MTEXT
5
5F6
330
556
100
AcDbEntity
8
SLD-0
62
     0
48
7.0
100
AcDbMText
10
954.2013108761
20
-471.0875556866
30
0.0
40
24.5
41
0.0
71
     1
72
     1
1
Steel
7
SLDTEXTSTYLE0
73
     1
44
1.0
0
MTEXT
5
5F7
330
556
100
AcDbEntity
8
SLD-0
62
     0
48
7.0
100
AcDbMText
10
50.5229494754
20
-527.2473071036
30
0.0
40
24.5
41
0.0
71
     1
72
     1
1
7
7
SLDTEXTSTYLE0
73
     1
44
1.0
0
MTEXT
5
5F8
330
556
100
AcDbEntity
8
SLD-0
62
     0
48
7.0
100
AcDbMText
10
167.3145017389
20
-527.2473071036
30
0.0
40
24.5
41
0.0
71
     1
72
     1
1
3
7
SLDTEXTSTYLE0
73
     1
44
1.0
0
MTEXT
5
5F9
330
556
100
AcDbEntity
8
SLD-0
62
     0
48
7.0
100
AcDbMText
10
309.8761471848
20
-527.2473071036
30
0.0
40
24.5
41
0.0
71
     1
72
     1
1
MOUNTING PADS
7
SLDTEXTSTYLE0
73
     1
44
1.0
0
MTEXT
5
5FA
330
556
100
AcDbEntity
8
SLD-0
62
     0
48
7.0
100
AcDbMText
10
743.1996685803
20
-511.407376247
30
0.0
40
24.5
41
0.0
71
     1
72
     1
1
USE
7
SLDTEXTSTYLE0
73
     1
44
1.0
0
MTEXT
5
5FB
330
556
100
AcDbEntity
8
SLD-0
62
     0
48
7.0
100
AcDbMText
10
690.9500190407
20
-543.0872379602
30
0.0
40
24.5
41
0.0
71
     1
72
     1
1
DRAWING
7
SLDTEXTSTYLE0
73
     1
44
1.0
0
MTEXT
5
5FC
330
556
100
AcDbEntity
8
SLD-0
62
     0
48
7.0
100
AcDbMText
10
889.3783921406
20
-511.407376247
30
0.0
40
24.5
41
0.0
71
     1
72
     1
1
Plain Carbon
7
SLDTEXTSTYLE0
73
     1
44
1.0
0
MTEXT
5
5FD
330
556
100
AcDbEntity
8
SLD-0
62
     0
48
7.0
100
AcDbMText
10
954.2013108761
20
-543.0872379602
30
0.0
40
24.5
41
0.0
71
     1
72
     1
1
Steel
7
SLDTEXTSTYLE0
73
     1
44
1.0
0
MTEXT
5
5FE
330
556
100
AcDbEntity
8
SLD-0
62
     0
48
7.0
100
AcDbMText
10
50.5229494754
20
-599.2469893773
30
0.0
40
24.5
41
0.0
71
     1
72
     1
1
8
7
SLDTEXTSTYLE0
73
     1
44
1.0
0
MTEXT
5
5FF
330
556
100
AcDbEntity
8
SLD-0
62
     0
48
7.0
100
AcDbMText
10
167.3145017389
20
-599.2469893773
30
0.0
40
24.5
41
0.0
71
     1
72
     1
1
1
7
SLDTEXTSTYLE0
73
     1
44
1.0
0
MTEXT
5
600
330
556
100
AcDbEntity
8
SLD-0
62
     0
48
7.0
100
AcDbMText
10
307.3751120757
20
-599.2469893773
30
0.0
40
24.5
41
0.0
71
     1
72
     1
1
ROBOT RISER PAD
7
SLDTEXTSTYLE0
73
     1
44
1.0
0
MTEXT
5
601
330
556
100
AcDbEntity
8
SLD-0
62
     0
48
7.0
100
AcDbMText
10
743.1996685803
20
-583.4070585207
30
0.0
40
24.5
41
0.0
71
     1
72
     1
1
USE
7
SLDTEXTSTYLE0
73
     1
44
1.0
0
MTEXT
5
602
330
556
100
AcDbEntity
8
SLD-0
62
     0
48
7.0
100
AcDbMText
10
690.9500190407
20
-615.0869202339
30
0.0
40
24.5
41
0.0
71
     1
72
     1
1
DRAWING
7
SLDTEXTSTYLE0
73
     1
44
1.0
0
MTEXT
5
603
330
556
100
AcDbEntity
8
SLD-0
62
     0
48
7.0
100
AcDbMText
10
889.3783921406
20
-583.4070585207
30
0.0
40
24.5
41
0.0
71
     1
72
     1
1
Plain Carbon
7
SLDTEXTSTYLE0
73
     1
44
1.0
0
MTEXT
5
604
330
556
100
AcDbEntity
8
SLD-0
62
     0
48
7.0
100
AcDbMText
10
954.2013108761
20
-615.0869202339
30
0.0
40
24.5
41
0.0
71
     1
72
     1
1
Steel
7
SLDTEXTSTYLE0
73
     1
44
1.0
0
MTEXT
5
605
330
556
100
AcDbEntity
8
SLD-0
62
     0
48
7.0
100
AcDbMText
10
50.5229494754
20
-671.2466716509
30
0.0
40
24.5
41
0.0
71
     1
72
     1
1
9
7
SLDTEXTSTYLE0
73
     1
44
1.0
0
MTEXT
5
606
330
556
100
AcDbEntity
8
SLD-0
62
     0
48
7.0
100
AcDbMText
10
167.3145017389
20
-671.2466716509
30
0.0
40
24.5
41
0.0
71
     1
72
     1
1
1
7
SLDTEXTSTYLE0
73
     1
44
1.0
0
MTEXT
5
607
330
556
100
AcDbEntity
8
SLD-0
62
     0
48
7.0
100
AcDbMText
10
350.7605395208
20
-671.2466716509
30
0.0
40
24.5
41
0.0
71
     1
72
     1
1
REGRIP PAD
7
SLDTEXTSTYLE0
73
     1
44
1.0
0
MTEXT
5
608
330
556
100
AcDbEntity
8
SLD-0
62
     0
48
7.0
100
AcDbMText
10
743.1996685803
20
-655.4067407943
30
0.0
40
24.5
41
0.0
71
     1
72
     1
1
USE
7
SLDTEXTSTYLE0
73
     1
44
1.0
0
MTEXT
5
609
330
556
100
AcDbEntity
8
SLD-0
62
     0
48
7.0
100
AcDbMText
10
690.9500190407
20
-687.0866025075
30
0.0
40
24.5
41
0.0
71
     1
72
     1
1
DRAWING
7
SLDTEXTSTYLE0
73
     1
44
1.0
0
MTEXT
5
60A
330
556
100
AcDbEntity
8
SLD-0
62
     0
48
7.0
100
AcDbMText
10
889.3783921406
20
-655.4067407943
30
0.0
40
24.5
41
0.0
71
     1
72
     1
1
Plain Carbon
7
SLDTEXTSTYLE0
73
     1
44
1.0
0
MTEXT
5
60B
330
556
100
AcDbEntity
8
SLD-0
62
     0
48
7.0
100
AcDbMText
10
954.2013108761
20
-687.0866025075
30
0.0
40
24.5
41
0.0
71
     1
72
     1
1
Steel
7
SLDTEXTSTYLE0
73
     1
44
1.0
0
MTEXT
5
73B
330
72E
100
AcDbEntity
8
SLD-0
48
7.0
100
AcDbMText
10
598.4031981163
20
2980.8925303501
30
0.0
40
22.225
41
0.0
71
     1
72
     1
1
782.0
7
SLDTEXTSTYLE0
73
     1
44
1.0
0
MTEXT
5
73C
330
72E
100
AcDbEntity
8
SLD-0
48
7.0
100
AcDbMText
10
672.3013216936
20
2980.8925303501
30
0.0
40
22.225
41
0.0
71
     1
72
     1
1
±0.5
7
SLDTEXTSTYLE0
73
     1
44
1.0
0
MTEXT
5
74C
330
73F
100
AcDbEntity
8
SLD-0
48
7.0
100
AcDbMText
10
1427.5592334329
20
3629.3925303501
30
0.0
40
22.225
41
0.0
71
     1
72
     1
1
749.1
7
SLDTEXTSTYLE0
73
     1
44
1.0
0
MTEXT
5
74D
330
73F
100
AcDbEntity
8
SLD-0
48
7.0
100
AcDbMText
10
1501.4573570101
20
3629.3925303501
30
0.0
40
22.225
41
0.0
71
     1
72
     1
1
±0.5
7
SLDTEXTSTYLE0
73
     1
44
1.0
0
MTEXT
5
75C
330
74F
100
AcDbEntity
8
SLD-0
48
7.0
100
AcDbMText
10
753.5231981163
20
3179.6425303501
30
0.0
40
22.225
41
0.0
71
     1
72
     1
1
384.5
7
SLDTEXTSTYLE0
73
     1
44
1.0
0
MTEXT
5
75D
330
74F
100
AcDbEntity
8
SLD-0
48
7.0
100
AcDbMText
10
827.4213216936
20
3179.6425303501
30
0.0
40
22.225
41
0.0
71
     1
72
     1
1
±0.5
7
SLDTEXTSTYLE0
73
     1
44
1.0
0
MTEXT
5
769
330
760
100
AcDbEntity
8
SLD-0
48
7.0
100
AcDbMText
10
833.4849272293
20
3629.3925303501
30
0.0
40
22.225
41
0.0
71
     1
72
     1
1
157.0
7
SLDTEXTSTYLE0
73
     1
44
1.0
0
MTEXT
5
776
330
76C
100
AcDbEntity
8
SLD-0
48
7.0
100
AcDbMText
10
2749.2124466228
20
3603.1885498093
30
0.0
40
22.225
41
0.0
71
     1
72
     1
1
15.0
7
SLDTEXTSTYLE0
73
     1
44
1.0
0
MTEXT
5
781
330
778
100
AcDbEntity
8
SLD-0
48
7.0
100
AcDbMText
10
2403.4165269176
20
3603.2754582045
30
0.0
40
22.225
41
0.0
71
     1
72
     1
1
15.0
7
SLDTEXTSTYLE0
73
     1
44
1.0
0
MTEXT
5
78D
330
783
100
AcDbEntity
8
SLD-0
48
7.0
100
AcDbMText
10
2734.5916398862
20
2388.5685729981
30
0.0
40
22.225
41
0.0
71
     1
72
     1
1
15.0
7
SLDTEXTSTYLE0
73
     1
44
1.0
0
MTEXT
5
799
330
790
100
AcDbEntity
8
SLD-0
48
7.0
100
AcDbMText
10
2371.5214103277
20
2378.9822203802
30
0.0
40
22.225
41
0.0
71
     1
72
     1
1
40.4
7
SLDTEXTSTYLE0
73
     1
44
1.0
0
MTEXT
5
7A5
330
79C
100
AcDbEntity
8
SLD-0
48
7.0
100
AcDbMText
10
722.7627164974
20
3444.6425303501
30
0.0
40
22.225
41
0.0
71
     1
72
     1
1
145.5
7
SLDTEXTSTYLE0
73
     1
44
1.0
0
MTEXT
5
7AF
330
7A7
100
AcDbEntity
8
SLD-0
48
7.0
100
AcDbMText
10
737.8837135155
20
2758.6229484544
30
0.0
40
22.225
41
0.0
71
     1
72
     1
1
101.6
7
SLDTEXTSTYLE0
73
     1
44
1.0
0
MTEXT
5
7B9
330
7B1
100
AcDbEntity
8
SLD-0
48
7.0
100
AcDbMText
10
753.0641853873
20
2352.8651482346
30
0.0
40
22.225
41
0.0
71
     1
72
     1
1
101.6
7
SLDTEXTSTYLE0
73
     1
44
1.0
0
MTEXT
5
7C6
330
7BB
100
AcDbEntity
8
SLD-0
48
7.0
100
AcDbMText
10
1224.664184165
20
1901.1353040823
30
0.0
40
22.225
41
0.0
71
     1
72
     1
1
600.0
7
SLDTEXTSTYLE0
73
     1
44
1.0
0
MTEXT
5
7D0
330
7C8
100
AcDbEntity
8
SLD-0
48
7.0
100
AcDbMText
10
2712.5656663283
20
3232.8120177214
30
0.0
40
22.225
41
0.0
71
     1
72
     1
1
101.6
7
SLDTEXTSTYLE0
73
     1
44
1.0
0
MTEXT
5
7D9
330
7D2
100
AcDbEntity
8
SLD-0
48
7.0
100
AcDbMText
10
1527.8641853873
20
2786.9881530387
30
0.0
40
22.225
41
0.0
71
     1
72
     1
1
800.0
7
SLDTEXTSTYLE0
73
     1
44
1.0
0
MTEXT
5
7E6
330
7DB
100
AcDbEntity
8
SLD-0
48
7.0
100
AcDbMText
10
450.853282994
20
2985.1353040823
30
0.0
40
22.225
41
0.0
71
     1
72
     1
1
1060.0
7
SLDTEXTSTYLE0
73
     1
44
1.0
0
MTEXT
5
7F3
330
7E8
100
AcDbEntity
8
SLD-0
48
7.0
100
AcDbMText
10
459.064184165
20
2255.1353040823
30
0.0
40
22.225
41
0.0
71
     1
72
     1
1
400.0
7
SLDTEXTSTYLE0
73
     1
44
1.0
0
MTEXT
5
802
330
7F5
100
AcDbEntity
8
SLD-0
48
7.0
100
AcDbMText
10
1224.6641837575
20
1970.8793913592
30
0.0
40
22.225
41
0.0
71
     1
72
     1
1
498.4
7
SLDTEXTSTYLE0
73
     1
44
1.0
0
MTEXT
5
806
330
803
100
AcDbEntity
8
SLD-0
62
     0
48
7.0
100
AcDbMText
10
0.0
20
31.5821596244
30
0.0
40
24.5
41
0.0
71
     1
72
     1
1
AFTER WELDING, 3X PRE-MACINED M12
7
SLDTEXTSTYLE0
73
     1
44
1.0
0
MTEXT
5
807
330
803
100
AcDbEntity
8
SLD-0
62
     0
48
7.0
100
AcDbMText
10
0.0
20
-0.0977020888
30
0.0
40
24.5
41
0.0
71
     1
72
     1
1
HOLES MUST MEET DIMENSIONS. USE JIG /
7
SLDTEXTSTYLE0
73
     1
44
1.0
0
MTEXT
5
808
330
803
100
AcDbEntity
8
SLD-0
62
     0
48
7.0
100
AcDbMText
10
0.0
20
-31.777563802
30
0.0
40
24.5
41
0.0
71
     1
72
     1
1
ALIGNMENT PLATE DURING WELDING IF
7
SLDTEXTSTYLE0
73
     1
44
1.0
0
MTEXT
5
809
330
803
100
AcDbEntity
8
SLD-0
62
     0
48
7.0
100
AcDbMText
10
0.0
20
-63.4574255152
30
0.0
40
24.5
41
0.0
71
     1
72
     1
1
REQUIRED TO ENSURE DIMENSIONS ARE MET.
7
SLDTEXTSTYLE0
73
     1
44
1.0
0
MTEXT
5
A94
330
A90
100
AcDbEntity
8
SLD-0
62
     0
48
7.0
100
AcDbMText
10
31.2758163206
20
47.8555355226
30
0.0
40
24.5
41
0.0
71
     2
72
     1
1
1
7
SLDTEXTSTYLE0
73
     1
44
1.0
0
MTEXT
5
AA1
330
A9D
100
AcDbEntity
8
SLD-0
62
     0
48
7.0
100
AcDbMText
10
27.5436528921
20
50.8929846479
30
0.0
40
24.5
41
0.0
71
     2
72
     1
1
7
7
SLDTEXTSTYLE0
73
     1
44
1.0
0
MTEXT
5
AA8
330
AA4
100
AcDbEntity
8
SLD-0
62
     0
48
7.0
100
AcDbMText
10
11.3725926233
20
58.5212156605
30
0.0
40
24.5
41
0.0
71
     2
72
     1
1
7
7
SLDTEXTSTYLE0
73
     1
44
1.0
0
MTEXT
5
AAF
330
AAB
100
AcDbEntity
8
SLD-0
62
     0
48
7.0
100
AcDbMText
10
22.3359118035
20
54.2040851507
30
0.0
40
24.5
41
0.0
71
     2
72
     1
1
3
7
SLDTEXTSTYLE0
73
     1
44
1.0
0
MTEXT
5
AB6
330
AB2
100
AcDbEntity
8
SLD-0
62
     0
48
7.0
100
AcDbMText
10
-30.3901610348
20
49.0526492679
30
0.0
40
24.5
41
0.0
71
     2
72
     1
1
3
7
SLDTEXTSTYLE0
73
     1
44
1.0
0
MTEXT
5
ABD
330
AB9
100
AcDbEntity
8
SLD-0
62
     0
48
7.0
100
AcDbMText
10
-30.2226092237
20
49.1918293272
30
0.0
40
24.5
41
0.0
71
     2
72
     1
1
7
7
SLDTEXTSTYLE0
73
     1
44
1.0
0
MTEXT
5
AC4
330
AC0
100
AcDbEntity
8
SLD-0
62
     0
48
7.0
100
AcDbMText
10
27.5387573502
20
50.8965683504
30
0.0
40
24.5
41
0.0
71
     2
72
     1
1
8
7
SLDTEXTSTYLE0
73
     1
44
1.0
0
MTEXT
5
ACB
330
AC7
100
AcDbEntity
8
SLD-0
62
     0
48
7.0
100
AcDbMText
10
36.5582306554
20
-16.3655331208
30
0.0
40
24.5
41
0.0
71
     2
72
     1
1
4
7
SLDTEXTSTYLE0
73
     1
44
1.0
0
MTEXT
5
AD2
330
ACE
100
AcDbEntity
8
SLD-0
62
     0
48
7.0
100
AcDbMText
10
-25.1819945292
20
-26.9568202927
30
0.0
40
24.5
41
0.0
71
     2
72
     1
1
9
7
SLDTEXTSTYLE0
73
     1
44
1.0
0
MTEXT
5
AD9
330
AD5
100
AcDbEntity
8
SLD-0
62
     0
48
7.0
100
AcDbMText
10
-21.0303029545
20
-29.2688917897
30
0.0
40
24.5
41
0.0
71
     2
72
     1
1
2
7
SLDTEXTSTYLE0
73
     1
44
1.0
0
MTEXT
5
AE0
330
ADC
100
AcDbEntity
8
SLD-0
62
     0
48
7.0
100
AcDbMText
10
-32.6793452189
20
47.0119236291
30
0.0
40
24.5
41
0.0
71
     2
72
     1
1
5
7
SLDTEXTSTYLE0
73
     1
44
1.0
0
MTEXT
5
AE7
330
AE3
100
AcDbEntity
8
SLD-0
62
     0
48
7.0
100
AcDbMText
10
-36.7861060974
20
-16.6960018085
30
0.0
40
24.5
41
0.0
71
     2
72
     1
1
6
7
SLDTEXTSTYLE0
73
     1
44
1.0
0
MTEXT
5
AEE
330
AEA
100
AcDbEntity
8
SLD-0
62
     0
48
7.0
100
AcDbMText
10
9.694476492
20
-33.0465202888
30
0.0
40
24.5
41
0.0
71
     2
72
     1
1
5
7
SLDTEXTSTYLE0
73
     1
44
1.0
0
MTEXT
5
C9D
330
C94
100
AcDbEntity
8
SLD-0
48
7.0
100
AcDbMText
10
711.0641853873
20
1389.3415423027
30
0.0
40
22.225
41
0.0
71
     1
72
     1
1
127.0
7
SLDTEXTSTYLE0
73
     1
44
1.0
0
MTEXT
5
1107
330
1104
100
AcDbEntity
8
20
62
     0
48
7.0
100
AcDbMText
10
0.0
20
18.9492957746
30
0.0
40
14.7
41
0.0
71
     1
72
     1
1
Schutzvermerk nach ISO 16016 beachten
7
SLDTEXTSTYLE15
73
     1
44
1.0
0
MTEXT
5
1108
330
1104
100
AcDbEntity
8
20
62
     0
48
7.0
100
AcDbMText
10
0.0
20
-0.038204567
30
0.0
40
14.7
41
0.0
71
     1
72
     1
1
Follow protection notice to ISO 16016
7
SLDTEXTSTYLE15
73
     1
44
1.0
0
MTEXT
5
1112
330
110F
100
AcDbEntity
8
20
62
     0
48
7.0
100
AcDbMText
10
0.0
20
18.9492957746
30
0.0
40
14.7
41
0.0
71
     1
72
     1
1
Gewicht (kg)
7
SLDTEXTSTYLE15
73
     1
44
1.0
0
MTEXT
5
1113
330
110F
100
AcDbEntity
8
20
62
     0
48
7.0
100
AcDbMText
10
0.0
20
-0.038204567
30
0.0
40
14.7
41
0.0
71
     1
72
     1
1
Weight
7
SLDTEXTSTYLE15
73
     1
44
1.0
0
MTEXT
5
111F
330
111C
100
AcDbEntity
8
20
62
     0
48
7.0
100
AcDbMText
10
34.1660034229
20
18.9492957746
30
0.0
40
14.7
41
0.0
71
     2
72
     1
1
General
7
SLDTEXTSTYLE15
73
     1
44
1.0
0
MTEXT
5
1120
330
111C
100
AcDbEntity
8
20
62
     0
48
7.0
100
AcDbMText
10
34.310190572
20
-0.038204567
30
0.0
40
14.7
41
0.0
71
     2
72
     1
1
tolerances
7
SLDTEXTSTYLE15
73
     1
44
1.0
0
MTEXT
5
1125
330
1122
100
AcDbEntity
8
20
62
     0
48
7.0
100
AcDbMText
10
45.7779784424
20
18.9492957746
30
0.0
40
14.7
41
0.0
71
     2
72
     1
1
Allgemein-
7
SLDTEXTSTYLE15
73
     1
44
1.0
0
MTEXT
5
1126
330
1122
100
AcDbEntity
8
20
62
     0
48
7.0
100
AcDbMText
10
45.2752211151
20
-0.038204567
30
0.0
40
14.7
41
0.0
71
     2
72
     1
1
Toleranzen
7
SLDTEXTSTYLE15
73
     1
44
1.0
0
MTEXT
5
113A
330
1136
100
AcDbEntity
8
0
6
Continuous
62
     0
48
7.0
370
     0
100
AcDbMText
10
0.0
20
22.558685446
30
0.0
40
17.5
41
0.0
71
     1
72
     1
1
E
7
SLDTEXTSTYLE22
73
     1
44
1.0
0
MTEXT
5
1159
330
1150
100
AcDbEntity
8
SLD-0
48
7.0
100
AcDbMText
10
1532.2466443
20
3050.7146308216
30
0.0
40
22.225
41
0.0
71
     1
72
     1
1
1803.2
7
SLDTEXTSTYLE0
73
     1
44
1.0
0
MTEXT
5
1164
330
115C
100
AcDbEntity
8
SLD-0
48
7.0
100
AcDbMText
10
1027.108680737
20
3275.4857546979
30
0.0
40
22.225
41
0.0
71
     1
72
     1
1
45°
7
SLDTEXTSTYLE0
73
     1
44
1.0
0
MTEXT
5
116E
330
1166
100
AcDbEntity
8
SLD-0
48
7.0
100
AcDbMText
10
2083.4264631417
20
3275.3122509685
30
0.0
40
22.225
41
0.0
71
     1
72
     1
1
45°
7
SLDTEXTSTYLE0
73
     1
44
1.0
0
MTEXT
5
1182
330
1171
100
AcDbEntity
8
SLD-0
48
7.0
100
AcDbMText
10
453.4617904764
20
3169.2574045537
30
0.0
40
22.225
41
0.0
71
     1
72
     1
1
101.6
7
SLDTEXTSTYLE0
73
     1
44
1.0
0
MTEXT
5
1183
330
1171
100
AcDbEntity
8
SLD-0
48
7.0
100
AcDbMText
10
540.9032732905
20
3169.2574045537
30
0.0
40
22.225
41
0.0
71
     1
72
     1
1
4.00
7
SLDTEXTSTYLE0
73
     1
44
1.0
0
MTEXT
5
11BE
330
11B5
100
AcDbEntity
8
SLD-0
48
7.0
100
AcDbMText
10
526.857545471
20
3597.5196586724
30
0.0
40
22.225
41
0.0
71
     1
72
     1
1
101.6
7
SLDTEXTSTYLE0
73
     1
44
1.0
0
MTEXT
5
11C9
330
11C0
100
AcDbEntity
8
SLD-0
48
7.0
100
AcDbMText
10
818.0521544302
20
3495.7833157126
30
0.0
40
22.225
41
0.0
71
     1
72
     1
1
50.0
7
SLDTEXTSTYLE0
73
     1
44
1.0
0
MTEXT
5
11D4
330
11CB
100
AcDbEntity
8
SLD-0
48
7.0
100
AcDbMText
10
2282.8582531329
20
3507.0062634938
30
0.0
40
22.225
41
0.0
71
     1
72
     1
1
50.0
7
SLDTEXTSTYLE0
73
     1
44
1.0
0
MTEXT
5
11DF
330
11D6
100
AcDbEntity
8
SLD-0
48
7.0
100
AcDbMText
10
2532.8818607896
20
3597.5196586724
30
0.0
40
22.225
41
0.0
71
     1
72
     1
1
101.6
7
SLDTEXTSTYLE0
73
     1
44
1.0
0
MTEXT
5
11E8
330
11E2
100
AcDbEntity
8
SLD-0
48
7.0
100
AcDbMText
10
838.4421194381
20
3807.2067944307
30
0.0
40
22.225
41
0.0
71
     1
72
     1
1
6X
7
SLDTEXTSTYLE0
73
     1
44
1.0
0
MTEXT
5
11E9
330
11E2
100
AcDbEntity
8
SLD-0
48
7.0
100
AcDbMText
10
881.1326396129
20
3806.8672458033
30
0.0
40
22.225
41
0.0
71
     1
72
     1
1
%%c
7
SLDTEXTSTYLE0
73
     1
44
1.0
0
MTEXT
5
11EA
330
11E2
100
AcDbEntity
8
SLD-0
48
7.0
100
AcDbMText
10
922.9850952125
20
3807.2067944307
30
0.0
40
22.225
41
0.0
71
     1
72
     1
1
20.0 THRU ALL
7
SLDTEXTSTYLE0
73
     1
44
1.0
0
MTEXT
5
11FE
330
11ED
100
AcDbEntity
8
SLD-0
48
7.0
100
AcDbMText
10
337.6863849967
20
3646.0624324045
30
0.0
40
22.225
41
0.0
71
     1
72
     1
1
203.2
7
SLDTEXTSTYLE0
73
     1
44
1.0
0
MTEXT
5
11FF
330
11ED
100
AcDbEntity
8
SLD-0
48
7.0
100
AcDbMText
10
425.1278678107
20
3646.0624324045
30
0.0
40
22.225
41
0.0
71
     1
72
     1
1
8.00
7
SLDTEXTSTYLE0
73
     1
44
1.0
0
MTEXT
5
1239
330
1230
100
AcDbEntity
8
SLD-0
48
7.0
100
AcDbMText
10
4410.2966945356
20
3020.7146308216
30
0.0
40
22.225
41
0.0
71
     1
72
     1
1
1803.2
7
SLDTEXTSTYLE0
73
     1
44
1.0
0
MTEXT
5
1243
330
123B
100
AcDbEntity
8
SLD-0
48
7.0
100
AcDbMText
10
3911.1465245953
20
3277.9659800251
30
0.0
40
22.225
41
0.0
71
     1
72
     1
1
45°
7
SLDTEXTSTYLE0
73
     1
44
1.0
0
MTEXT
5
124D
330
1245
100
AcDbEntity
8
SLD-0
48
7.0
100
AcDbMText
10
4961.5385239814
20
3275.2865653353
30
0.0
40
22.225
41
0.0
71
     1
72
     1
1
45°
7
SLDTEXTSTYLE0
73
     1
44
1.0
0
MTEXT
5
1260
330
124F
100
AcDbEntity
8
SLD-0
48
7.0
100
AcDbMText
10
3272.7875688792
20
3169.2574045537
30
0.0
40
22.225
41
0.0
71
     1
72
     1
1
101.6
7
SLDTEXTSTYLE0
73
     1
44
1.0
0
MTEXT
5
1261
330
124F
100
AcDbEntity
8
SLD-0
48
7.0
100
AcDbMText
10
3360.2290516932
20
3169.2574045537
30
0.0
40
22.225
41
0.0
71
     1
72
     1
1
4.00
7
SLDTEXTSTYLE0
73
     1
44
1.0
0
MTEXT
5
12A2
330
1299
100
AcDbEntity
8
SLD-0
48
7.0
100
AcDbMText
10
3385.4041838707
20
3602.2898632252
30
0.0
40
22.225
41
0.0
71
     1
72
     1
1
101.6
7
SLDTEXTSTYLE0
73
     1
44
1.0
0
MTEXT
5
12AD
330
12A4
100
AcDbEntity
8
SLD-0
48
7.0
100
AcDbMText
10
3698.6066530144
20
3482.8394946082
30
0.0
40
22.225
41
0.0
71
     1
72
     1
1
50.0
7
SLDTEXTSTYLE0
73
     1
44
1.0
0
MTEXT
5
12B8
330
12AF
100
AcDbEntity
8
SLD-0
48
7.0
100
AcDbMText
10
5449.1246012247
20
3602.2898632252
30
0.0
40
22.225
41
0.0
71
     1
72
     1
1
101.6
7
SLDTEXTSTYLE0
73
     1
44
1.0
0
MTEXT
5
12C3
330
12BA
100
AcDbEntity
8
SLD-0
48
7.0
100
AcDbMText
10
5155.695490115
20
3497.9214952222
30
0.0
40
22.225
41
0.0
71
     1
72
     1
1
50.0
7
SLDTEXTSTYLE0
73
     1
44
1.0
0
MTEXT
5
12CD
330
12C5
100
AcDbEntity
8
SLD-0
48
7.0
100
AcDbMText
10
4364.8963348601
20
3602.2898632252
30
0.0
40
22.225
41
0.0
71
     1
72
     1
1
101.6
7
SLDTEXTSTYLE0
73
     1
44
1.0
0
MTEXT
5
12D8
330
12CF
100
AcDbEntity
8
SLD-0
48
7.0
100
AcDbMText
10
4616.9075957066
20
3801.1305337625
30
0.0
40
22.225
41
0.0
71
     1
72
     1
1
250.0
7
SLDTEXTSTYLE0
73
     1
44
1.0
0
MTEXT
5
12E3
330
12DA
100
AcDbEntity
8
SLD-0
48
7.0
100
AcDbMText
10
5031.0075957066
20
3801.1305337625
30
0.0
40
22.225
41
0.0
71
     1
72
     1
1
578.2
7
SLDTEXTSTYLE0
73
     1
44
1.0
0
MTEXT
5
12EC
330
12E6
100
AcDbEntity
8
SLD-0
48
7.0
100
AcDbMText
10
4623.8856639071
20
3490.4191001341
30
0.0
40
22.225
41
0.0
71
     1
72
     1
1
4X
7
SLDTEXTSTYLE0
73
     1
44
1.0
0
MTEXT
5
12ED
330
12E6
100
AcDbEntity
8
SLD-0
48
7.0
100
AcDbMText
10
4666.5761840819
20
3490.0795515067
30
0.0
40
22.225
41
0.0
71
     1
72
     1
1
%%c
7
SLDTEXTSTYLE0
73
     1
44
1.0
0
MTEXT
5
12EE
330
12E6
100
AcDbEntity
8
SLD-0
48
7.0
100
AcDbMText
10
4708.4286396815
20
3490.4191001341
30
0.0
40
22.225
41
0.0
71
     1
72
     1
1
4.2 THRU
7
SLDTEXTSTYLE0
73
     1
44
1.0
0
MTEXT
5
12EF
330
12E6
100
AcDbEntity
8
SLD-0
48
7.0
100
AcDbMText
10
4603.7728141351
20
3454.7973657981
30
0.0
40
22.225
41
0.0
71
     1
72
     1
1
M5X0.8 - 6H THRU
7
SLDTEXTSTYLE0
73
     1
44
1.0
0
MTEXT
5
12F7
330
12F1
100
AcDbEntity
8
SLD-0
48
7.0
100
AcDbMText
10
3260.4590577489
20
3819.4405712686
30
0.0
40
22.225
41
0.0
71
     1
72
     1
1
6X
7
SLDTEXTSTYLE0
73
     1
44
1.0
0
MTEXT
5
12F8
330
12F1
100
AcDbEntity
8
SLD-0
48
7.0
100
AcDbMText
10
3303.1495779237
20
3819.1010226412
30
0.0
40
22.225
41
0.0
71
     1
72
     1
1
%%c
7
SLDTEXTSTYLE0
73
     1
44
1.0
0
MTEXT
5
12F9
330
12F1
100
AcDbEntity
8
SLD-0
48
7.0
100
AcDbMText
10
3345.0020335233
20
3819.4405712686
30
0.0
40
22.225
41
0.0
71
     1
72
     1
1
20.0 THRU ALL
7
SLDTEXTSTYLE0
73
     1
44
1.0
0
MTEXT
5
130C
330
12FB
100
AcDbEntity
8
SLD-0
48
7.0
100
AcDbMText
10
3194.6260778894
20
3650.8326369574
30
0.0
40
22.225
41
0.0
71
     1
72
     1
1
203.2
7
SLDTEXTSTYLE0
73
     1
44
1.0
0
MTEXT
5
130D
330
12FB
100
AcDbEntity
8
SLD-0
48
7.0
100
AcDbMText
10
3282.0675607034
20
3650.8326369574
30
0.0
40
22.225
41
0.0
71
     1
72
     1
1
8.00
7
SLDTEXTSTYLE0
73
     1
44
1.0
0
MTEXT
5
1361
330
1350
100
AcDbEntity
8
SLD-0
48
7.0
100
AcDbMText
10
457.8183720172
20
2027.7005603189
30
0.0
40
22.225
41
0.0
71
     1
72
     1
1
101.6
7
SLDTEXTSTYLE0
73
     1
44
1.0
0
MTEXT
5
1362
330
1350
100
AcDbEntity
8
SLD-0
48
7.0
100
AcDbMText
10
545.2598548312
20
2027.7005603189
30
0.0
40
22.225
41
0.0
71
     1
72
     1
1
4.00
7
SLDTEXTSTYLE0
73
     1
44
1.0
0
MTEXT
5
136D
330
1364
100
AcDbEntity
8
SLD-0
48
7.0
100
AcDbMText
10
997.9042271833
20
1879.1577865867
30
0.0
40
22.225
41
0.0
71
     1
72
     1
1
653.6
7
SLDTEXTSTYLE0
73
     1
44
1.0
0
MTEXT
5
138E
330
137D
100
AcDbEntity
8
SLD-0
48
7.0
100
AcDbMText
10
466.6499833298
20
2527.2297098641
30
0.0
40
22.225
41
0.0
71
     1
72
     1
1
203.2
7
SLDTEXTSTYLE0
73
     1
44
1.0
0
MTEXT
5
138F
330
137D
100
AcDbEntity
8
SLD-0
48
7.0
100
AcDbMText
10
554.0914661439
20
2527.2297098641
30
0.0
40
22.225
41
0.0
71
     1
72
     1
1
8.00
7
SLDTEXTSTYLE0
73
     1
44
1.0
0
MTEXT
5
13AD
330
13A4
100
AcDbEntity
8
SLD-0
48
7.0
100
AcDbMText
10
2293.723086007
20
1879.1577865867
30
0.0
40
22.225
41
0.0
71
     1
72
     1
1
653.6
7
SLDTEXTSTYLE0
73
     1
44
1.0
0
MTEXT
5
13C0
330
13AF
100
AcDbEntity
8
SLD-0
48
7.0
100
AcDbMText
10
1763.8376621919
20
2027.7005603189
30
0.0
40
22.225
41
0.0
71
     1
72
     1
1
101.6
7
SLDTEXTSTYLE0
73
     1
44
1.0
0
MTEXT
5
13C1
330
13AF
100
AcDbEntity
8
SLD-0
48
7.0
100
AcDbMText
10
1851.279145006
20
2027.7005603189
30
0.0
40
22.225
41
0.0
71
     1
72
     1
1
4.00
7
SLDTEXTSTYLE0
73
     1
44
1.0
0
MTEXT
5
13E8
330
13D7
100
AcDbEntity
8
SLD-0
48
7.0
100
AcDbMText
10
1757.9356522701
20
2528.2502673788
30
0.0
40
22.225
41
0.0
71
     1
72
     1
1
203.2
7
SLDTEXTSTYLE0
73
     1
44
1.0
0
MTEXT
5
13E9
330
13D7
100
AcDbEntity
8
SLD-0
48
7.0
100
AcDbMText
10
1845.3771350841
20
2528.2502673788
30
0.0
40
22.225
41
0.0
71
     1
72
     1
1
8.00
7
SLDTEXTSTYLE0
73
     1
44
1.0
0
MTEXT
5
13F4
330
13EB
100
AcDbEntity
8
SLD-0
48
7.0
100
AcDbMText
10
2722.4062203738
20
2479.7074936466
30
0.0
40
22.225
41
0.0
71
     1
72
     1
1
101.6
7
SLDTEXTSTYLE0
73
     1
44
1.0
0
MTEXT
5
13FF
330
13F6
100
AcDbEntity
8
SLD-0
48
7.0
100
AcDbMText
10
2519.623086007
20
2363.6953479712
30
0.0
40
22.225
41
0.0
71
     1
72
     1
1
201.8
7
SLDTEXTSTYLE0
73
     1
44
1.0
0
MTEXT
5
140A
330
1401
100
AcDbEntity
8
SLD-0
48
7.0
100
AcDbMText
10
2293.723086007
20
2363.6953479712
30
0.0
40
22.225
41
0.0
71
     1
72
     1
1
250.0
7
SLDTEXTSTYLE0
73
     1
44
1.0
0
MTEXT
5
1412
330
140C
100
AcDbEntity
8
SLD-0
48
7.0
100
AcDbMText
10
2703.2293035835
20
2700.8726195479
30
0.0
40
22.225
41
0.0
71
     1
72
     1
1
4X
7
SLDTEXTSTYLE0
73
     1
44
1.0
0
MTEXT
5
1413
330
140C
100
AcDbEntity
8
SLD-0
48
7.0
100
AcDbMText
10
2745.9198237583
20
2700.5330709205
30
0.0
40
22.225
41
0.0
71
     1
72
     1
1
%%c
7
SLDTEXTSTYLE0
73
     1
44
1.0
0
MTEXT
5
1414
330
140C
100
AcDbEntity
8
SLD-0
48
7.0
100
AcDbMText
10
2787.7722793579
20
2700.8726195479
30
0.0
40
22.225
41
0.0
71
     1
72
     1
1
4.2 THRU
7
SLDTEXTSTYLE0
73
     1
44
1.0
0
MTEXT
5
1415
330
140C
100
AcDbEntity
8
SLD-0
48
7.0
100
AcDbMText
10
2683.1164538116
20
2665.2508852119
30
0.0
40
22.225
41
0.0
71
     1
72
     1
1
M5X0.8 - 6H THRU
7
SLDTEXTSTYLE0
73
     1
44
1.0
0
MTEXT
5
144D
330
1444
100
AcDbEntity
8
SLD-0
48
7.0
100
AcDbMText
10
3396.439415371
20
1883.7782938722
30
0.0
40
22.225
41
0.0
71
     1
72
     1
1
298.4
7
SLDTEXTSTYLE0
73
     1
44
1.0
0
MTEXT
5
1460
330
144F
100
AcDbEntity
8
SLD-0
48
7.0
100
AcDbMText
10
3056.4030496795
20
2027.7005603189
30
0.0
40
22.225
41
0.0
71
     1
72
     1
1
101.6
7
SLDTEXTSTYLE0
73
     1
44
1.0
0
MTEXT
5
1461
330
144F
100
AcDbEntity
8
SLD-0
48
7.0
100
AcDbMText
10
3143.8445324935
20
2027.7005603189
30
0.0
40
22.225
41
0.0
71
     1
72
     1
1
4.00
7
SLDTEXTSTYLE0
73
     1
44
1.0
0
MTEXT
5
1488
330
1477
100
AcDbEntity
8
SLD-0
48
7.0
100
AcDbMText
10
3613.5242363983
20
2479.0021349221
30
0.0
40
22.225
41
0.0
71
     1
72
     1
1
101.6
7
SLDTEXTSTYLE0
73
     1
44
1.0
0
MTEXT
5
1489
330
1477
100
AcDbEntity
8
SLD-0
48
7.0
100
AcDbMText
10
3700.9657192124
20
2479.0021349221
30
0.0
40
22.225
41
0.0
71
     1
72
     1
1
4.00
7
SLDTEXTSTYLE0
73
     1
44
1.0
0
MTEXT
5
1494
330
148B
100
AcDbEntity
8
SLD-0
48
7.0
100
AcDbMText
10
3164.6035892406
20
2455.85936119
30
0.0
40
22.225
41
0.0
71
     1
72
     1
1
50.8
7
SLDTEXTSTYLE0
73
     1
44
1.0
0
MTEXT
5
149F
330
1496
100
AcDbEntity
8
SLD-0
48
7.0
100
AcDbMText
10
3180.5253394798
20
2340.5555658641
30
0.0
40
22.225
41
0.0
71
     1
72
     1
1
23.4
7
SLDTEXTSTYLE0
73
     1
44
1.0
0
MTEXT
5
14AB
330
14A2
100
AcDbEntity
8
SLD-0
48
7.0
100
AcDbMText
10
3492.7739527882
20
2386.6149147701
30
0.0
40
22.225
41
0.0
71
     1
72
     1
1
165.00
7
SLDTEXTSTYLE0
73
     1
44
1.0
0
MTEXT
5
14B3
330
14AD
100
AcDbEntity
8
SLD-0
48
7.0
100
AcDbMText
10
3398.4183419424
20
2623.9184800333
30
0.0
40
22.225
41
0.0
71
     1
72
     1
1
4X
7
SLDTEXTSTYLE0
73
     1
44
1.0
0
MTEXT
5
14B4
330
14AD
100
AcDbEntity
8
SLD-0
48
7.0
100
AcDbMText
10
3441.1088621172
20
2623.5789314059
30
0.0
40
22.225
41
0.0
71
     1
72
     1
1
%%c
7
SLDTEXTSTYLE0
73
     1
44
1.0
0
MTEXT
5
14B5
330
14AD
100
AcDbEntity
8
SLD-0
48
7.0
100
AcDbMText
10
3482.9613177168
20
2623.9184800333
30
0.0
40
22.225
41
0.0
71
     1
72
     1
1
6.8 THRU
7
SLDTEXTSTYLE0
73
     1
44
1.0
0
MTEXT
5
14B6
330
14AD
100
AcDbEntity
8
SLD-0
48
7.0
100
AcDbMText
10
3370.0945909994
20
2588.2967456973
30
0.0
40
22.225
41
0.0
71
     1
72
     1
1
M8X1.25 - 6H THRU
7
SLDTEXTSTYLE0
73
     1
44
1.0
0
MTEXT
5
14EE
330
14E5
100
AcDbEntity
8
SLD-0
48
7.0
100
AcDbMText
10
4772.5611786832
20
1894.7510045702
30
0.0
40
22.225
41
0.0
71
     1
72
     1
1
803.2
7
SLDTEXTSTYLE0
73
     1
44
1.0
0
MTEXT
5
14F8
330
14F0
100
AcDbEntity
8
SLD-0
48
7.0
100
AcDbMText
10
4641.476263917
20
2144.6769438223
30
0.0
40
22.225
41
0.0
71
     1
72
     1
1
45°
7
SLDTEXTSTYLE0
73
     1
44
1.0
0
MTEXT
5
1502
330
14FA
100
AcDbEntity
8
SLD-0
48
7.0
100
AcDbMText
10
4928.2487682968
20
2146.5817061451
30
0.0
40
22.225
41
0.0
71
     1
72
     1
1
45°
7
SLDTEXTSTYLE0
73
     1
44
1.0
0
MTEXT
5
1515
330
1504
100
AcDbEntity
8
SLD-0
48
7.0
100
AcDbMText
10
4202.4937663353
20
2027.7005603189
30
0.0
40
22.225
41
0.0
71
     1
72
     1
1
101.6
7
SLDTEXTSTYLE0
73
     1
44
1.0
0
MTEXT
5
1516
330
1504
100
AcDbEntity
8
SLD-0
48
7.0
100
AcDbMText
10
4289.9352491494
20
2027.7005603189
30
0.0
40
22.225
41
0.0
71
     1
72
     1
1
4.00
7
SLDTEXTSTYLE0
73
     1
44
1.0
0
MTEXT
5
1559
330
1548
100
AcDbEntity
8
SLD-0
48
7.0
100
AcDbMText
10
4132.6796608661
20
2481.5745572117
30
0.0
40
22.225
41
0.0
71
     1
72
     1
1
101.6
7
SLDTEXTSTYLE0
73
     1
44
1.0
0
MTEXT
5
155A
330
1548
100
AcDbEntity
8
SLD-0
48
7.0
100
AcDbMText
10
4220.1211436801
20
2481.5745572117
30
0.0
40
22.225
41
0.0
71
     1
72
     1
1
4.00
7
SLDTEXTSTYLE0
73
     1
44
1.0
0
MTEXT
5
1566
330
155C
100
AcDbEntity
8
SLD-0
48
7.0
100
AcDbMText
10
4259.4339192365
20
2385.8837474185
30
0.0
40
22.225
41
0.0
71
     1
72
     1
1
50.8
7
SLDTEXTSTYLE0
73
     1
44
1.0
0
MTEXT
5
1571
330
1568
100
AcDbEntity
8
SLD-0
48
7.0
100
AcDbMText
10
4512.8451661651
20
2385.8837474185
30
0.0
40
22.225
41
0.0
71
     1
72
     1
1
50.0
7
SLDTEXTSTYLE0
73
     1
44
1.0
0
MTEXT
5
157C
330
1573
100
AcDbEntity
8
SLD-0
48
7.0
100
AcDbMText
10
5053.4703045835
20
2385.8837474185
30
0.0
40
22.225
41
0.0
71
     1
72
     1
1
50.0
7
SLDTEXTSTYLE0
73
     1
44
1.0
0
MTEXT
5
1587
330
157E
100
AcDbEntity
8
SLD-0
48
7.0
100
AcDbMText
10
5280.8290956717
20
2458.4317834795
30
0.0
40
22.225
41
0.0
71
     1
72
     1
1
50.8
7
SLDTEXTSTYLE0
73
     1
44
1.0
0
MTEXT
5
158F
330
1589
100
AcDbEntity
8
SLD-0
48
7.0
100
AcDbMText
10
5217.8964476831
20
2593.683196754
30
0.0
40
22.225
41
0.0
71
     1
72
     1
1
6X
7
SLDTEXTSTYLE0
73
     1
44
1.0
0
MTEXT
5
1590
330
1589
100
AcDbEntity
8
SLD-0
48
7.0
100
AcDbMText
10
5260.5869678579
20
2593.3436481266
30
0.0
40
22.225
41
0.0
71
     1
72
     1
1
%%c
7
SLDTEXTSTYLE0
73
     1
44
1.0
0
MTEXT
5
1591
330
1589
100
AcDbEntity
8
SLD-0
48
7.0
100
AcDbMText
10
5302.4394234575
20
2593.683196754
30
0.0
40
22.225
41
0.0
71
     1
72
     1
1
20.0 THRU ALL
7
SLDTEXTSTYLE0
73
     1
44
1.0
0
MTEXT
5
15C3
330
15B3
100
AcDbEntity
8
SLD-0
48
7.0
100
AcDbMText
10
330.38214433
20
474.9443061098
30
0.0
40
22.225
41
0.0
71
     1
72
     1
1
25.4
7
SLDTEXTSTYLE0
73
     1
44
1.0
0
MTEXT
5
15C4
330
15B3
100
AcDbEntity
8
SLD-0
48
7.0
100
AcDbMText
10
401.4018248021
20
474.9443061098
30
0.0
40
22.225
41
0.0
71
     1
72
     1
1
1.00
7
SLDTEXTSTYLE0
73
     1
44
1.0
0
MTEXT
5
15C5
330
15B3
100
AcDbEntity
8
SLD-0
48
7.0
100
AcDbMText
10
480.7558704953
20
474.9443061098
30
0.0
40
22.225
41
0.0
71
     1
72
     1
1
STK.
7
SLDTEXTSTYLE0
73
     1
44
1.0
0
MTEXT
5
15DD
330
15CE
100
AcDbEntity
8
SLD-0
48
7.0
100
AcDbMText
10
407.8835859875
20
1078.996044575
30
0.0
40
22.225
41
0.0
71
     1
72
     1
1
101.6
7
SLDTEXTSTYLE0
73
     1
44
1.0
0
MTEXT
5
15DE
330
15CE
100
AcDbEntity
8
SLD-0
48
7.0
100
AcDbMText
10
495.3250688015
20
1078.996044575
30
0.0
40
22.225
41
0.0
71
     1
72
     1
1
4.00
7
SLDTEXTSTYLE0
73
     1
44
1.0
0
MTEXT
5
15DF
330
15CE
100
AcDbEntity
8
SLD-0
48
7.0
100
AcDbMText
10
574.6791275332
20
1078.996044575
30
0.0
40
22.225
41
0.0
71
     1
72
     1
1
STK.
7
SLDTEXTSTYLE0
73
     1
44
1.0
0
MTEXT
5
15F0
330
15E1
100
AcDbEntity
8
SLD-0
48
7.0
100
AcDbMText
10
717.5644851272
20
805.158180804
30
0.0
40
22.225
41
0.0
71
     1
72
     1
1
101.6
7
SLDTEXTSTYLE0
73
     1
44
1.0
0
MTEXT
5
15F1
330
15E1
100
AcDbEntity
8
SLD-0
48
7.0
100
AcDbMText
10
805.0059679412
20
805.158180804
30
0.0
40
22.225
41
0.0
71
     1
72
     1
1
4.00
7
SLDTEXTSTYLE0
73
     1
44
1.0
0
MTEXT
5
15F2
330
15E1
100
AcDbEntity
8
SLD-0
48
7.0
100
AcDbMText
10
884.3600266729
20
805.158180804
30
0.0
40
22.225
41
0.0
71
     1
72
     1
1
STK.
7
SLDTEXTSTYLE0
73
     1
44
1.0
0
MTEXT
5
15FE
330
15F5
100
AcDbEntity
8
SLD-0
48
7.0
100
AcDbMText
10
709.8088878621
20
1342.9915575515
30
0.0
40
22.225
41
0.0
71
     1
72
     1
1
50.8
7
SLDTEXTSTYLE0
73
     1
44
1.0
0
MTEXT
5
1609
330
1600
100
AcDbEntity
8
SLD-0
48
7.0
100
AcDbMText
10
1072.3399230625
20
990.096044575
30
0.0
40
22.225
41
0.0
71
     1
72
     1
1
50.8
7
SLDTEXTSTYLE0
73
     1
44
1.0
0
MTEXT
5
1612
330
160C
100
AcDbEntity
8
SLD-0
48
7.0
100
AcDbMText
10
1039.5879416934
20
1360.8024230897
30
0.0
40
22.225
41
0.0
71
     1
72
     1
1
3X
7
SLDTEXTSTYLE0
73
     1
44
1.0
0
MTEXT
5
1613
330
160C
100
AcDbEntity
8
SLD-0
48
7.0
100
AcDbMText
10
1082.2784618682
20
1360.4628744623
30
0.0
40
22.225
41
0.0
71
     1
72
     1
1
%%c
7
SLDTEXTSTYLE0
73
     1
44
1.0
0
MTEXT
5
1614
330
160C
100
AcDbEntity
8
SLD-0
48
7.0
100
AcDbMText
10
1124.1309174678
20
1360.8024230897
30
0.0
40
22.225
41
0.0
71
     1
72
     1
1
10.2 THRU ALL
7
SLDTEXTSTYLE0
73
     1
44
1.0
0
MTEXT
5
1615
330
160C
100
AcDbEntity
8
SLD-0
48
7.0
100
AcDbMText
10
1011.2641907504
20
1325.1806887536
30
0.0
40
22.225
41
0.0
71
     1
72
     1
1
M12X1.75 - 6H THRU ALL
7
SLDTEXTSTYLE0
73
     1
44
1.0
0
MTEXT
5
1646
330
1636
100
AcDbEntity
8
SLD-0
48
7.0
100
AcDbMText
10
1530.6975110033
20
250.9774685623
30
0.0
40
22.225
41
0.0
71
     1
72
     1
1
15.9
7
SLDTEXTSTYLE0
73
     1
44
1.0
0
MTEXT
5
1647
330
1636
100
AcDbEntity
8
SLD-0
48
7.0
100
AcDbMText
10
1601.7171914754
20
250.9774685623
30
0.0
40
22.225
41
0.0
71
     1
72
     1
1
0.63
7
SLDTEXTSTYLE0
73
     1
44
1.0
0
MTEXT
5
1648
330
1636
100
AcDbEntity
8
SLD-0
48
7.0
100
AcDbMText
10
1681.0712371686
20
250.9774685623
30
0.0
40
22.225
41
0.0
71
     1
72
     1
1
STK.
7
SLDTEXTSTYLE0
73
     1
44
1.0
0
MTEXT
5
1668
330
1664
100
AcDbEntity
8
SLD-0
48
7.0
100
AcDbMText
10
1731.6431489871
20
754.8635413944
30
0.0
40
22.225
41
0.0
71
     1
72
     1
1
0
7
SLDTEXTSTYLE0
73
     1
44
1.0
0
MTEXT
5
166F
330
166B
100
AcDbEntity
8
SLD-0
48
7.0
100
AcDbMText
10
1657.7450286695
20
817.8635413944
30
0.0
40
22.225
41
0.0
71
     1
72
     1
1
27.000
7
SLDTEXTSTYLE0
73
     1
44
1.0
0
MTEXT
5
1675
330
1671
100
AcDbEntity
8
SLD-0
48
7.0
100
AcDbMText
10
1641.3232263275
20
1284.5302080611
30
0.0
40
22.225
41
0.0
71
     1
72
     1
1
227.000
7
SLDTEXTSTYLE0
73
     1
44
1.0
0
MTEXT
5
1682
330
1678
100
AcDbEntity
8
SLD-0
48
7.0
100
AcDbMText
10
1511.8780516186
20
1347.5302080611
30
0.0
40
22.225
41
0.0
71
     1
72
     1
1
254.0
7
SLDTEXTSTYLE0
73
     1
44
1.0
0
MTEXT
5
1683
330
1678
100
AcDbEntity
8
SLD-0
48
7.0
100
AcDbMText
10
1599.3195344326
20
1347.5302080611
30
0.0
40
22.225
41
0.0
71
     1
72
     1
1
10.00
7
SLDTEXTSTYLE0
73
     1
44
1.0
0
MTEXT
5
1684
330
1678
100
AcDbEntity
8
SLD-0
48
7.0
100
AcDbMText
10
1695.0953955062
20
1347.5302080611
30
0.0
40
22.225
41
0.0
71
     1
72
     1
1
STK.
7
SLDTEXTSTYLE0
73
     1
44
1.0
0
MTEXT
5
168A
330
1686
100
AcDbEntity
8
SLD-0
48
7.0
100
AcDbMText
10
1839.3693796815
20
641.8889658117
30
0.0
40
22.225
41
0.0
71
     1
72
     1
1
0
7
SLDTEXTSTYLE0
11
6.123233995736766E-17
21
1.0
31
0.0
73
     1
44
1.0
0
MTEXT
5
1691
330
168D
100
AcDbEntity
8
SLD-0
48
7.0
100
AcDbMText
10
1902.3693796815
20
584.412647836
30
0.0
40
22.225
41
0.0
71
     1
72
     1
1
27.00
7
SLDTEXTSTYLE0
11
6.123233995736766E-17
21
1.0
31
0.0
73
     1
44
1.0
0
MTEXT
5
1698
330
1694
100
AcDbEntity
8
SLD-0
48
7.0
100
AcDbMText
10
2135.7027130148
20
584.412647836
30
0.0
40
22.225
41
0.0
71
     1
72
     1
1
127.0
7
SLDTEXTSTYLE0
11
6.123233995736766E-17
21
1.0
31
0.0
73
     1
44
1.0
0
MTEXT
5
169E
330
169A
100
AcDbEntity
8
SLD-0
48
7.0
100
AcDbMText
10
2369.0360463482
20
567.9908454941
30
0.0
40
22.225
41
0.0
71
     1
72
     1
1
227.00
7
SLDTEXTSTYLE0
11
6.123233995736766E-17
21
1.0
31
0.0
73
     1
44
1.0
0
MTEXT
5
16AA
330
16A0
100
AcDbEntity
8
SLD-0
48
7.0
100
AcDbMText
10
2432.0360463482
20
422.1238684432
30
0.0
40
22.225
41
0.0
71
     1
72
     1
1
254.0
7
SLDTEXTSTYLE0
11
6.123233995736766E-17
21
1.0
31
0.0
73
     1
44
1.0
0
MTEXT
5
16AB
330
16A0
100
AcDbEntity
8
SLD-0
48
7.0
100
AcDbMText
10
2432.0360463482
20
509.5653512572
30
0.0
40
22.225
41
0.0
71
     1
72
     1
1
10.00
7
SLDTEXTSTYLE0
11
6.123233995736766E-17
21
1.0
31
0.0
73
     1
44
1.0
0
MTEXT
5
16AC
330
16A0
100
AcDbEntity
8
SLD-0
48
7.0
100
AcDbMText
10
2432.0360463482
20
605.3412123309
30
0.0
40
22.225
41
0.0
71
     1
72
     1
1
STK.
7
SLDTEXTSTYLE0
11
6.123233995736766E-17
21
1.0
31
0.0
73
     1
44
1.0
0
MTEXT
5
16B5
330
16AF
100
AcDbEntity
8
SLD-0
48
7.0
100
AcDbMText
10
2602.6080087662
20
955.4458133042
30
0.0
40
22.225
41
0.0
71
     1
72
     1
1
4X
7
SLDTEXTSTYLE0
73
     1
44
1.0
0
MTEXT
5
16B6
330
16AF
100
AcDbEntity
8
SLD-0
48
7.0
100
AcDbMText
10
2645.298528941
20
955.1062646769
30
0.0
40
22.225
41
0.0
71
     1
72
     1
1
%%c
7
SLDTEXTSTYLE0
73
     1
44
1.0
0
MTEXT
5
16B7
330
16AF
100
AcDbEntity
8
SLD-0
48
7.0
100
AcDbMText
10
2687.1509845406
20
955.4458133042
30
0.0
40
22.225
41
0.0
71
     1
72
     1
1
8.5 THRU ALL
7
SLDTEXTSTYLE0
73
     1
44
1.0
0
MTEXT
5
16B8
330
16AF
100
AcDbEntity
8
SLD-0
48
7.0
100
AcDbMText
10
2574.2842578233
20
919.8240789682
30
0.0
40
22.225
41
0.0
71
     1
72
     1
1
M10X1.5 - 6H THRU ALL
7
SLDTEXTSTYLE0
73
     1
44
1.0
0
MTEXT
5
16C1
330
16BB
100
AcDbEntity
8
SLD-0
48
7.0
100
AcDbMText
10
1787.3413162122
20
1446.1079960448
30
0.0
40
22.225
41
0.0
71
     1
72
     1
1
2X
7
SLDTEXTSTYLE0
73
     1
44
1.0
0
MTEXT
5
16C2
330
16BB
100
AcDbEntity
8
SLD-0
48
7.0
100
AcDbMText
10
1830.031836387
20
1445.7684474174
30
0.0
40
22.225
41
0.0
71
     1
72
     1
1
%%c
7
SLDTEXTSTYLE0
73
     1
44
1.0
0
MTEXT
5
16C3
330
16BB
100
AcDbEntity
8
SLD-0
48
7.0
100
AcDbMText
10
1871.8842919866
20
1446.1079960448
30
0.0
40
22.225
41
0.0
71
     1
72
     1
1
8.000 THRU ALL
7
SLDTEXTSTYLE0
73
     1
44
1.0
0
MTEXT
5
16C4
330
16BB
100
AcDbEntity
8
SLD-0
48
7.0
100
AcDbMText
10
1820.1671624372
20
1410.4862617088
30
0.0
40
22.225
41
0.0
71
     1
72
     1
1
P.F. FOR DOWEL
7
SLDTEXTSTYLE0
73
     1
44
1.0
0
MTEXT
5
16CB
330
16C5
100
AcDbEntity
8
SLD-0
62
     0
48
7.0
100
AcDbMText
10
0.0
20
28.6495305164
30
0.0
40
22.225
41
0.0
71
     1
72
     1
1
4X
7
SLDTEXTSTYLE0
73
     1
44
1.0
0
MTEXT
5
16CC
330
16C5
100
AcDbEntity
8
SLD-0
62
     0
48
7.0
100
AcDbMText
10
42.6905201748
20
28.6495305164
30
0.0
40
22.225
41
0.0
71
     1
72
     1
1
10.0
7
SLDTEXTSTYLE0
73
     1
44
1.0
0
MTEXT
5
16CD
330
16C5
100
AcDbEntity
8
SLD-0
62
     0
48
7.0
100
AcDbMText
10
108.5012164101
20
28.6495305164
30
0.0
40
22.225
41
0.0
71
     1
72
     1
1
X
7
SLDTEXTSTYLE0
73
     1
44
1.0
0
MTEXT
5
16CE
330
16C5
100
AcDbEntity
8
SLD-0
62
     0
48
7.0
100
AcDbMText
10
134.6464604139
20
28.6495305164
30
0.0
40
22.225
41
0.0
71
     1
72
     1
1
45°
7
SLDTEXTSTYLE0
73
     1
44
1.0
0
MTEXT
5
1732
330
1722
100
AcDbEntity
8
SLD-0
48
7.0
100
AcDbMText
10
3077.1193969411
20
258.1902572094
30
0.0
40
22.225
41
0.0
71
     1
72
     1
1
15.9
7
SLDTEXTSTYLE0
73
     1
44
1.0
0
MTEXT
5
1733
330
1722
100
AcDbEntity
8
SLD-0
48
7.0
100
AcDbMText
10
3148.1390774132
20
258.1902572094
30
0.0
40
22.225
41
0.0
71
     1
72
     1
1
0.63
7
SLDTEXTSTYLE0
73
     1
44
1.0
0
MTEXT
5
1734
330
1722
100
AcDbEntity
8
SLD-0
48
7.0
100
AcDbMText
10
3227.4931231064
20
258.1902572094
30
0.0
40
22.225
41
0.0
71
     1
72
     1
1
STK.
7
SLDTEXTSTYLE0
73
     1
44
1.0
0
MTEXT
5
174E
330
174A
100
AcDbEntity
8
SLD-0
48
7.0
100
AcDbMText
10
3288.1629390308
20
779.9089562175
30
0.0
40
22.225
41
0.0
71
     1
72
     1
1
0
7
SLDTEXTSTYLE0
73
     1
44
1.0
0
MTEXT
5
1755
330
1751
100
AcDbEntity
8
SLD-0
48
7.0
100
AcDbMText
10
3247.1084233971
20
858.308955927
30
0.0
40
22.225
41
0.0
71
     1
72
     1
1
33.6
7
SLDTEXTSTYLE0
73
     1
44
1.0
0
MTEXT
5
175B
330
1757
100
AcDbEntity
8
SLD-0
48
7.0
100
AcDbMText
10
3230.6866210551
20
1173.308955927
30
0.0
40
22.225
41
0.0
71
     1
72
     1
1
168.6
7
SLDTEXTSTYLE0
73
     1
44
1.0
0
MTEXT
5
1768
330
175E
100
AcDbEntity
8
SLD-0
48
7.0
100
AcDbMText
10
3084.8196179272
20
1254.0422895508
30
0.0
40
22.225
41
0.0
71
     1
72
     1
1
203.2
7
SLDTEXTSTYLE0
73
     1
44
1.0
0
MTEXT
5
1769
330
175E
100
AcDbEntity
8
SLD-0
48
7.0
100
AcDbMText
10
3172.2611007412
20
1254.0422895508
30
0.0
40
22.225
41
0.0
71
     1
72
     1
1
8.00
7
SLDTEXTSTYLE0
73
     1
44
1.0
0
MTEXT
5
176A
330
175E
100
AcDbEntity
8
SLD-0
48
7.0
100
AcDbMText
10
3251.6151594729
20
1254.0422895508
30
0.0
40
22.225
41
0.0
71
     1
72
     1
1
STK.
7
SLDTEXTSTYLE0
73
     1
44
1.0
0
MTEXT
5
1770
330
176C
100
AcDbEntity
8
SLD-0
48
7.0
100
AcDbMText
10
3370.9872242984
20
689.4933708825
30
0.0
40
22.225
41
0.0
71
     1
72
     1
1
0
7
SLDTEXTSTYLE0
11
6.123233995736766E-17
21
1.0
31
0.0
73
     1
44
1.0
0
MTEXT
5
1776
330
1772
100
AcDbEntity
8
SLD-0
48
7.0
100
AcDbMText
10
3450.5538912556
20
648.4388552488
30
0.0
40
22.225
41
0.0
71
     1
72
     1
1
34.1
7
SLDTEXTSTYLE0
11
6.123233995736766E-17
21
1.0
31
0.0
73
     1
44
1.0
0
MTEXT
5
177C
330
1778
100
AcDbEntity
8
SLD-0
48
7.0
100
AcDbMText
10
3765.5538906747
20
632.0170529069
30
0.0
40
22.225
41
0.0
71
     1
72
     1
1
169.1
7
SLDTEXTSTYLE0
11
6.123233995736766E-17
21
1.0
31
0.0
73
     1
44
1.0
0
MTEXT
5
1788
330
177E
100
AcDbEntity
8
SLD-0
48
7.0
100
AcDbMText
10
3845.1205576318
20
486.1500497789
30
0.0
40
22.225
41
0.0
71
     1
72
     1
1
203.2
7
SLDTEXTSTYLE0
11
6.123233995736766E-17
21
1.0
31
0.0
73
     1
44
1.0
0
MTEXT
5
1789
330
177E
100
AcDbEntity
8
SLD-0
48
7.0
100
AcDbMText
10
3845.1205576318
20
573.591532593
30
0.0
40
22.225
41
0.0
71
     1
72
     1
1
8.00
7
SLDTEXTSTYLE0
11
6.123233995736766E-17
21
1.0
31
0.0
73
     1
44
1.0
0
MTEXT
5
178A
330
177E
100
AcDbEntity
8
SLD-0
48
7.0
100
AcDbMText
10
3845.1205576318
20
652.9455913247
30
0.0
40
22.225
41
0.0
71
     1
72
     1
1
STK.
7
SLDTEXTSTYLE0
11
6.123233995736766E-17
21
1.0
31
0.0
73
     1
44
1.0
0
MTEXT
5
1791
330
178B
100
AcDbEntity
8
SLD-0
62
     0
48
7.0
100
AcDbMText
10
0.0
20
28.6495305164
30
0.0
40
22.225
41
0.0
71
     1
72
     1
1
4X
7
SLDTEXTSTYLE0
73
     1
44
1.0
0
MTEXT
5
1792
330
178B
100
AcDbEntity
8
SLD-0
62
     0
48
7.0
100
AcDbMText
10
42.6905201748
20
28.6495305164
30
0.0
40
22.225
41
0.0
71
     1
72
     1
1
10.0
7
SLDTEXTSTYLE0
73
     1
44
1.0
0
MTEXT
5
1793
330
178B
100
AcDbEntity
8
SLD-0
62
     0
48
7.0
100
AcDbMText
10
108.5012164101
20
28.6495305164
30
0.0
40
22.225
41
0.0
71
     1
72
     1
1
X
7
SLDTEXTSTYLE0
73
     1
44
1.0
0
MTEXT
5
1794
330
178B
100
AcDbEntity
8
SLD-0
62
     0
48
7.0
100
AcDbMText
10
134.6464604139
20
28.6495305164
30
0.0
40
22.225
41
0.0
71
     1
72
     1
1
45°
7
SLDTEXTSTYLE0
73
     1
44
1.0
0
MTEXT
5
179D
330
1797
100
AcDbEntity
8
SLD-0
48
7.0
100
AcDbMText
10
3999.6127562126
20
1099.8140795385
30
0.0
40
22.225
41
0.0
71
     1
72
     1
1
4X
7
SLDTEXTSTYLE0
73
     1
44
1.0
0
MTEXT
5
179E
330
1797
100
AcDbEntity
8
SLD-0
48
7.0
100
AcDbMText
10
4042.3032763874
20
1099.4745309111
30
0.0
40
22.225
41
0.0
71
     1
72
     1
1
%%c
7
SLDTEXTSTYLE0
73
     1
44
1.0
0
MTEXT
5
179F
330
1797
100
AcDbEntity
8
SLD-0
48
7.0
100
AcDbMText
10
4084.155731987
20
1099.8140795385
30
0.0
40
22.225
41
0.0
71
     1
72
     1
1
8.5 THRU ALL
7
SLDTEXTSTYLE0
73
     1
44
1.0
0
MTEXT
5
17A0
330
1797
100
AcDbEntity
8
SLD-0
48
7.0
100
AcDbMText
10
3971.2890052696
20
1064.1923452025
30
0.0
40
22.225
41
0.0
71
     1
72
     1
1
M10X1.5 - 6H THRU ALL
7
SLDTEXTSTYLE0
73
     1
44
1.0
0
ATTRIB
5
4AB
330
4AA
100
AcDbEntity
67
     1
8
FORMAT
62
     7
48
7.0
100
AcDbText
10
4024.6524616106
20
420.0791881815
30
0.0
40
24.5
1
POWDERCOAT RAL 7035
41
0.75
7
SLDTEXTSTYLE0
11
4024.6524616106
21
407.4061272298
31
0.0
100
AcDbAttribute
2
AUTOATTR0
70
     0
74
     1
0
MTEXT
5
4AE
330
1B
100
AcDbEntity
67
     1
8
SLD-0
48
7.0
100
AcDbMText
10
4058.4548674106
20
125.6708575551
30
0.0
40
24.5
41
0.0
71
     1
72
     1
1
APPROX. WEIGHT =  KG
7
SLDTEXTSTYLE2
73
     1
44
1.0
0
MTEXT
5
4BF
330
1B
100
AcDbEntity
67
     1
8
RAHMEN_DICK
48
7.0
100
AcDbMText
10
5560.928338
20
61.2045185002
30
0.0
40
17.5
41
0.0
71
     1
72
     1
1
16
7
SLDTEXTSTYLE4
73
     1
44
1.0
0
MTEXT
5
4C0
330
1B
100
AcDbEntity
67
     1
8
RAHMEN_DICK
48
7.0
100
AcDbMText
10
5210.928338
20
61.2045185002
30
0.0
40
17.5
41
0.0
71
     1
72
     1
1
15
7
SLDTEXTSTYLE4
73
     1
44
1.0
0
MTEXT
5
4C2
330
1B
100
AcDbEntity
67
     1
8
RAHMEN_DICK
48
7.0
100
AcDbMText
10
4859.901669
20
61.2045185002
30
0.0
40
17.5
41
0.0
71
     1
72
     1
1
14
7
SLDTEXTSTYLE5
73
     1
44
1.0
0
MTEXT
5
4C3
330
1B
100
AcDbEntity
67
     1
8
RAHMEN_DICK
48
7.0
100
AcDbMText
10
4510.928338
20
61.2045185002
30
0.0
40
17.5
41
0.0
71
     1
72
     1
1
13
7
SLDTEXTSTYLE4
73
     1
44
1.0
0
MTEXT
5
4C4
330
1B
100
AcDbEntity
67
     1
8
RAHMEN_DICK
48
7.0
100
AcDbMText
10
4160.928338
20
61.2045185002
30
0.0
40
17.5
41
0.0
71
     1
72
     1
1
12
7
SLDTEXTSTYLE4
73
     1
44
1.0
0
MTEXT
5
4C6
330
1B
100
AcDbEntity
67
     1
8
RAHMEN_DICK
48
7.0
100
AcDbMText
10
3813.11
20
61.2045185002
30
0.0
40
17.5
41
0.0
71
     1
72
     1
1
11
7
SLDTEXTSTYLE6
73
     1
44
1.0
0
MTEXT
5
4C7
330
1B
100
AcDbEntity
67
     1
8
RAHMEN_DICK
48
7.0
100
AcDbMText
10
3460.928338
20
61.2045185002
30
0.0
40
17.5
41
0.0
71
     1
72
     1
1
10
7
SLDTEXTSTYLE4
73
     1
44
1.0
0
MTEXT
5
4C9
330
1B
100
AcDbEntity
67
     1
8
RAHMEN_DICK
48
7.0
100
AcDbMText
10
3113.623331
20
61.2045185002
30
0.0
40
17.5
41
0.0
71
     1
72
     1
1
9
7
SLDTEXTSTYLE7
73
     1
44
1.0
0
MTEXT
5
4CA
330
1B
100
AcDbEntity
67
     1
8
RAHMEN_DICK
48
7.0
100
AcDbMText
10
2763.623331
20
61.2045185002
30
0.0
40
17.5
41
0.0
71
     1
72
     1
1
8
7
SLDTEXTSTYLE7
73
     1
44
1.0
0
MTEXT
5
4CB
330
1B
100
AcDbEntity
67
     1
8
RAHMEN_DICK
48
7.0
100
AcDbMText
10
2413.623331
20
61.2045185002
30
0.0
40
17.5
41
0.0
71
     1
72
     1
1
7
7
SLDTEXTSTYLE7
73
     1
44
1.0
0
MTEXT
5
4CC
330
1B
100
AcDbEntity
67
     1
8
RAHMEN_DICK
48
7.0
100
AcDbMText
10
2063.623331
20
61.2045185002
30
0.0
40
17.5
41
0.0
71
     1
72
     1
1
6
7
SLDTEXTSTYLE7
73
     1
44
1.0
0
MTEXT
5
4CD
330
1B
100
AcDbEntity
67
     1
8
RAHMEN_DICK
48
7.0
100
AcDbMText
10
1713.623331
20
61.2045185002
30
0.0
40
17.5
41
0.0
71
     1
72
     1
1
5
7
SLDTEXTSTYLE7
73
     1
44
1.0
0
MTEXT
5
4CF
330
1B
100
AcDbEntity
67
     1
8
RAHMEN_DICK
48
7.0
100
AcDbMText
10
1362.596669
20
61.2045185002
30
0.0
40
17.5
41
0.0
71
     1
72
     1
1
4
7
SLDTEXTSTYLE8
73
     1
44
1.0
0
MTEXT
5
4D0
330
1B
100
AcDbEntity
67
     1
8
RAHMEN_DICK
48
7.0
100
AcDbMText
10
1013.623331
20
61.2045185002
30
0.0
40
17.5
41
0.0
71
     1
72
     1
1
3
7
SLDTEXTSTYLE7
73
     1
44
1.0
0
MTEXT
5
4D1
330
1B
100
AcDbEntity
67
     1
8
RAHMEN_DICK
48
7.0
100
AcDbMText
10
663.623331
20
61.2045185002
30
0.0
40
17.5
41
0.0
71
     1
72
     1
1
2
7
SLDTEXTSTYLE7
73
     1
44
1.0
0
MTEXT
5
4D3
330
1B
100
AcDbEntity
67
     1
8
RAHMEN_DICK
48
7.0
100
AcDbMText
10
315.805
20
61.2045185002
30
0.0
40
17.5
41
0.0
71
     1
72
     1
1
1
7
SLDTEXTSTYLE9
73
     1
44
1.0
0
MTEXT
5
4D4
330
1B
100
AcDbEntity
67
     1
8
RAHMEN_DICK
48
7.0
100
AcDbMText
10
46.596669
20
208.2045185002
30
0.0
40
17.5
41
0.0
71
     1
72
     1
1
M
7
SLDTEXTSTYLE8
73
     1
44
1.0
0
MTEXT
5
4D5
330
1B
100
AcDbEntity
67
     1
8
RAHMEN_DICK
48
7.0
100
AcDbMText
10
47.623331
20
512.7045185002
30
0.0
40
17.5
41
0.0
71
     1
72
     1
1
L
7
SLDTEXTSTYLE7
73
     1
44
1.0
0
MTEXT
5
4D7
330
1B
100
AcDbEntity
67
     1
8
RAHMEN_DICK
48
7.0
100
AcDbMText
10
47.11
20
862.7045185002
30
0.0
40
17.5
41
0.0
71
     1
72
     1
1
K
7
SLDTEXTSTYLE10
73
     1
44
1.0
0
MTEXT
5
4D9
330
1B
100
AcDbEntity
67
     1
8
RAHMEN_DICK
48
7.0
100
AcDbMText
10
48.906669
20
1212.7045185002
30
0.0
40
17.5
41
0.0
71
     1
72
     1
1
J
7
SLDTEXTSTYLE11
73
     1
44
1.0
0
MTEXT
5
4DB
330
1B
100
AcDbEntity
67
     1
8
RAHMEN_DICK
48
7.0
100
AcDbMText
10
47.366669
20
1562.7045185002
30
0.0
40
17.5
41
0.0
71
     1
72
     1
1
H
7
SLDTEXTSTYLE12
73
     1
44
1.0
0
MTEXT
5
4DD
330
1B
100
AcDbEntity
67
     1
8
RAHMEN_DICK
48
7.0
100
AcDbMText
10
47.238331
20
1912.7045185002
30
0.0
40
17.5
41
0.0
71
     1
72
     1
1
G
7
SLDTEXTSTYLE13
73
     1
44
1.0
0
MTEXT
5
4DF
330
1B
100
AcDbEntity
67
     1
8
RAHMEN_DICK
48
7.0
100
AcDbMText
10
47.88
20
2262.7045185002
30
0.0
40
17.5
41
0.0
71
     1
72
     1
1
F
7
SLDTEXTSTYLE14
73
     1
44
1.0
0
MTEXT
5
4E0
330
1B
100
AcDbEntity
67
     1
8
RAHMEN_DICK
48
7.0
100
AcDbMText
10
47.88
20
2612.7045185002
30
0.0
40
17.5
41
0.0
71
     1
72
     1
1
E
7
SLDTEXTSTYLE14
73
     1
44
1.0
0
MTEXT
5
4E1
330
1B
100
AcDbEntity
67
     1
8
RAHMEN_DICK
48
7.0
100
AcDbMText
10
47.366669
20
2962.7045185002
30
0.0
40
17.5
41
0.0
71
     1
72
     1
1
D
7
SLDTEXTSTYLE12
73
     1
44
1.0
0
MTEXT
5
4E2
330
1B
100
AcDbEntity
67
     1
8
RAHMEN_DICK
48
7.0
100
AcDbMText
10
47.366669
20
3312.7045185002
30
0.0
40
17.5
41
0.0
71
     1
72
     1
1
C
7
SLDTEXTSTYLE12
73
     1
44
1.0
0
MTEXT
5
4E3
330
1B
100
AcDbEntity
67
     1
8
RAHMEN_DICK
48
7.0
100
AcDbMText
10
47.11
20
3662.7045185002
30
0.0
40
17.5
41
0.0
71
     1
72
     1
1
B
7
SLDTEXTSTYLE10
73
     1
44
1.0
0
MTEXT
5
4E4
330
1B
100
AcDbEntity
67
     1
8
RAHMEN_DICK
48
7.0
100
AcDbMText
10
46.596669
20
3967.2045185002
30
0.0
40
17.5
41
0.0
71
     1
72
     1
1
A
7
SLDTEXTSTYLE8
73
     1
44
1.0
0
MTEXT
5
4E5
330
1B
100
AcDbEntity
67
     1
8
RAHMEN_DICK
48
7.0
100
AcDbMText
10
5828.596669
20
208.2045185002
30
0.0
40
17.5
41
0.0
71
     1
72
     1
1
M
7
SLDTEXTSTYLE8
73
     1
44
1.0
0
MTEXT
5
4E6
330
1B
100
AcDbEntity
67
     1
8
RAHMEN_DICK
48
7.0
100
AcDbMText
10
5829.623331
20
512.7045185002
30
0.0
40
17.5
41
0.0
71
     1
72
     1
1
L
7
SLDTEXTSTYLE7
73
     1
44
1.0
0
MTEXT
5
4E7
330
1B
100
AcDbEntity
67
     1
8
RAHMEN_DICK
48
7.0
100
AcDbMText
10
5829.11
20
862.7045185002
30
0.0
40
17.5
41
0.0
71
     1
72
     1
1
K
7
SLDTEXTSTYLE10
73
     1
44
1.0
0
MTEXT
5
4E8
330
1B
100
AcDbEntity
67
     1
8
RAHMEN_DICK
48
7.0
100
AcDbMText
10
5830.906669
20
1212.7045185002
30
0.0
40
17.5
41
0.0
71
     1
72
     1
1
J
7
SLDTEXTSTYLE11
73
     1
44
1.0
0
MTEXT
5
4E9
330
1B
100
AcDbEntity
67
     1
8
RAHMEN_DICK
48
7.0
100
AcDbMText
10
5829.366669
20
1562.7045185002
30
0.0
40
17.5
41
0.0
71
     1
72
     1
1
H
7
SLDTEXTSTYLE12
73
     1
44
1.0
0
MTEXT
5
4EA
330
1B
100
AcDbEntity
67
     1
8
RAHMEN_DICK
48
7.0
100
AcDbMText
10
5829.238331
20
1912.7045185002
30
0.0
40
17.5
41
0.0
71
     1
72
     1
1
G
7
SLDTEXTSTYLE13
73
     1
44
1.0
0
MTEXT
5
4EB
330
1B
100
AcDbEntity
67
     1
8
RAHMEN_DICK
48
7.0
100
AcDbMText
10
5829.88
20
2262.7045185002
30
0.0
40
17.5
41
0.0
71
     1
72
     1
1
F
7
SLDTEXTSTYLE14
73
     1
44
1.0
0
MTEXT
5
4EC
330
1B
100
AcDbEntity
67
     1
8
RAHMEN_DICK
48
7.0
100
AcDbMText
10
5829.88
20
2612.7045185002
30
0.0
40
17.5
41
0.0
71
     1
72
     1
1
E
7
SLDTEXTSTYLE14
73
     1
44
1.0
0
MTEXT
5
4ED
330
1B
100
AcDbEntity
67
     1
8
RAHMEN_DICK
48
7.0
100
AcDbMText
10
5829.366669
20
2962.7045185002
30
0.0
40
17.5
41
0.0
71
     1
72
     1
1
D
7
SLDTEXTSTYLE12
73
     1
44
1.0
0
MTEXT
5
4EE
330
1B
100
AcDbEntity
67
     1
8
RAHMEN_DICK
48
7.0
100
AcDbMText
10
5829.366669
20
3312.7045185002
30
0.0
40
17.5
41
0.0
71
     1
72
     1
1
C
7
SLDTEXTSTYLE12
73
     1
44
1.0
0
MTEXT
5
4EF
330
1B
100
AcDbEntity
67
     1
8
RAHMEN_DICK
48
7.0
100
AcDbMText
10
5829.11
20
3662.7045185002
30
0.0
40
17.5
41
0.0
71
     1
72
     1
1
B
7
SLDTEXTSTYLE10
73
     1
44
1.0
0
MTEXT
5
4F0
330
1B
100
AcDbEntity
67
     1
8
RAHMEN_DICK
48
7.0
100
AcDbMText
10
5828.596669
20
3967.2045185002
30
0.0
40
17.5
41
0.0
71
     1
72
     1
1
A
7
SLDTEXTSTYLE8
73
     1
44
1.0
0
MTEXT
5
4F1
330
1B
100
AcDbEntity
67
     1
8
RAHMEN_DICK
48
7.0
100
AcDbMText
10
5560.928338
20
4114.2045185002
30
0.0
40
17.5
41
0.0
71
     1
72
     1
1
16
7
SLDTEXTSTYLE4
73
     1
44
1.0
0
MTEXT
5
4F2
330
1B
100
AcDbEntity
67
     1
8
RAHMEN_DICK
48
7.0
100
AcDbMText
10
5210.928338
20
4114.2045185002
30
0.0
40
17.5
41
0.0
71
     1
72
     1
1
15
7
SLDTEXTSTYLE4
73
     1
44
1.0
0
MTEXT
5
4F3
330
1B
100
AcDbEntity
67
     1
8
RAHMEN_DICK
48
7.0
100
AcDbMText
10
4859.901669
20
4114.2045185002
30
0.0
40
17.5
41
0.0
71
     1
72
     1
1
14
7
SLDTEXTSTYLE5
73
     1
44
1.0
0
MTEXT
5
4F4
330
1B
100
AcDbEntity
67
     1
8
RAHMEN_DICK
48
7.0
100
AcDbMText
10
4510.928338
20
4114.2045185002
30
0.0
40
17.5
41
0.0
71
     1
72
     1
1
13
7
SLDTEXTSTYLE4
73
     1
44
1.0
0
MTEXT
5
4F5
330
1B
100
AcDbEntity
67
     1
8
RAHMEN_DICK
48
7.0
100
AcDbMText
10
4160.928338
20
4114.2045185002
30
0.0
40
17.5
41
0.0
71
     1
72
     1
1
12
7
SLDTEXTSTYLE4
73
     1
44
1.0
0
MTEXT
5
4F6
330
1B
100
AcDbEntity
67
     1
8
RAHMEN_DICK
48
7.0
100
AcDbMText
10
3813.11
20
4114.2045185002
30
0.0
40
17.5
41
0.0
71
     1
72
     1
1
11
7
SLDTEXTSTYLE6
73
     1
44
1.0
0
MTEXT
5
4F7
330
1B
100
AcDbEntity
67
     1
8
RAHMEN_DICK
48
7.0
100
AcDbMText
10
3460.928338
20
4114.2045185002
30
0.0
40
17.5
41
0.0
71
     1
72
     1
1
10
7
SLDTEXTSTYLE4
73
     1
44
1.0
0
MTEXT
5
4F8
330
1B
100
AcDbEntity
67
     1
8
RAHMEN_DICK
48
7.0
100
AcDbMText
10
3113.623331
20
4114.2045185002
30
0.0
40
17.5
41
0.0
71
     1
72
     1
1
9
7
SLDTEXTSTYLE7
73
     1
44
1.0
0
MTEXT
5
4F9
330
1B
100
AcDbEntity
67
     1
8
RAHMEN_DICK
48
7.0
100
AcDbMText
10
2763.623331
20
4114.2045185002
30
0.0
40
17.5
41
0.0
71
     1
72
     1
1
8
7
SLDTEXTSTYLE7
73
     1
44
1.0
0
MTEXT
5
4FA
330
1B
100
AcDbEntity
67
     1
8
RAHMEN_DICK
48
7.0
100
AcDbMText
10
2413.623331
20
4114.2045185002
30
0.0
40
17.5
41
0.0
71
     1
72
     1
1
7
7
SLDTEXTSTYLE7
73
     1
44
1.0
0
MTEXT
5
4FB
330
1B
100
AcDbEntity
67
     1
8
RAHMEN_DICK
48
7.0
100
AcDbMText
10
2063.623331
20
4114.2045185002
30
0.0
40
17.5
41
0.0
71
     1
72
     1
1
6
7
SLDTEXTSTYLE7
73
     1
44
1.0
0
MTEXT
5
4FC
330
1B
100
AcDbEntity
67
     1
8
RAHMEN_DICK
48
7.0
100
AcDbMText
10
1713.623331
20
4114.2045185002
30
0.0
40
17.5
41
0.0
71
     1
72
     1
1
5
7
SLDTEXTSTYLE7
73
     1
44
1.0
0
MTEXT
5
4FD
330
1B
100
AcDbEntity
67
     1
8
RAHMEN_DICK
48
7.0
100
AcDbMText
10
1362.596669
20
4114.2045185002
30
0.0
40
17.5
41
0.0
71
     1
72
     1
1
4
7
SLDTEXTSTYLE8
73
     1
44
1.0
0
MTEXT
5
4FE
330
1B
100
AcDbEntity
67
     1
8
RAHMEN_DICK
48
7.0
100
AcDbMText
10
1013.623331
20
4114.2045185002
30
0.0
40
17.5
41
0.0
71
     1
72
     1
1
3
7
SLDTEXTSTYLE7
73
     1
44
1.0
0
MTEXT
5
4FF
330
1B
100
AcDbEntity
67
     1
8
RAHMEN_DICK
48
7.0
100
AcDbMText
10
663.623331
20
4114.2045185002
30
0.0
40
17.5
41
0.0
71
     1
72
     1
1
2
7
SLDTEXTSTYLE7
73
     1
44
1.0
0
MTEXT
5
500
330
1B
100
AcDbEntity
67
     1
8
RAHMEN_DICK
48
7.0
100
AcDbMText
10
315.805
20
4114.2045185002
30
0.0
40
17.5
41
0.0
71
     1
72
     1
1
1
7
SLDTEXTSTYLE9
73
     1
44
1.0
0
MTEXT
5
502
330
1B
100
AcDbEntity
67
     1
8
20
48
7.0
100
AcDbMText
10
4521.0612983432
20
565.4223733213
30
0.0
40
14.7
41
0.0
71
     1
72
     1
1
Auftraggeber
7
SLDTEXTSTYLE15
73
     1
44
1.0
0
MTEXT
5
504
330
1B
100
AcDbEntity
67
     1
8
TEXT
48
7.0
100
AcDbMText
10
5741.5639940241
20
124.1420588477
30
0.0
40
21.0
41
0.0
71
     2
72
     1
1
2
7
SLDTEXTSTYLE16
73
     1
44
1.0
0
MTEXT
5
505
330
1B
100
AcDbEntity
67
     1
8
TEXT
48
7.0
100
AcDbMText
10
5767.2856037095
20
157.9626902786
30
0.0
40
21.0
41
0.0
71
     2
72
     1
1
1
7
SLDTEXTSTYLE16
73
     1
44
1.0
0
MTEXT
5
507
330
1B
100
AcDbEntity
67
     1
8
TEXT
48
7.0
100
AcDbMText
10
5210.6423590538
20
489.508394198
30
0.0
40
24.5
41
0.0
71
     1
72
     1
1
ST
7
SLDTEXTSTYLE17
73
     1
44
1.0
0
MTEXT
5
509
330
1B
100
AcDbEntity
67
     1
8
TEXT
48
7.0
100
AcDbMText
10
5210.6423590538
20
301.8113245299
30
0.0
40
24.5
41
0.0
71
     1
72
     1
1
base frame
7
SLDTEXTSTYLE18
73
     1
44
1.0
0
MTEXT
5
50B
330
1B
100
AcDbEntity
67
     1
8
TEXT
48
7.0
100
AcDbMText
10
5303.199986
20
180.6238245299
30
0.0
40
24.5
41
0.0
71
     1
72
     1
1
314-092-59196-10
7
SLDTEXTSTYLE19
73
     1
44
1.0
0
MTEXT
5
50D
330
1B
100
AcDbEntity
67
     1
8
TEXT
48
7.0
100
AcDbMText
10
5136.6599720062
20
301.8367955994
30
0.0
40
14.7
41
0.0
71
     2
72
     1
1
Martini, Christopher
7
SLDTEXTSTYLE20
73
     1
44
1.0
0
MTEXT
5
50E
330
1B
100
AcDbEntity
67
     1
8
20
48
7.0
100
AcDbMText
10
4526.920741
20
431.8998195994
30
0.0
40
14.7
41
0.0
71
     1
72
     1
1
CAD: SolidWorks
7
SLDTEXTSTYLE15
73
     1
44
1.0
0
MTEXT
5
50F
330
1B
100
AcDbEntity
67
     1
8
20
48
7.0
100
AcDbMText
10
5136.9094267804
20
379.5173146656
30
0.0
40
14.7
41
0.0
71
     2
72
     1
1
EN ISO
7
SLDTEXTSTYLE15
73
     1
44
1.0
0
MTEXT
5
510
330
1B
100
AcDbEntity
67
     1
8
20
48
7.0
100
AcDbMText
10
5137.1876082684
20
358.4381183353
30
0.0
40
14.7
41
0.0
71
     2
72
     1
1
1302
7
SLDTEXTSTYLE15
73
     1
44
1.0
0
MTEXT
5
511
330
1B
100
AcDbEntity
67
     1
8
20
48
7.0
100
AcDbMText
10
4906.301022
20
91.8367955994
30
0.0
40
14.7
41
0.0
71
     1
72
     1
1
Urspr.
7
SLDTEXTSTYLE15
73
     1
44
1.0
0
MTEXT
5
512
330
1B
100
AcDbEntity
67
     1
8
20
48
7.0
100
AcDbMText
10
4804.7161042494
20
89.7458918736
30
0.0
40
11.2
41
0.0
71
     1
72
     1
1
Name
7
SLDTEXTSTYLE15
73
     1
44
1.0
0
MTEXT
5
513
330
1B
100
AcDbEntity
67
     1
8
20
48
7.0
100
AcDbMText
10
5137.0816943701
20
331.0986459384
30
0.0
40
14.7
41
0.0
71
     2
72
     1
1
Name
7
SLDTEXTSTYLE15
73
     1
44
1.0
0
MTEXT
5
514
330
1B
100
AcDbEntity
67
     1
8
20
48
7.0
100
AcDbMText
10
5208.8389816199
20
167.611794319
30
0.0
40
14.7
41
0.0
71
     1
72
     1
1
DRW No.
7
SLDTEXTSTYLE15
73
     1
44
1.0
0
MTEXT
5
515
330
1B
100
AcDbEntity
67
     1
8
20
48
7.0
100
AcDbMText
10
5210.6423590538
20
142.9367885994
30
0.0
40
14.7
41
0.0
71
     1
72
     1
1
Art-Nr.
7
SLDTEXTSTYLE15
73
     1
44
1.0
0
MTEXT
5
516
330
1B
100
AcDbEntity
67
     1
8
20
48
7.0
100
AcDbMText
10
5714.1076958005
20
552.625848414
30
0.0
40
14.7
41
0.0
71
     1
72
     1
1
U-F:
7
SLDTEXTSTYLE15
73
     1
44
1.0
0
MTEXT
5
517
330
1B
100
AcDbEntity
67
     1
8
20
48
7.0
100
AcDbMText
10
5755.8090730557
20
555.0772904609
30
0.0
40
21.0
41
0.0
71
     1
72
     1
1
A1
7
SLDTEXTSTYLE15
73
     1
44
1.0
0
MTEXT
5
518
330
1B
100
AcDbEntity
67
     1
8
20
48
7.0
100
AcDbMText
10
4977.8613064539
20
358.4381183353
30
0.0
40
14.7
41
0.0
71
     2
72
     1
1
ISO 2768-mK
7
SLDTEXTSTYLE15
73
     1
44
1.0
0
MTEXT
5
519
330
1B
100
AcDbEntity
67
     1
8
20
48
7.0
100
AcDbMText
10
4521.0612983432
20
544.4223733213
30
0.0
40
14.7
41
0.0
71
     1
72
     1
1
Customer:
7
SLDTEXTSTYLE15
73
     1
44
1.0
0
MTEXT
5
51A
330
1B
100
AcDbEntity
67
     1
8
20
48
7.0
100
AcDbMText
10
4790.7365140715
20
358.4381183353
30
0.0
40
14.7
41
0.0
71
     2
72
     1
1
ISO 13715
7
SLDTEXTSTYLE15
73
     1
44
1.0
0
MTEXT
5
521
330
1B
100
AcDbEntity
67
     1
8
20
48
7.0
100
AcDbMText
10
5210.6423590538
20
512.6320857033
30
0.0
40
14.7
41
0.0
71
     1
72
     1
1
Werkstoff/Material
7
SLDTEXTSTYLE15
73
     1
44
1.0
0
MTEXT
5
522
330
1B
100
AcDbEntity
67
     1
8
20
48
7.0
100
AcDbMText
10
5211.5681633629
20
331.0759904786
30
0.0
40
14.7
41
0.0
71
     1
72
     1
1
Description
7
SLDTEXTSTYLE15
73
     1
44
1.0
0
MTEXT
5
523
330
1B
100
AcDbEntity
67
     1
8
20
48
7.0
100
AcDbMText
10
5210.6423590538
20
403.2421884081
30
0.0
40
14.7
41
0.0
71
     1
72
     1
1
Beschreibung
7
SLDTEXTSTYLE15
73
     1
44
1.0
0
MTEXT
5
524
330
1B
100
AcDbEntity
67
     1
8
TEXT
48
7.0
100
AcDbMText
10
5210.6423590538
20
377.3516858502
30
0.0
40
24.5
41
0.0
71
     1
72
     1
1
Grundrahmen
7
SLDTEXTSTYLE18
73
     1
44
1.0
0
MTEXT
5
525
330
1B
100
AcDbEntity
67
     1
8
20
48
7.0
100
AcDbMText
10
5210.6423590538
20
443.1318095994
30
0.0
40
14.7
41
0.0
71
     1
72
     1
1
Maßstab/Scale
7
SLDTEXTSTYLE15
73
     1
44
1.0
0
MTEXT
5
52C
330
1B
100
AcDbEntity
67
     1
8
20
48
7.0
100
AcDbMText
10
5759.0497367049
20
117.8600455799
30
0.0
40
14.7
41
0.0
71
     1
72
     1
1
Bl./Sh.
7
SLDTEXTSTYLE15
73
     1
44
1.0
0
MTEXT
5
52D
330
1B
100
AcDbEntity
67
     1
8
20
48
7.0
100
AcDbMText
10
5729.604134834
20
186.8613195618
30
0.0
40
12.6
41
0.0
71
     1
72
     1
1
Blatt/Sheet
7
SLDTEXTSTYLE15
73
     1
44
1.0
0
MTEXT
5
52E
330
1B
100
AcDbEntity
67
     1
8
20
48
7.0
100
AcDbMText
10
4893.8516845377
20
272.0867955994
30
0.0
40
14.7
41
0.0
71
     1
72
     1
1
geneh.
7
SLDTEXTSTYLE15
73
     1
44
1.0
0
MTEXT
5
52F
330
1B
100
AcDbEntity
67
     1
8
20
48
7.0
100
AcDbMText
10
4893.8516845377
20
301.8367955994
30
0.0
40
14.7
41
0.0
71
     1
72
     1
1
erstel.
7
SLDTEXTSTYLE15
73
     1
44
1.0
0
MTEXT
5
530
330
1B
100
AcDbEntity
67
     1
8
20
48
7.0
100
AcDbMText
10
5016.2367391015
20
331.0986459384
30
0.0
40
14.7
41
0.0
71
     2
72
     1
1
Datum/Date
7
SLDTEXTSTYLE15
73
     1
44
1.0
0
MTEXT
5
531
330
1B
100
AcDbEntity
67
     1
8
20
48
7.0
100
AcDbMText
10
5139.7865522129
20
449.4887584103
30
0.0
40
14.7
41
0.0
71
     2
72
     1
1
Oberfläche
7
SLDTEXTSTYLE15
73
     1
44
1.0
0
MTEXT
5
532
330
1B
100
AcDbEntity
67
     1
8
20
48
7.0
100
AcDbMText
10
5137.2743698329
20
431.0577052625
30
0.0
40
14.7
41
0.0
71
     2
72
     1
1
Surfaces
7
SLDTEXTSTYLE15
73
     1
44
1.0
0
MTEXT
5
53F
330
1B
100
AcDbEntity
67
     1
8
20
48
7.0
100
AcDbMText
10
4790.7569307083
20
431.8998195994
30
0.0
40
14.7
41
0.0
71
     2
72
     1
1
Workpeace egdes
7
SLDTEXTSTYLE15
73
     1
44
1.0
0
MTEXT
5
540
330
1B
100
AcDbEntity
67
     1
8
20
48
7.0
100
AcDbMText
10
4787.1840153176
20
450.0452056041
30
0.0
40
14.7
41
0.0
71
     2
72
     1
1
Werkstückkanten
7
SLDTEXTSTYLE15
73
     1
44
1.0
0
MTEXT
5
541
330
1B
100
AcDbEntity
67
     1
8
20
48
7.0
100
AcDbMText
10
4700.5388651881
20
89.7458918736
30
0.0
40
11.2
41
0.0
71
     1
72
     1
1
Datum/Date
7
SLDTEXTSTYLE15
73
     1
44
1.0
0
MTEXT
5
542
330
1B
100
AcDbEntity
67
     1
8
20
48
7.0
100
AcDbMText
10
4568.200042
20
90.0958915659
30
0.0
40
11.2
41
0.0
71
     1
72
     1
1
Änd.Nr./Mod.no.
7
SLDTEXTSTYLE15
73
     1
44
1.0
0
MTEXT
5
543
330
1B
100
AcDbEntity
67
     1
8
20
48
7.0
100
AcDbMText
10
4511.3302417372
20
90.0958915659
30
0.0
40
11.2
41
0.0
71
     1
72
     1
1
Index
7
SLDTEXTSTYLE15
73
     1
44
1.0
0
MTEXT
5
544
330
1B
100
AcDbEntity
67
     1
8
TEXT
48
7.0
100
AcDbMText
10
5302.7109119685
20
132.9363258103
30
0.0
40
24.5
41
0.0
71
     1
72
     1
1
1006942
7
SLDTEXTSTYLE19
73
     1
44
1.0
0
MTEXT
5
545
330
1B
100
AcDbEntity
67
     1
8
20
48
7.0
100
AcDbMText
10
4517.9646775816
20
509.8735862502
30
0.0
40
14.7
41
0.0
71
     1
72
     1
1
A-Nr.
7
SLDTEXTSTYLE15
73
     1
44
1.0
0
MTEXT
5
547
330
1B
100
AcDbEntity
67
     1
8
TEXT
48
7.0
100
AcDbMText
10
5731.4608284222
20
220.2923000316
30
0.0
40
21.0
41
0.0
71
     2
72
     1
1
0
7
SLDTEXTSTYLE21
73
     1
44
1.0
0
MTEXT
5
548
330
1B
100
AcDbEntity
67
     1
8
20
48
7.0
100
AcDbMText
10
4517.9646775816
20
478.2277518042
30
0.0
40
14.7
41
0.0
71
     1
72
     1
1
Item No.
7
SLDTEXTSTYLE15
73
     1
44
1.0
0
MTEXT
5
549
330
1B
100
AcDbEntity
67
     1
8
20
48
7.0
100
AcDbMText
10
5209.4499945386
20
123.1617955994
30
0.0
40
14.7
41
0.0
71
     1
72
     1
1
Item No.
7
SLDTEXTSTYLE15
73
     1
44
1.0
0
MTEXT
5
54A
330
1B
100
AcDbEntity
67
     1
8
20
48
7.0
100
AcDbMText
10
5208.8389816199
20
187.7768354936
30
0.0
40
14.7
41
0.0
71
     1
72
     1
1
Z-Nr.
7
SLDTEXTSTYLE15
73
     1
44
1.0
0
MTEXT
5
54B
330
1B
100
AcDbEntity
67
     1
8
TEXT
48
7.0
100
AcDbMText
10
5705.3652043288
20
123.1391401395
30
0.0
40
14.7
41
0.0
71
     2
72
     1
1
en
7
SLDTEXTSTYLE19
73
     1
44
1.0
0
MTEXT
5
54C
330
1B
100
AcDbEntity
67
     1
8
20
48
7.0
100
AcDbMText
10
5692.4096566146
20
145.1041465194
30
0.0
40
14.7
41
0.0
71
     1
72
     1
1
SP
7
SLDTEXTSTYLE15
73
     1
44
1.0
0
MTEXT
5
54D
330
1B
100
AcDbEntity
67
     1
8
TEXT
48
7.0
100
AcDbMText
10
4977.0
20
301.8367955994
30
0.0
40
14.7
41
0.0
71
     1
72
     1
1
23.07.2026
7
SLDTEXTSTYLE20
73
     1
44
1.0
0
MTEXT
5
555
330
1B
100
AcDbEntity
67
     1
8
0
6
Continuous
62
     7
48
7.0
370
     0
100
AcDbMText
10
4927.7826976795
20
495.7880892081
30
0.0
40
17.5
41
0.0
71
     1
72
     1
1
Size ISO 14405
7
SLDTEXTSTYLE22
73
     1
44
1.0
0
ENDSEC
0
EOF
