0
SECTION
2
ENTITIES
0
ATTDEF
5
B3
330
7E
100
AcDbEntity
8
FORMAT
62
     7
100
AcDbText
10
2171.1053852567
20
324.0003581303
30
0.0
40
7.0
1
6061-T6 
41
0.75
7
SLDTEXTSTYLE0
11
2171.1053852567
21
320.3794835727
31
0.0
100
AcDbAttributeDefinition
3

2
AUTOATTR0
70
     0
74
     1
0
MTEXT
5
89
330
85
100
AcDbEntity
8
SLD-0
62
     0
100
AcDbMText
10
0.0
20
6.4453386989
30
0.0
40
5.0
41
0.0
71
     1
72
     1
1
\LTOLERANCES:
7
SLDTEXTSTYLE0
73
     1
44
1.0
0
MTEXT
5
8A
330
85
100
AcDbEntity
8
SLD-0
62
     0
100
AcDbMText
10
-7.3333328217
20
-7.5546617333
30
0.0
40
5.0
41
0.0
71
     1
72
     1
1
X.X
7
SLDTEXTSTYLE0
73
     1
44
1.0
0
MTEXT
5
8B
330
85
100
AcDbEntity
8
SLD-0
62
     0
100
AcDbMText
10
24.7499998659
20
-7.5546617333
30
0.0
40
5.0
41
0.0
71
     1
72
     1
1
%%p
7
SLDTEXTSTYLE0
73
     1
44
1.0
0
MTEXT
5
8C
330
85
100
AcDbEntity
8
SLD-0
62
     0
100
AcDbMText
10
33.2625003904
20
-7.5546617333
30
0.0
40
5.0
41
0.0
71
     1
72
     1
1
0.2
7
SLDTEXTSTYLE0
73
     1
44
1.0
0
MTEXT
5
8D
330
85
100
AcDbEntity
8
SLD-0
62
     0
100
AcDbMText
10
-7.3333328217
20
-14.5546619493
30
0.0
40
5.0
41
0.0
71
     1
72
     1
1
X.XX
7
SLDTEXTSTYLE0
73
     1
44
1.0
0
MTEXT
5
8E
330
85
100
AcDbEntity
8
SLD-0
62
     0
100
AcDbMText
10
25.1180548221
20
-14.5546619493
30
0.0
40
5.0
41
0.0
71
     1
72
     1
1
%%p
7
SLDTEXTSTYLE0
73
     1
44
1.0
0
MTEXT
5
8F
330
85
100
AcDbEntity
8
SLD-0
62
     0
100
AcDbMText
10
33.6305553466
20
-14.5546619493
30
0.0
40
5.0
41
0.0
71
     1
72
     1
1
0.10
7
SLDTEXTSTYLE0
73
     1
44
1.0
0
MTEXT
5
90
330
85
100
AcDbEntity
8
SLD-0
62
     0
100
AcDbMText
10
-7.3333328217
20
-21.5546621654
30
0.0
40
5.0
41
0.0
71
     1
72
     1
1
X.XXX
7
SLDTEXTSTYLE0
73
     1
44
1.0
0
MTEXT
5
91
330
85
100
AcDbEntity
8
SLD-0
62
     0
100
AcDbMText
10
25.4861097783
20
-21.5546621654
30
0.0
40
5.0
41
0.0
71
     1
72
     1
1
%%p
7
SLDTEXTSTYLE0
73
     1
44
1.0
0
MTEXT
5
92
330
85
100
AcDbEntity
8
SLD-0
62
     0
100
AcDbMText
10
33.9986103028
20
-21.5546621654
30
0.0
40
5.0
41
0.0
71
     1
72
     1
1
0.010
7
SLDTEXTSTYLE0
73
     1
44
1.0
0
MTEXT
5
93
330
85
100
AcDbEntity
8
SLD-0
62
     0
100
AcDbMText
10
-7.3333328217
20
-28.5546623815
30
0.0
40
5.0
41
0.0
71
     1
72
     1
1
ANGLES
7
SLDTEXTSTYLE0
73
     1
44
1.0
0
MTEXT
5
94
330
85
100
AcDbEntity
8
SLD-0
62
     0
100
AcDbMText
10
25.6458315998
20
-28.5546623815
30
0.0
40
5.0
41
0.0
71
     1
72
     1
1
%%p
7
SLDTEXTSTYLE0
73
     1
44
1.0
0
MTEXT
5
95
330
85
100
AcDbEntity
8
SLD-0
62
     0
100
AcDbMText
10
32.2833321244
20
-28.5546623815
30
0.0
40
5.0
41
0.0
71
     1
72
     1
1
0
7
SLDTEXTSTYLE0
73
     1
44
1.0
0
MTEXT
5
96
330
85
100
AcDbEntity
8
SLD-0
62
     0
100
AcDbMText
10
35.9499994665
20
-28.5546623815
30
0.0
40
5.0
41
0.0
71
     1
72
     1
1
%%d
7
SLDTEXTSTYLE0
73
     1
44
1.0
0
MTEXT
5
97
330
85
100
AcDbEntity
8
SLD-0
62
     0
100
AcDbMText
10
41.000001058
20
-28.5546623815
30
0.0
40
5.0
41
0.0
71
     1
72
     1
1
30'
7
SLDTEXTSTYLE0
73
     1
44
1.0
0
MTEXT
5
9C
330
99
100
AcDbEntity
8
FORMAT
62
     0
100
AcDbMText
10
44.1875
20
9.0234741784
30
0.0
40
7.0
41
0.0
71
     3
72
     1
1
MATERIAL:
7
SLDTEXTSTYLE0
73
     1
44
1.0
0
MTEXT
5
9D
330
99
100
AcDbEntity
8
FORMAT
62
     0
100
AcDbMText
10
44.4743080437
20
-0.0279148825
30
0.0
40
7.0
41
0.0
71
     3
72
     1
1
HEAT TREAT:
7
SLDTEXTSTYLE0
73
     1
44
1.0
0
MTEXT
5
9E
330
99
100
AcDbEntity
8
FORMAT
62
     0
100
AcDbMText
10
46.0930571109
20
-18.1306930043
30
0.0
40
7.0
41
0.0
71
     3
72
     1
1
FINISH:
7
SLDTEXTSTYLE0
73
     1
44
1.0
0
MTEXT
5
A7
330
A0
100
AcDbEntity
8
SLD-0
62
     0
100
AcDbMText
10
0.0
20
9.0234741784
30
0.0
40
7.0
41
0.0
71
     1
72
     1
1
NOTES:
7
SLDTEXTSTYLE0
73
     1
44
1.0
0
MTEXT
5
A9
330
A0
100
AcDbEntity
8
SLD-0
62
     0
100
AcDbMText
10
19.999999553
20
-9.0793039434
30
0.0
40
7.0
41
0.0
71
     1
72
     1
1
BREAK AL SHARP CORNERS 0.2  x 45
7
SLDTEXTSTYLE1
73
     1
44
1.0
0
MTEXT
5
AA
330
A0
100
AcDbEntity
8
SLD-0
62
     0
100
AcDbMText
10
178.2194413245
20
-9.0793039434
30
0.0
40
7.0
41
0.0
71
     1
72
     1
1
%%d
7
SLDTEXTSTYLE0
73
     1
44
1.0
0
MTEXT
5
AB
330
A0
100
AcDbEntity
8
SLD-0
62
     0
100
AcDbMText
10
0.0
20
-9.0793039434
30
0.0
40
7.0
41
0.0
71
     1
72
     1
1
1.
7
SLDTEXTSTYLE0
73
     1
44
1.0
0
MTEXT
5
AC
330
A0
100
AcDbEntity
8
SLD-0
62
     0
100
AcDbMText
10
19.999999553
20
-18.1306930043
30
0.0
40
7.0
41
0.0
71
     1
72
     1
1
ALL HOLES AND MACHINED SURFACES FREE OF PAINT
7
SLDTEXTSTYLE0
73
     1
44
1.0
0
MTEXT
5
AD
330
A0
100
AcDbEntity
8
SLD-0
62
     0
100
AcDbMText
10
0.0
20
-18.1306930043
30
0.0
40
7.0
41
0.0
71
     1
72
     1
1
2.
7
SLDTEXTSTYLE0
73
     1
44
1.0
0
MTEXT
5
AE
330
A0
100
AcDbEntity
8
SLD-0
62
     0
100
AcDbMText
10
19.999999553
20
-42.4945832946
30
0.0
40
7.0
41
0.0
71
     1
72
     1
1
ALL
7
SLDTEXTSTYLE0
73
     1
44
1.0
0
MTEXT
5
AF
330
A0
100
AcDbEntity
8
SLD-0
62
     0
100
AcDbMText
10
73.3221106827
20
-42.4945832946
30
0.0
40
7.0
41
0.0
71
     1
72
     1
1
=
7
SLDTEXTSTYLE0
73
     1
44
1.0
0
MTEXT
5
B0
330
A0
100
AcDbEntity
8
SLD-0
62
     0
100
AcDbMText
10
92.4943306267
20
-29.943194799
30
0.0
40
7.0
41
0.0
71
     1
72
     1
1
6.3
7
SLDTEXTSTYLE0
73
     1
44
1.0
0
MTEXT
5
B1
330
A0
100
AcDbEntity
8
SLD-0
62
     0
100
AcDbMText
10
0.0
20
-42.4945832946
30
0.0
40
7.0
41
0.0
71
     1
72
     1
1
3.
7
SLDTEXTSTYLE0
73
     1
44
1.0
0
MTEXT
5
4CB
330
4C8
100
AcDbEntity
8
20
62
     0
100
AcDbMText
10
0.0
20
5.414084507
30
0.0
40
4.2
41
0.0
71
     1
72
     1
1
Schutzvermerk nach ISO 16016 beachten
7
SLDTEXTSTYLE8
73
     1
44
1.0
0
MTEXT
5
4CC
330
4C8
100
AcDbEntity
8
20
62
     0
100
AcDbMText
10
0.0
20
-0.0109155906
30
0.0
40
4.2
41
0.0
71
     1
72
     1
1
Follow protection notice to ISO 16016
7
SLDTEXTSTYLE8
73
     1
44
1.0
0
MTEXT
5
4D6
330
4D3
100
AcDbEntity
8
20
62
     0
100
AcDbMText
10
0.0
20
5.414084507
30
0.0
40
4.2
41
0.0
71
     1
72
     1
1
Gewicht (kg)
7
SLDTEXTSTYLE8
73
     1
44
1.0
0
MTEXT
5
4D7
330
4D3
100
AcDbEntity
8
20
62
     0
100
AcDbMText
10
0.0
20
-0.0109155906
30
0.0
40
4.2
41
0.0
71
     1
72
     1
1
Weight
7
SLDTEXTSTYLE8
73
     1
44
1.0
0
MTEXT
5
4E3
330
4E0
100
AcDbEntity
8
20
62
     0
100
AcDbMText
10
9.7617152637
20
5.414084507
30
0.0
40
4.2
41
0.0
71
     2
72
     1
1
General
7
SLDTEXTSTYLE8
73
     1
44
1.0
0
MTEXT
5
4E4
330
4E0
100
AcDbEntity
8
20
62
     0
100
AcDbMText
10
9.802911592
20
-0.0109155906
30
0.0
40
4.2
41
0.0
71
     2
72
     1
1
tolerances
7
SLDTEXTSTYLE8
73
     1
44
1.0
0
MTEXT
5
4E9
330
4E6
100
AcDbEntity
8
20
62
     0
100
AcDbMText
10
13.0794224121
20
5.414084507
30
0.0
40
4.2
41
0.0
71
     2
72
     1
1
Allgemein-
7
SLDTEXTSTYLE8
73
     1
44
1.0
0
MTEXT
5
4EA
330
4E6
100
AcDbEntity
8
20
62
     0
100
AcDbMText
10
12.9357774614
20
-0.0109155906
30
0.0
40
4.2
41
0.0
71
     2
72
     1
1
Toleranzen
7
SLDTEXTSTYLE8
73
     1
44
1.0
0
MTEXT
5
502
330
4FD
100
AcDbEntity
8
0
6
Continuous
62
     0
370
     0
100
AcDbMText
10
0.0
20
6.4453386989
30
0.0
40
5.0
41
0.0
71
     1
72
     1
1
E
7
SLDTEXTSTYLE10
73
     1
44
1.0
0
MTEXT
5
51E
330
518
100
AcDbEntity
8
SLD-0
100
AcDbMText
10
175.3076100343
20
263.9889411513
30
0.0
40
6.35
41
0.0
71
     1
72
     1
1
0
7
SLDTEXTSTYLE0
11
-3.491481338843133E-15
21
1.0
31
0.0
73
     1
44
1.0
0
MTEXT
5
527
330
521
100
AcDbEntity
8
SLD-0
100
AcDbMText
10
185.4890415904
20
247.5671360154
30
0.0
40
6.35
41
0.0
71
     1
72
     1
1
10.00
7
SLDTEXTSTYLE0
11
-3.491481338843133E-15
21
1.0
31
0.0
73
     1
44
1.0
0
MTEXT
5
52D
330
529
100
AcDbEntity
8
SLD-0
100
AcDbMText
10
211.3076100343
20
247.5671360154
30
0.0
40
6.35
41
0.0
71
     1
72
     1
1
36.00
7
SLDTEXTSTYLE0
11
-3.491481338843133E-15
21
1.0
31
0.0
73
     1
44
1.0
0
MTEXT
5
533
330
52F
100
AcDbEntity
8
SLD-0
100
AcDbMText
10
352.8076100343
20
242.8751924891
30
0.0
40
6.35
41
0.0
71
     1
72
     1
1
177.50
7
SLDTEXTSTYLE0
11
-3.491481338843133E-15
21
1.0
31
0.0
73
     1
44
1.0
0
MTEXT
5
539
330
535
100
AcDbEntity
8
SLD-0
100
AcDbMText
10
397.8076100343
20
242.8751924891
30
0.0
40
6.35
41
0.0
71
     1
72
     1
1
222.50
7
SLDTEXTSTYLE0
11
-3.491481338843133E-15
21
1.0
31
0.0
73
     1
44
1.0
0
MTEXT
5
53F
330
53B
100
AcDbEntity
8
SLD-0
100
AcDbMText
10
539.3076100343
20
242.8751924891
30
0.0
40
6.35
41
0.0
71
     1
72
     1
1
364.00
7
SLDTEXTSTYLE0
11
-3.491481338843133E-15
21
1.0
31
0.0
73
     1
44
1.0
0
MTEXT
5
547
330
541
100
AcDbEntity
8
SLD-0
100
AcDbMText
10
565.1261784782
20
242.8751924891
30
0.0
40
6.35
41
0.0
71
     1
72
     1
1
390.00
7
SLDTEXTSTYLE0
11
-3.491481338843133E-15
21
1.0
31
0.0
73
     1
44
1.0
0
MTEXT
5
54E
330
54A
100
AcDbEntity
8
SLD-0
100
AcDbMText
10
575.3076100343
20
247.5671360154
30
0.0
40
6.35
41
0.0
71
     1
72
     1
1
400.0
7
SLDTEXTSTYLE0
11
-3.491481338843133E-15
21
1.0
31
0.0
73
     1
44
1.0
0
MTEXT
5
554
330
550
100
AcDbEntity
8
SLD-0
100
AcDbMText
10
155.7782769446
20
290.3953050949
30
0.0
40
6.35
41
0.0
71
     1
72
     1
1
0
7
SLDTEXTSTYLE0
73
     1
44
1.0
0
MTEXT
5
55B
330
557
100
AcDbEntity
8
SLD-0
100
AcDbMText
10
144.048415335
20
315.7953050949
30
0.0
40
6.35
41
0.0
71
     1
72
     1
1
25.4
7
SLDTEXTSTYLE0
73
     1
44
1.0
0
MTEXT
5
568
330
55E
100
AcDbEntity
8
SLD-0
100
AcDbMText
10
102.3721324523
20
341.1953050949
30
0.0
40
6.35
41
0.0
71
     1
72
     1
1
50.8
7
SLDTEXTSTYLE0
73
     1
44
1.0
0
MTEXT
5
569
330
55E
100
AcDbEntity
8
SLD-0
100
AcDbMText
10
122.66346973
20
341.1953050949
30
0.0
40
6.35
41
0.0
71
     1
72
     1
1
2.00
7
SLDTEXTSTYLE0
73
     1
44
1.0
0
MTEXT
5
56A
330
55E
100
AcDbEntity
8
SLD-0
100
AcDbMText
10
145.3360542138
20
341.1953050949
30
0.0
40
6.35
41
0.0
71
     1
72
     1
1
STK.
7
SLDTEXTSTYLE0
73
     1
44
1.0
0
MTEXT
5
573
330
56D
100
AcDbEntity
8
SLD-0
100
AcDbMText
10
211.4399512217
20
379.2404311158
30
0.0
40
6.35
41
0.0
71
     1
72
     1
1
2X
7
SLDTEXTSTYLE0
73
     1
44
1.0
0
MTEXT
5
574
330
56D
100
AcDbEntity
8
SLD-0
100
AcDbMText
10
223.6372427002
20
379.1434172222
30
0.0
40
6.35
41
0.0
71
     1
72
     1
1
%%c
7
SLDTEXTSTYLE0
73
     1
44
1.0
0
MTEXT
5
575
330
56D
100
AcDbEntity
8
SLD-0
100
AcDbMText
10
235.5950871573
20
379.2404311158
30
0.0
40
6.35
41
0.0
71
     1
72
     1
1
6.6 THRU ALL
7
SLDTEXTSTYLE0
73
     1
44
1.0
0
MTEXT
5
57D
330
577
100
AcDbEntity
8
SLD-0
100
AcDbMText
10
386.273979728
20
384.2807433016
30
0.0
40
6.35
41
0.0
71
     1
72
     1
1
4X
7
SLDTEXTSTYLE0
73
     1
44
1.0
0
MTEXT
5
57E
330
577
100
AcDbEntity
8
SLD-0
100
AcDbMText
10
398.4712712065
20
384.1837294081
30
0.0
40
6.35
41
0.0
71
     1
72
     1
1
%%c
7
SLDTEXTSTYLE0
73
     1
44
1.0
0
MTEXT
5
57F
330
577
100
AcDbEntity
8
SLD-0
100
AcDbMText
10
410.4291156636
20
384.2807433016
30
0.0
40
6.35
41
0.0
71
     1
72
     1
1
4.2 THRU ALL
7
SLDTEXTSTYLE0
73
     1
44
1.0
0
MTEXT
5
581
330
577
100
AcDbEntity
8
SLD-0
100
AcDbMText
10
380.5274512217
20
374.1031049199
30
0.0
40
6.35
41
0.0
71
     1
72
     1
1
M5X0.8 - 6H THRU ALL
7
SLDTEXTSTYLE11
73
     1
44
1.0
0
MTEXT
5
588
330
582
100
AcDbEntity
8
SLD-0
62
     0
100
AcDbMText
10
0.0
20
8.1855801476
30
0.0
40
6.35
41
0.0
71
     1
72
     1
1
4X
7
SLDTEXTSTYLE0
73
     1
44
1.0
0
MTEXT
5
589
330
582
100
AcDbEntity
8
SLD-0
62
     0
100
AcDbMText
10
12.1972914785
20
8.1855801476
30
0.0
40
6.35
41
0.0
71
     1
72
     1
1
5.0
7
SLDTEXTSTYLE0
73
     1
44
1.0
0
MTEXT
5
58A
330
582
100
AcDbEntity
8
SLD-0
62
     0
100
AcDbMText
10
26.3084021568
20
8.1855801476
30
0.0
40
6.35
41
0.0
71
     1
72
     1
1
X
7
SLDTEXTSTYLE0
73
     1
44
1.0
0
MTEXT
5
58B
330
582
100
AcDbEntity
8
SLD-0
62
     0
100
AcDbMText
10
33.7784737349
20
8.1855801476
30
0.0
40
6.35
41
0.0
71
     1
72
     1
1
45°
7
SLDTEXTSTYLE0
73
     1
44
1.0
0
MTEXT
5
601
330
5F1
100
AcDbEntity
8
SLD-0
100
AcDbMText
10
103.8745617719
20
415.1152405192
30
0.0
40
6.35
41
0.0
71
     1
72
     1
1
9.5
7
SLDTEXTSTYLE0
73
     1
44
1.0
0
MTEXT
5
602
330
5F1
100
AcDbEntity
8
SLD-0
100
AcDbMText
10
119.4739536607
20
415.1152405192
30
0.0
40
6.35
41
0.0
71
     1
72
     1
1
0.38
7
SLDTEXTSTYLE0
73
     1
44
1.0
0
MTEXT
5
603
330
5F1
100
AcDbEntity
8
SLD-0
100
AcDbMText
10
142.1465400072
20
415.1152405192
30
0.0
40
6.35
41
0.0
71
     1
72
     1
1
STK.
7
SLDTEXTSTYLE0
73
     1
44
1.0
0
ATTRIB
5
48E
330
48D
100
AcDbEntity
67
     1
8
FORMAT
62
     7
100
AcDbText
10
298.6397198549
20
157.4712336962
30
0.0
40
7.0
1
6061-T6 
41
0.75
7
SLDTEXTSTYLE0
11
298.6397198549
21
153.8503591386
31
0.0
100
AcDbAttribute
2
AUTOATTR0
70
     0
74
     1
0
MTEXT
5
490
330
1B
100
AcDbEntity
67
     1
8
SLD-0
100
AcDbMText
10
245.9182054766
20
35.2979505021
30
0.0
40
7.0
41
0.0
71
     1
72
     1
1
APPROX. WEIGHT = 0.52 KG
7
SLDTEXTSTYLE0
73
     1
44
1.0
0
MTEXT
5
492
330
1B
100
AcDbEntity
67
     1
8
20
100
AcDbMText
10
39.162396
20
63.4870052858
30
0.0
40
5.0
41
0.0
71
     1
72
     1
1
F
7
SLDTEXTSTYLE2
73
     1
44
1.0
0
MTEXT
5
493
330
1B
100
AcDbEntity
67
     1
8
20
100
AcDbMText
10
39.162396
20
151.9870052858
30
0.0
40
5.0
41
0.0
71
     1
72
     1
1
E
7
SLDTEXTSTYLE2
73
     1
44
1.0
0
MTEXT
5
494
330
1B
100
AcDbEntity
67
     1
8
20
100
AcDbMText
10
72.2968706727
20
17.378139183
30
0.0
40
5.0
41
0.0
71
     1
72
     1
1
1
7
SLDTEXTSTYLE2
73
     1
44
1.0
0
MTEXT
5
495
330
1B
100
AcDbEntity
67
     1
8
20
100
AcDbMText
10
39.162396
20
251.9870052858
30
0.0
40
5.0
41
0.0
71
     1
72
     1
1
D
7
SLDTEXTSTYLE2
73
     1
44
1.0
0
MTEXT
5
496
330
1B
100
AcDbEntity
67
     1
8
20
100
AcDbMText
10
39.162396
20
451.9870052858
30
0.0
40
5.0
41
0.0
71
     1
72
     1
1
B
7
SLDTEXTSTYLE2
73
     1
44
1.0
0
MTEXT
5
497
330
1B
100
AcDbEntity
67
     1
8
20
100
AcDbMText
10
39.162396
20
351.9870052858
30
0.0
40
5.0
41
0.0
71
     1
72
     1
1
C
7
SLDTEXTSTYLE2
73
     1
44
1.0
0
MTEXT
5
498
330
1B
100
AcDbEntity
67
     1
8
20
100
AcDbMText
10
39.162396
20
555.8016567774
30
0.0
40
5.0
41
0.0
71
     1
72
     1
1
A
7
SLDTEXTSTYLE2
73
     1
44
1.0
0
MTEXT
5
499
330
1B
100
AcDbEntity
67
     1
8
20
100
AcDbMText
10
172.2968706727
20
17.378139183
30
0.0
40
5.0
41
0.0
71
     1
72
     1
1
2
7
SLDTEXTSTYLE2
73
     1
44
1.0
0
MTEXT
5
49A
330
1B
100
AcDbEntity
67
     1
8
20
100
AcDbMText
10
272.2968706727
20
17.378139183
30
0.0
40
5.0
41
0.0
71
     1
72
     1
1
3
7
SLDTEXTSTYLE2
73
     1
44
1.0
0
MTEXT
5
49B
330
1B
100
AcDbEntity
67
     1
8
20
100
AcDbMText
10
372.2968706727
20
17.378139183
30
0.0
40
5.0
41
0.0
71
     1
72
     1
1
4
7
SLDTEXTSTYLE2
73
     1
44
1.0
0
MTEXT
5
49C
330
1B
100
AcDbEntity
67
     1
8
20
100
AcDbMText
10
772.2968706727
20
17.378139183
30
0.0
40
5.0
41
0.0
71
     1
72
     1
1
8
7
SLDTEXTSTYLE2
73
     1
44
1.0
0
MTEXT
5
49D
330
1B
100
AcDbEntity
67
     1
8
20
100
AcDbMText
10
472.2968706727
20
17.378139183
30
0.0
40
5.0
41
0.0
71
     1
72
     1
1
5
7
SLDTEXTSTYLE2
73
     1
44
1.0
0
MTEXT
5
49E
330
1B
100
AcDbEntity
67
     1
8
20
100
AcDbMText
10
572.2968706727
20
17.378139183
30
0.0
40
5.0
41
0.0
71
     1
72
     1
1
6
7
SLDTEXTSTYLE2
73
     1
44
1.0
0
MTEXT
5
49F
330
1B
100
AcDbEntity
67
     1
8
20
100
AcDbMText
10
672.2968706727
20
17.378139183
30
0.0
40
5.0
41
0.0
71
     1
72
     1
1
7
7
SLDTEXTSTYLE2
73
     1
44
1.0
0
MTEXT
5
4A0
330
1B
100
AcDbEntity
67
     1
8
20
100
AcDbMText
10
172.2968706727
20
581.378139183
30
0.0
40
5.0
41
0.0
71
     1
72
     1
1
2
7
SLDTEXTSTYLE2
73
     1
44
1.0
0
MTEXT
5
4A1
330
1B
100
AcDbEntity
67
     1
8
20
100
AcDbMText
10
672.2968706727
20
581.378139183
30
0.0
40
5.0
41
0.0
71
     1
72
     1
1
7
7
SLDTEXTSTYLE2
73
     1
44
1.0
0
MTEXT
5
4A2
330
1B
100
AcDbEntity
67
     1
8
20
100
AcDbMText
10
472.2968706727
20
581.378139183
30
0.0
40
5.0
41
0.0
71
     1
72
     1
1
5
7
SLDTEXTSTYLE2
73
     1
44
1.0
0
MTEXT
5
4A3
330
1B
100
AcDbEntity
67
     1
8
20
100
AcDbMText
10
772.2968706727
20
581.378139183
30
0.0
40
5.0
41
0.0
71
     1
72
     1
1
8
7
SLDTEXTSTYLE2
73
     1
44
1.0
0
MTEXT
5
4A4
330
1B
100
AcDbEntity
67
     1
8
20
100
AcDbMText
10
572.2968706727
20
581.378139183
30
0.0
40
5.0
41
0.0
71
     1
72
     1
1
6
7
SLDTEXTSTYLE2
73
     1
44
1.0
0
MTEXT
5
4A5
330
1B
100
AcDbEntity
67
     1
8
20
100
AcDbMText
10
72.2968706727
20
581.378139183
30
0.0
40
5.0
41
0.0
71
     1
72
     1
1
1
7
SLDTEXTSTYLE2
73
     1
44
1.0
0
MTEXT
5
4A6
330
1B
100
AcDbEntity
67
     1
8
20
100
AcDbMText
10
372.2968706727
20
581.378139183
30
0.0
40
5.0
41
0.0
71
     1
72
     1
1
4
7
SLDTEXTSTYLE2
73
     1
44
1.0
0
MTEXT
5
4A7
330
1B
100
AcDbEntity
67
     1
8
20
100
AcDbMText
10
272.2968706727
20
581.378139183
30
0.0
40
5.0
41
0.0
71
     1
72
     1
1
3
7
SLDTEXTSTYLE2
73
     1
44
1.0
0
MTEXT
5
4A8
330
1B
100
AcDbEntity
67
     1
8
20
100
AcDbMText
10
823.162396
20
63.4870052858
30
0.0
40
5.0
41
0.0
71
     1
72
     1
1
F
7
SLDTEXTSTYLE2
73
     1
44
1.0
0
MTEXT
5
4A9
330
1B
100
AcDbEntity
67
     1
8
20
100
AcDbMText
10
823.162396
20
351.9870052858
30
0.0
40
5.0
41
0.0
71
     1
72
     1
1
C
7
SLDTEXTSTYLE2
73
     1
44
1.0
0
MTEXT
5
4AA
330
1B
100
AcDbEntity
67
     1
8
20
100
AcDbMText
10
823.162396
20
151.9870052858
30
0.0
40
5.0
41
0.0
71
     1
72
     1
1
E
7
SLDTEXTSTYLE2
73
     1
44
1.0
0
MTEXT
5
4AB
330
1B
100
AcDbEntity
67
     1
8
20
100
AcDbMText
10
823.162396
20
451.9870052858
30
0.0
40
5.0
41
0.0
71
     1
72
     1
1
B
7
SLDTEXTSTYLE2
73
     1
44
1.0
0
MTEXT
5
4AC
330
1B
100
AcDbEntity
67
     1
8
20
100
AcDbMText
10
823.162396
20
251.9870052858
30
0.0
40
5.0
41
0.0
71
     1
72
     1
1
D
7
SLDTEXTSTYLE2
73
     1
44
1.0
0
MTEXT
5
4AD
330
1B
100
AcDbEntity
67
     1
8
20
100
AcDbMText
10
823.162396
20
555.8016567774
30
0.0
40
5.0
41
0.0
71
     1
72
     1
1
A
7
SLDTEXTSTYLE2
73
     1
44
1.0
0
MTEXT
5
4AF
330
1B
100
AcDbEntity
67
     1
8
20
100
AcDbMText
10
797.6904214281
20
35.4691596708
30
0.0
40
6.0
41
0.0
71
     2
72
     1
1
1
7
SLDTEXTSTYLE3
73
     1
44
1.0
0
MTEXT
5
4B0
330
1B
100
AcDbEntity
67
     1
8
20
100
AcDbMText
10
806.9188437085
20
45.3944740589
30
0.0
40
6.0
41
0.0
71
     2
72
     1
1
1
7
SLDTEXTSTYLE3
73
     1
44
1.0
0
MTEXT
5
4B2
330
1B
100
AcDbEntity
67
     1
8
TEXT
100
AcDbMText
10
646.7549597297
20
139.8595411994
30
0.0
40
7.0
41
0.0
71
     1
72
     1
1
AL
7
SLDTEXTSTYLE4
73
     1
44
1.0
0
MTEXT
5
4B4
330
1B
100
AcDbEntity
67
     1
8
TEXT
100
AcDbMText
10
646.7549597297
20
86.2318070085
30
0.0
40
7.0
41
0.0
71
     1
72
     1
1
plate
7
SLDTEXTSTYLE5
73
     1
44
1.0
0
MTEXT
5
4B6
330
1B
100
AcDbEntity
67
     1
8
TEXT
100
AcDbMText
10
673.199996
20
51.6068070085
30
0.0
40
7.0
41
0.0
71
     1
72
     1
1
314-092-60082-10
7
SLDTEXTSTYLE6
73
     1
44
1.0
0
MTEXT
5
4B8
330
1B
100
AcDbEntity
67
     1
8
TEXT
100
AcDbMText
10
623.7640256744
20
84.0666858542
30
0.0
40
3.0
41
0.0
71
     2
72
     1
1
Martini, Christopher
7
SLDTEXTSTYLE7
73
     1
44
1.0
0
MTEXT
5
4BA
330
1B
100
AcDbEntity
67
     1
8
20
100
AcDbMText
10
451.405926
20
123.399948457
30
0.0
40
4.2
41
0.0
71
     1
72
     1
1
CAD: SolidWorks
7
SLDTEXTSTYLE8
73
     1
44
1.0
0
MTEXT
5
4BB
330
1B
100
AcDbEntity
67
     1
8
20
100
AcDbMText
10
625.6884076515
20
108.4335184759
30
0.0
40
4.2
41
0.0
71
     2
72
     1
1
EN ISO
7
SLDTEXTSTYLE8
73
     1
44
1.0
0
MTEXT
5
4BC
330
1B
100
AcDbEntity
67
     1
8
20
100
AcDbMText
10
625.7678880767
20
102.4108909529
30
0.0
40
4.2
41
0.0
71
     2
72
     1
1
1302
7
SLDTEXTSTYLE8
73
     1
44
1.0
0
MTEXT
5
4BD
330
1B
100
AcDbEntity
67
     1
8
20
100
AcDbMText
10
559.800292
20
26.239084457
30
0.0
40
4.2
41
0.0
71
     1
72
     1
1
Urspr.
7
SLDTEXTSTYLE8
73
     1
44
1.0
0
MTEXT
5
4BE
330
1B
100
AcDbEntity
67
     1
8
20
100
AcDbMText
10
530.7760297855
20
25.6416833925
30
0.0
40
3.2
41
0.0
71
     1
72
     1
1
Name
7
SLDTEXTSTYLE8
73
     1
44
1.0
0
MTEXT
5
4BF
330
1B
100
AcDbEntity
67
     1
8
20
100
AcDbMText
10
617.9597612793
20
94.5996131253
30
0.0
40
4.2
41
0.0
71
     1
72
     1
1
Name
7
SLDTEXTSTYLE8
73
     1
44
1.0
0
MTEXT
5
4C0
330
1B
100
AcDbEntity
67
     1
8
20
100
AcDbMText
10
646.2397090343
20
47.8890840911
30
0.0
40
4.2
41
0.0
71
     1
72
     1
1
DRW No.
7
SLDTEXTSTYLE8
73
     1
44
1.0
0
MTEXT
5
4C1
330
1B
100
AcDbEntity
67
     1
8
20
100
AcDbMText
10
646.7549597297
20
40.839082457
30
0.0
40
4.2
41
0.0
71
     1
72
     1
1
Art-Nr.
7
SLDTEXTSTYLE8
73
     1
44
1.0
0
MTEXT
5
4C2
330
1B
100
AcDbEntity
67
     1
8
20
100
AcDbMText
10
790.6021988001
20
157.8930995469
30
0.0
40
4.2
41
0.0
71
     1
72
     1
1
U-F:
7
SLDTEXTSTYLE8
73
     1
44
1.0
0
MTEXT
5
4C3
330
1B
100
AcDbEntity
67
     1
8
20
100
AcDbMText
10
802.5168780159
20
158.5935115603
30
0.0
40
6.0
41
0.0
71
     1
72
     1
1
A3
7
SLDTEXTSTYLE8
73
     1
44
1.0
0
MTEXT
5
4C4
330
1B
100
AcDbEntity
67
     1
8
20
100
AcDbMText
10
580.2460875583
20
102.4108909529
30
0.0
40
4.2
41
0.0
71
     2
72
     1
1
ISO 2768-mK
7
SLDTEXTSTYLE8
73
     1
44
1.0
0
MTEXT
5
4C5
330
1B
100
AcDbEntity
67
     1
8
20
100
AcDbMText
10
449.7317995266
20
161.5492495204
30
0.0
40
4.2
41
0.0
71
     1
72
     1
1
Auftraggeber
7
SLDTEXTSTYLE8
73
     1
44
1.0
0
MTEXT
5
4C6
330
1B
100
AcDbEntity
67
     1
8
20
100
AcDbMText
10
449.7317995266
20
155.5492495204
30
0.0
40
4.2
41
0.0
71
     1
72
     1
1
Customer:
7
SLDTEXTSTYLE8
73
     1
44
1.0
0
MTEXT
5
4C7
330
1B
100
AcDbEntity
67
     1
8
20
100
AcDbMText
10
526.7818611633
20
102.4108909529
30
0.0
40
4.2
41
0.0
71
     2
72
     1
1
ISO 13715
7
SLDTEXTSTYLE8
73
     1
44
1.0
0
MTEXT
5
4CE
330
1B
100
AcDbEntity
67
     1
8
20
100
AcDbMText
10
646.7549597297
20
146.4663102009
30
0.0
40
4.2
41
0.0
71
     1
72
     1
1
Werkstoff/Material
7
SLDTEXTSTYLE8
73
     1
44
1.0
0
MTEXT
5
4CF
330
1B
100
AcDbEntity
67
     1
8
20
100
AcDbMText
10
647.0194752466
20
94.5931401367
30
0.0
40
4.2
41
0.0
71
     1
72
     1
1
Description
7
SLDTEXTSTYLE8
73
     1
44
1.0
0
MTEXT
5
4D0
330
1B
100
AcDbEntity
67
     1
8
20
100
AcDbMText
10
646.7549597297
20
115.2120538309
30
0.0
40
4.2
41
0.0
71
     1
72
     1
1
Beschreibung
7
SLDTEXTSTYLE8
73
     1
44
1.0
0
MTEXT
5
4D1
330
1B
100
AcDbEntity
67
     1
8
TEXT
100
AcDbMText
10
646.7549597297
20
107.8147673858
30
0.0
40
7.0
41
0.0
71
     1
72
     1
1
Platte
7
SLDTEXTSTYLE5
73
     1
44
1.0
0
MTEXT
5
4D2
330
1B
100
AcDbEntity
67
     1
8
20
100
AcDbMText
10
646.7549597297
20
126.609088457
30
0.0
40
4.2
41
0.0
71
     1
72
     1
1
Maßstab/Scale
7
SLDTEXTSTYLE8
73
     1
44
1.0
0
MTEXT
5
4D9
330
1B
100
AcDbEntity
67
     1
8
20
100
AcDbMText
10
803.4427819157
20
33.6742987371
30
0.0
40
4.2
41
0.0
71
     1
72
     1
1
Bl./Sh.
7
SLDTEXTSTYLE8
73
     1
44
1.0
0
MTEXT
5
4DA
330
1B
100
AcDbEntity
67
     1
8
20
100
AcDbMText
10
795.1985906034
20
53.127998906
30
0.0
40
3.6
41
0.0
71
     1
72
     1
1
Blatt/Sheet
7
SLDTEXTSTYLE8
73
     1
44
1.0
0
MTEXT
5
4DB
330
1B
100
AcDbEntity
67
     1
8
20
100
AcDbMText
10
556.2433384393
20
77.739084457
30
0.0
40
4.2
41
0.0
71
     1
72
     1
1
geneh.
7
SLDTEXTSTYLE8
73
     1
44
1.0
0
MTEXT
5
4DC
330
1B
100
AcDbEntity
67
     1
8
20
100
AcDbMText
10
556.2433384393
20
86.239084457
30
0.0
40
4.2
41
0.0
71
     1
72
     1
1
erstel.
7
SLDTEXTSTYLE8
73
     1
44
1.0
0
MTEXT
5
4DD
330
1B
100
AcDbEntity
67
     1
8
20
100
AcDbMText
10
576.0038845651
20
94.5996131253
30
0.0
40
4.2
41
0.0
71
     1
72
     1
1
Datum/Date
7
SLDTEXTSTYLE8
73
     1
44
1.0
0
MTEXT
5
4DE
330
1B
100
AcDbEntity
67
     1
8
20
100
AcDbMText
10
626.5104434894
20
128.4253595458
30
0.0
40
4.2
41
0.0
71
     2
72
     1
1
Oberfläche
7
SLDTEXTSTYLE8
73
     1
44
1.0
0
MTEXT
5
4DF
330
1B
100
AcDbEntity
67
     1
8
20
100
AcDbMText
10
625.7926770951
20
123.1593443607
30
0.0
40
4.2
41
0.0
71
     2
72
     1
1
Surfaces
7
SLDTEXTSTYLE8
73
     1
44
1.0
0
MTEXT
5
4EC
330
1B
100
AcDbEntity
67
     1
8
20
100
AcDbMText
10
526.7876944881
20
123.399948457
30
0.0
40
4.2
41
0.0
71
     2
72
     1
1
Workpeace egdes
7
SLDTEXTSTYLE8
73
     1
44
1.0
0
MTEXT
5
4ED
330
1B
100
AcDbEntity
67
     1
8
20
100
AcDbMText
10
525.7668615193
20
128.5843444583
30
0.0
40
4.2
41
0.0
71
     2
72
     1
1
Werkstückkanten
7
SLDTEXTSTYLE8
73
     1
44
1.0
0
MTEXT
5
4EE
330
1B
100
AcDbEntity
67
     1
8
20
100
AcDbMText
10
501.0111043394
20
25.6416833925
30
0.0
40
3.2
41
0.0
71
     1
72
     1
1
Datum/Date
7
SLDTEXTSTYLE8
73
     1
44
1.0
0
MTEXT
5
4EF
330
1B
100
AcDbEntity
67
     1
8
20
100
AcDbMText
10
463.200012
20
25.7416833045
30
0.0
40
3.2
41
0.0
71
     1
72
     1
1
Änd.Nr./Mod.no.
7
SLDTEXTSTYLE8
73
     1
44
1.0
0
MTEXT
5
4F0
330
1B
100
AcDbEntity
67
     1
8
20
100
AcDbMText
10
446.9514976392
20
25.7416833045
30
0.0
40
3.2
41
0.0
71
     1
72
     1
1
Index
7
SLDTEXTSTYLE8
73
     1
44
1.0
0
MTEXT
5
4F1
330
1B
100
AcDbEntity
67
     1
8
TEXT
100
AcDbMText
10
672.9258293606
20
37.9818073744
30
0.0
40
7.0
41
0.0
71
     1
72
     1
1
1011770
7
SLDTEXTSTYLE6
73
     1
44
1.0
0
MTEXT
5
4F2
330
1B
100
AcDbEntity
67
     1
8
20
100
AcDbMText
10
448.8470507376
20
145.6781675001
30
0.0
40
4.2
41
0.0
71
     1
72
     1
1
A-Nr.
7
SLDTEXTSTYLE8
73
     1
44
1.0
0
MTEXT
5
4F3
330
1B
100
AcDbEntity
67
     1
8
20
100
AcDbMText
10
472.2659251747
20
155.5492495204
30
0.0
40
4.2
41
0.0
71
     1
72
     1
1
.
7
SLDTEXTSTYLE8
73
     1
44
1.0
0
MTEXT
5
4F5
330
1B
100
AcDbEntity
67
     1
8
TEXT
100
AcDbMText
10
799.7864994539
20
62.2457771008
30
0.0
40
6.0
41
0.0
71
     2
72
     1
1
0
7
SLDTEXTSTYLE9
73
     1
44
1.0
0
MTEXT
5
4F6
330
1B
100
AcDbEntity
67
     1
8
20
100
AcDbMText
10
448.8470507376
20
136.6365005155
30
0.0
40
4.2
41
0.0
71
     1
72
     1
1
Item No.
7
SLDTEXTSTYLE8
73
     1
44
1.0
0
MTEXT
5
4F7
330
1B
100
AcDbEntity
67
     1
8
20
100
AcDbMText
10
646.4142841539
20
35.189084457
30
0.0
40
4.2
41
0.0
71
     1
72
     1
1
Item No.
7
SLDTEXTSTYLE8
73
     1
44
1.0
0
MTEXT
5
4F8
330
1B
100
AcDbEntity
67
     1
8
20
100
AcDbMText
10
646.2397090343
20
53.6505244267
30
0.0
40
4.2
41
0.0
71
     1
72
     1
1
Z-Nr.
7
SLDTEXTSTYLE8
73
     1
44
1.0
0
MTEXT
5
4F9
330
1B
100
AcDbEntity
67
     1
8
TEXT
100
AcDbMText
10
788.104344094
20
35.1826114684
30
0.0
40
4.2
41
0.0
71
     2
72
     1
1
en
7
SLDTEXTSTYLE6
73
     1
44
1.0
0
MTEXT
5
4FA
330
1B
100
AcDbEntity
67
     1
8
20
100
AcDbMText
10
784.4027590328
20
41.458327577
30
0.0
40
4.2
41
0.0
71
     1
72
     1
1
SP
7
SLDTEXTSTYLE8
73
     1
44
1.0
0
MTEXT
5
4FB
330
1B
100
AcDbEntity
67
     1
8
TEXT
100
AcDbMText
10
580.0
20
86.239084457
30
0.0
40
4.2
41
0.0
71
     1
72
     1
1
10.08.2026
7
SLDTEXTSTYLE7
73
     1
44
1.0
0
MTEXT
5
4FC
330
1B
100
AcDbEntity
67
     1
8
20
100
AcDbMText
10
100.8664930417
20
471.3296937337
30
0.0
40
4.2
41
0.0
71
     1
72
     1
1
.
7
SLDTEXTSTYLE8
73
     1
44
1.0
0
MTEXT
5
504
330
1B
100
AcDbEntity
67
     1
8
0
6
Continuous
62
     7
370
     0
100
AcDbMText
10
565.9379136227
20
141.6537397737
30
0.0
40
5.0
41
0.0
71
     1
72
     1
1
Size ISO 14405
7
SLDTEXTSTYLE10
73
     1
44
1.0
0
ENDSEC
0
EOF
