0
SECTION
2
ENTITIES
0
ATTDEF
5
B3
330
7E
100
AcDbEntity
8
FORMAT
62
     7
100
AcDbText
10
5427.7634631418
20
742.115477369
30
0.0
40
17.5
1
POWDERCOAT RAL 7035
41
0.75
7
SLDTEXTSTYLE0
11
5427.7634631418
21
733.063290975
31
0.0
100
AcDbAttributeDefinition
3

2
AUTOATTR0
70
     0
74
     1
0
MTEXT
5
89
330
85
100
AcDbEntity
8
SLD-0
62
     0
100
AcDbMText
10
0.0
20
16.1133467471
30
0.0
40
12.5
41
0.0
71
     1
72
     1
1
\LTOLERANCES:
7
SLDTEXTSTYLE0
73
     1
44
1.0
0
MTEXT
5
8A
330
85
100
AcDbEntity
8
SLD-0
62
     0
100
AcDbMText
10
-18.3333320543
20
-18.8866543332
30
0.0
40
12.5
41
0.0
71
     1
72
     1
1
X.X
7
SLDTEXTSTYLE0
73
     1
44
1.0
0
MTEXT
5
8B
330
85
100
AcDbEntity
8
SLD-0
62
     0
100
AcDbMText
10
61.8749996647
20
-18.8866543332
30
0.0
40
12.5
41
0.0
71
     1
72
     1
1
%%p
7
SLDTEXTSTYLE0
73
     1
44
1.0
0
MTEXT
5
8C
330
85
100
AcDbEntity
8
SLD-0
62
     0
100
AcDbMText
10
83.156250976
20
-18.8866543332
30
0.0
40
12.5
41
0.0
71
     1
72
     1
1
0.2
7
SLDTEXTSTYLE0
73
     1
44
1.0
0
MTEXT
5
8D
330
85
100
AcDbEntity
8
SLD-0
62
     0
100
AcDbMText
10
-18.3333320543
20
-36.3866548734
30
0.0
40
12.5
41
0.0
71
     1
72
     1
1
X.XX
7
SLDTEXTSTYLE0
73
     1
44
1.0
0
MTEXT
5
8E
330
85
100
AcDbEntity
8
SLD-0
62
     0
100
AcDbMText
10
62.7951370552
20
-36.3866548734
30
0.0
40
12.5
41
0.0
71
     1
72
     1
1
%%p
7
SLDTEXTSTYLE0
73
     1
44
1.0
0
MTEXT
5
8F
330
85
100
AcDbEntity
8
SLD-0
62
     0
100
AcDbMText
10
84.0763883665
20
-36.3866548734
30
0.0
40
12.5
41
0.0
71
     1
72
     1
1
0.10
7
SLDTEXTSTYLE0
73
     1
44
1.0
0
MTEXT
5
90
330
85
100
AcDbEntity
8
SLD-0
62
     0
100
AcDbMText
10
-18.3333320543
20
-53.8866554135
30
0.0
40
12.5
41
0.0
71
     1
72
     1
1
X.XXX
7
SLDTEXTSTYLE0
73
     1
44
1.0
0
MTEXT
5
91
330
85
100
AcDbEntity
8
SLD-0
62
     0
100
AcDbMText
10
63.7152744457
20
-53.8866554135
30
0.0
40
12.5
41
0.0
71
     1
72
     1
1
%%p
7
SLDTEXTSTYLE0
73
     1
44
1.0
0
MTEXT
5
92
330
85
100
AcDbEntity
8
SLD-0
62
     0
100
AcDbMText
10
84.996525757
20
-53.8866554135
30
0.0
40
12.5
41
0.0
71
     1
72
     1
1
0.010
7
SLDTEXTSTYLE0
73
     1
44
1.0
0
MTEXT
5
93
330
85
100
AcDbEntity
8
SLD-0
62
     0
100
AcDbMText
10
-18.3333320543
20
-71.3866559537
30
0.0
40
12.5
41
0.0
71
     1
72
     1
1
ANGLES
7
SLDTEXTSTYLE0
73
     1
44
1.0
0
MTEXT
5
94
330
85
100
AcDbEntity
8
SLD-0
62
     0
100
AcDbMText
10
64.1145789996
20
-71.3866559537
30
0.0
40
12.5
41
0.0
71
     1
72
     1
1
%%p
7
SLDTEXTSTYLE0
73
     1
44
1.0
0
MTEXT
5
95
330
85
100
AcDbEntity
8
SLD-0
62
     0
100
AcDbMText
10
80.7083303109
20
-71.3866559537
30
0.0
40
12.5
41
0.0
71
     1
72
     1
1
0
7
SLDTEXTSTYLE0
73
     1
44
1.0
0
MTEXT
5
96
330
85
100
AcDbEntity
8
SLD-0
62
     0
100
AcDbMText
10
89.8749986663
20
-71.3866559537
30
0.0
40
12.5
41
0.0
71
     1
72
     1
1
%%d
7
SLDTEXTSTYLE0
73
     1
44
1.0
0
MTEXT
5
97
330
85
100
AcDbEntity
8
SLD-0
62
     0
100
AcDbMText
10
102.500002645
20
-71.3866559537
30
0.0
40
12.5
41
0.0
71
     1
72
     1
1
30'
7
SLDTEXTSTYLE0
73
     1
44
1.0
0
MTEXT
5
9C
330
99
100
AcDbEntity
8
FORMAT
62
     0
100
AcDbMText
10
110.46875
20
22.558685446
30
0.0
40
17.5
41
0.0
71
     3
72
     1
1
MATERIAL:
7
SLDTEXTSTYLE0
73
     1
44
1.0
0
MTEXT
5
9D
330
99
100
AcDbEntity
8
FORMAT
62
     0
100
AcDbMText
10
111.1857701093
20
-0.0697872063
30
0.0
40
17.5
41
0.0
71
     3
72
     1
1
HEAT TREAT:
7
SLDTEXTSTYLE0
73
     1
44
1.0
0
MTEXT
5
9E
330
99
100
AcDbEntity
8
FORMAT
62
     0
100
AcDbMText
10
115.2326427773
20
-45.3267325108
30
0.0
40
17.5
41
0.0
71
     3
72
     1
1
FINISH:
7
SLDTEXTSTYLE0
73
     1
44
1.0
0
MTEXT
5
A7
330
A0
100
AcDbEntity
8
SLD-0
62
     0
100
AcDbMText
10
0.0
20
22.558685446
30
0.0
40
17.5
41
0.0
71
     1
72
     1
1
NOTES:
7
SLDTEXTSTYLE0
73
     1
44
1.0
0
MTEXT
5
A9
330
A0
100
AcDbEntity
8
SLD-0
62
     0
100
AcDbMText
10
49.9999988824
20
-22.6982598586
30
0.0
40
17.5
41
0.0
71
     1
72
     1
1
BREAK AL SHARP CORNERS 0.2  x 45
7
SLDTEXTSTYLE1
73
     1
44
1.0
0
MTEXT
5
AA
330
A0
100
AcDbEntity
8
SLD-0
62
     0
100
AcDbMText
10
445.5486033112
20
-22.6982598586
30
0.0
40
17.5
41
0.0
71
     1
72
     1
1
%%d
7
SLDTEXTSTYLE0
73
     1
44
1.0
0
MTEXT
5
AB
330
A0
100
AcDbEntity
8
SLD-0
62
     0
100
AcDbMText
10
0.0
20
-22.6982598586
30
0.0
40
17.5
41
0.0
71
     1
72
     1
1
1.
7
SLDTEXTSTYLE0
73
     1
44
1.0
0
MTEXT
5
AC
330
A0
100
AcDbEntity
8
SLD-0
62
     0
100
AcDbMText
10
49.9999988824
20
-45.3267325108
30
0.0
40
17.5
41
0.0
71
     1
72
     1
1
ALL HOLES AND MACHINED SURFACES FREE OF PAINT
7
SLDTEXTSTYLE0
73
     1
44
1.0
0
MTEXT
5
AD
330
A0
100
AcDbEntity
8
SLD-0
62
     0
100
AcDbMText
10
0.0
20
-45.3267325108
30
0.0
40
17.5
41
0.0
71
     1
72
     1
1
2.
7
SLDTEXTSTYLE0
73
     1
44
1.0
0
MTEXT
5
AE
330
A0
100
AcDbEntity
8
SLD-0
62
     0
100
AcDbMText
10
49.9999988824
20
-106.2364582365
30
0.0
40
17.5
41
0.0
71
     1
72
     1
1
ALL
7
SLDTEXTSTYLE0
73
     1
44
1.0
0
MTEXT
5
AF
330
A0
100
AcDbEntity
8
SLD-0
62
     0
100
AcDbMText
10
183.3052767068
20
-106.2364582365
30
0.0
40
17.5
41
0.0
71
     1
72
     1
1
=
7
SLDTEXTSTYLE0
73
     1
44
1.0
0
MTEXT
5
B0
330
A0
100
AcDbEntity
8
SLD-0
62
     0
100
AcDbMText
10
231.2358265668
20
-74.8579869975
30
0.0
40
17.5
41
0.0
71
     1
72
     1
1
6.3
7
SLDTEXTSTYLE0
73
     1
44
1.0
0
MTEXT
5
B1
330
A0
100
AcDbEntity
8
SLD-0
62
     0
100
AcDbMText
10
0.0
20
-106.2364582365
30
0.0
40
17.5
41
0.0
71
     1
72
     1
1
3.
7
SLDTEXTSTYLE0
73
     1
44
1.0
0
MTEXT
5
4A1
330
49E
100
AcDbEntity
8
SLD-0
62
     0
100
AcDbMText
10
0.0
20
27.2852671585
30
0.0
40
21.1666666667
41
0.0
71
     1
72
     1
1
- PLATES & TUBE MAY BE PRE-MACHINED BEFORE WELDING
7
SLDTEXTSTYLE0
73
     1
44
1.0
0
MTEXT
5
4A2
330
49E
100
AcDbEntity
8
SLD-0
62
     0
100
AcDbMText
10
0.0
20
-5.9369555422
30
0.0
40
21.1666666667
41
0.0
71
     1
72
     1
1
- PLATES TO BE WELDED CENTERED ON TUBING
7
SLDTEXTSTYLE0
73
     1
44
1.0
0
MTEXT
5
4EC
330
4E9
100
AcDbEntity
8
20
62
     0
100
AcDbMText
10
32.6985560303
20
13.5352112676
30
0.0
40
10.5
41
0.0
71
     2
72
     1
1
Allgemein-
7
SLDTEXTSTYLE12
73
     1
44
1.0
0
MTEXT
5
4ED
330
4E9
100
AcDbEntity
8
20
62
     0
100
AcDbMText
10
32.3394436536
20
-0.0272889764
30
0.0
40
10.5
41
0.0
71
     2
72
     1
1
Toleranzen
7
SLDTEXTSTYLE12
73
     1
44
1.0
0
MTEXT
5
4F2
330
4EF
100
AcDbEntity
8
20
62
     0
100
AcDbMText
10
24.4042881592
20
13.5352112676
30
0.0
40
10.5
41
0.0
71
     2
72
     1
1
General
7
SLDTEXTSTYLE12
73
     1
44
1.0
0
MTEXT
5
4F3
330
4EF
100
AcDbEntity
8
20
62
     0
100
AcDbMText
10
24.50727898
20
-0.0272889764
30
0.0
40
10.5
41
0.0
71
     2
72
     1
1
tolerances
7
SLDTEXTSTYLE12
73
     1
44
1.0
0
MTEXT
5
4FF
330
4FC
100
AcDbEntity
8
20
62
     0
100
AcDbMText
10
0.0
20
13.5352112676
30
0.0
40
10.5
41
0.0
71
     1
72
     1
1
Gewicht (kg)
7
SLDTEXTSTYLE12
73
     1
44
1.0
0
MTEXT
5
500
330
4FC
100
AcDbEntity
8
20
62
     0
100
AcDbMText
10
0.0
20
-0.0272889764
30
0.0
40
10.5
41
0.0
71
     1
72
     1
1
Weight
7
SLDTEXTSTYLE12
73
     1
44
1.0
0
MTEXT
5
50B
330
508
100
AcDbEntity
8
20
62
     0
100
AcDbMText
10
0.0
20
13.5352112676
30
0.0
40
10.5
41
0.0
71
     1
72
     1
1
Schutzvermerk nach ISO 16016 beachten
7
SLDTEXTSTYLE12
73
     1
44
1.0
0
MTEXT
5
50C
330
508
100
AcDbEntity
8
20
62
     0
100
AcDbMText
10
0.0
20
-0.0272889764
30
0.0
40
10.5
41
0.0
71
     1
72
     1
1
Follow protection notice to ISO 16016
7
SLDTEXTSTYLE12
73
     1
44
1.0
0
MTEXT
5
529
330
524
100
AcDbEntity
8
0
6
Continuous
62
     0
370
     0
100
AcDbMText
10
0.0
20
16.1133467471
30
0.0
40
12.5
41
0.0
71
     1
72
     1
1
E
7
SLDTEXTSTYLE18
73
     1
44
1.0
0
MTEXT
5
560
330
52C
100
AcDbEntity
8
SLD-0
62
     0
100
AcDbMText
10
5.9001807221
20
-16.1136043782
30
0.0
40
17.5
41
0.0
71
     1
72
     1
1
ITEM NO.
7
SLDTEXTSTYLE0
73
     1
44
1.0
0
MTEXT
5
561
330
52C
100
AcDbEntity
8
SLD-0
62
     0
100
AcDbMText
10
129.7845517252
20
-16.1136043782
30
0.0
40
17.5
41
0.0
71
     1
72
     1
1
QTY.
7
SLDTEXTSTYLE0
73
     1
44
1.0
0
MTEXT
5
562
330
52C
100
AcDbEntity
8
SLD-0
62
     0
100
AcDbMText
10
274.419540217
20
-16.1136043782
30
0.0
40
17.5
41
0.0
71
     1
72
     1
1
DESCRIPTION
7
SLDTEXTSTYLE0
73
     1
44
1.0
0
MTEXT
5
563
330
52C
100
AcDbEntity
8
SLD-0
62
     0
100
AcDbMText
10
520.9675839393
20
-16.1136043782
30
0.0
40
17.5
41
0.0
71
     1
72
     1
1
LENGTH
7
SLDTEXTSTYLE0
73
     1
44
1.0
0
MTEXT
5
564
330
52C
100
AcDbEntity
8
SLD-0
62
     0
100
AcDbMText
10
660.0762538112
20
-16.1136043782
30
0.0
40
17.5
41
0.0
71
     1
72
     1
1
MATERIAL
7
SLDTEXTSTYLE0
73
     1
44
1.0
0
MTEXT
5
565
330
52C
100
AcDbEntity
8
SLD-0
62
     0
100
AcDbMText
10
49.2491400199
20
-77.7231216519
30
0.0
40
17.5
41
0.0
71
     1
72
     1
1
1
7
SLDTEXTSTYLE0
73
     1
44
1.0
0
MTEXT
5
566
330
52C
100
AcDbEntity
8
SLD-0
62
     0
100
AcDbMText
10
148.5849003507
20
-77.7231216519
30
0.0
40
17.5
41
0.0
71
     1
72
     1
1
1
7
SLDTEXTSTYLE0
73
     1
44
1.0
0
MTEXT
5
568
330
52C
100
AcDbEntity
8
SLD-0
62
     0
100
AcDbMText
10
247.8778759519
20
-77.7231216519
30
0.0
40
17.5
41
0.0
71
     1
72
     1
1
6" x 6" x 1/4" WALL
7
SLDTEXTSTYLE19
73
     1
44
1.0
0
MTEXT
5
569
330
52C
100
AcDbEntity
8
SLD-0
62
     0
100
AcDbMText
10
528.7939694932
20
-77.7231216519
30
0.0
40
17.5
41
0.0
71
     1
72
     1
1
909.13
7
SLDTEXTSTYLE0
73
     1
44
1.0
0
MTEXT
5
56A
330
52C
100
AcDbEntity
8
SLD-0
62
     0
100
AcDbMText
10
640.8262539155
20
-66.4088853258
30
0.0
40
17.5
41
0.0
71
     1
72
     1
1
Plain Carbon
7
SLDTEXTSTYLE0
73
     1
44
1.0
0
MTEXT
5
56B
330
52C
100
AcDbEntity
8
SLD-0
62
     0
100
AcDbMText
10
687.1283387265
20
-89.0373579781
30
0.0
40
17.5
41
0.0
71
     1
72
     1
1
Steel
7
SLDTEXTSTYLE0
73
     1
44
1.0
0
MTEXT
5
56C
330
52C
100
AcDbEntity
8
SLD-0
62
     0
100
AcDbMText
10
49.2491400199
20
-150.5267872105
30
0.0
40
17.5
41
0.0
71
     1
72
     1
1
2
7
SLDTEXTSTYLE0
73
     1
44
1.0
0
MTEXT
5
56D
330
52C
100
AcDbEntity
8
SLD-0
62
     0
100
AcDbMText
10
148.5849003507
20
-150.5267872105
30
0.0
40
17.5
41
0.0
71
     1
72
     1
1
1
7
SLDTEXTSTYLE0
73
     1
44
1.0
0
MTEXT
5
56E
330
52C
100
AcDbEntity
8
SLD-0
62
     0
100
AcDbMText
10
206.4733511338
20
-150.5267872105
30
0.0
40
17.5
41
0.0
71
     1
72
     1
1
ROBOT MOUNTING PLATE
7
SLDTEXTSTYLE0
73
     1
44
1.0
0
MTEXT
5
56F
330
52C
100
AcDbEntity
8
SLD-0
62
     0
100
AcDbMText
10
544.6411937698
20
-139.2125508843
30
0.0
40
17.5
41
0.0
71
     1
72
     1
1
USE
7
SLDTEXTSTYLE0
73
     1
44
1.0
0
MTEXT
5
570
330
52C
100
AcDbEntity
8
SLD-0
62
     0
100
AcDbMText
10
507.3200155272
20
-161.8410235366
30
0.0
40
17.5
41
0.0
71
     1
72
     1
1
DRAWING
7
SLDTEXTSTYLE0
73
     1
44
1.0
0
MTEXT
5
571
330
52C
100
AcDbEntity
8
SLD-0
62
     0
100
AcDbMText
10
640.8262539155
20
-139.2125508843
30
0.0
40
17.5
41
0.0
71
     1
72
     1
1
Plain Carbon
7
SLDTEXTSTYLE0
73
     1
44
1.0
0
MTEXT
5
572
330
52C
100
AcDbEntity
8
SLD-0
62
     0
100
AcDbMText
10
687.1283387265
20
-161.8410235366
30
0.0
40
17.5
41
0.0
71
     1
72
     1
1
Steel
7
SLDTEXTSTYLE0
73
     1
44
1.0
0
MTEXT
5
573
330
52C
100
AcDbEntity
8
SLD-0
62
     0
100
AcDbMText
10
49.2491400199
20
-223.330452769
30
0.0
40
17.5
41
0.0
71
     1
72
     1
1
3
7
SLDTEXTSTYLE0
73
     1
44
1.0
0
MTEXT
5
574
330
52C
100
AcDbEntity
8
SLD-0
62
     0
100
AcDbMText
10
148.5849003507
20
-223.330452769
30
0.0
40
17.5
41
0.0
71
     1
72
     1
1
1
7
SLDTEXTSTYLE0
73
     1
44
1.0
0
MTEXT
5
575
330
52C
100
AcDbEntity
8
SLD-0
62
     0
100
AcDbMText
10
284.8709259683
20
-223.330452769
30
0.0
40
17.5
41
0.0
71
     1
72
     1
1
BASE PLATE
7
SLDTEXTSTYLE0
73
     1
44
1.0
0
MTEXT
5
576
330
52C
100
AcDbEntity
8
SLD-0
62
     0
100
AcDbMText
10
544.6411937698
20
-212.0162164429
30
0.0
40
17.5
41
0.0
71
     1
72
     1
1
USE
7
SLDTEXTSTYLE0
73
     1
44
1.0
0
MTEXT
5
577
330
52C
100
AcDbEntity
8
SLD-0
62
     0
100
AcDbMText
10
507.3200155272
20
-234.6446890952
30
0.0
40
17.5
41
0.0
71
     1
72
     1
1
DRAWING
7
SLDTEXTSTYLE0
73
     1
44
1.0
0
MTEXT
5
578
330
52C
100
AcDbEntity
8
SLD-0
62
     0
100
AcDbMText
10
640.8262539155
20
-212.0162164429
30
0.0
40
17.5
41
0.0
71
     1
72
     1
1
Plain Carbon
7
SLDTEXTSTYLE0
73
     1
44
1.0
0
MTEXT
5
579
330
52C
100
AcDbEntity
8
SLD-0
62
     0
100
AcDbMText
10
687.1283387265
20
-234.6446890952
30
0.0
40
17.5
41
0.0
71
     1
72
     1
1
Steel
7
SLDTEXTSTYLE0
73
     1
44
1.0
0
MTEXT
5
5E6
330
5D6
100
AcDbEntity
8
SLD-0
100
AcDbMText
10
386.1289321334
20
652.2145691059
30
0.0
40
15.875
41
0.0
71
     1
72
     1
1
15.9
7
SLDTEXTSTYLE0
73
     1
44
1.0
0
MTEXT
5
5E7
330
5D6
100
AcDbEntity
8
SLD-0
100
AcDbMText
10
436.8572753277
20
652.2145691059
30
0.0
40
15.875
41
0.0
71
     1
72
     1
1
0.63
7
SLDTEXTSTYLE0
73
     1
44
1.0
0
MTEXT
5
5E8
330
5D6
100
AcDbEntity
8
SLD-0
100
AcDbMText
10
493.5387365371
20
652.2145691059
30
0.0
40
15.875
41
0.0
71
     1
72
     1
1
STK.
7
SLDTEXTSTYLE0
73
     1
44
1.0
0
MTEXT
5
5FA
330
5EA
100
AcDbEntity
8
SLD-0
100
AcDbMText
10
425.2689222986
20
1583.7936362502
30
0.0
40
15.875
41
0.0
71
     1
72
     1
1
15.9
7
SLDTEXTSTYLE0
73
     1
44
1.0
0
MTEXT
5
5FB
330
5EA
100
AcDbEntity
8
SLD-0
100
AcDbMText
10
475.9972654929
20
1583.7936362502
30
0.0
40
15.875
41
0.0
71
     1
72
     1
1
0.63
7
SLDTEXTSTYLE0
73
     1
44
1.0
0
MTEXT
5
5FC
330
5EA
100
AcDbEntity
8
SLD-0
100
AcDbMText
10
532.6787267024
20
1583.7936362502
30
0.0
40
15.875
41
0.0
71
     1
72
     1
1
STK.
7
SLDTEXTSTYLE0
73
     1
44
1.0
0
MTEXT
5
608
330
5FF
100
AcDbEntity
8
SLD-0
100
AcDbMText
10
1097.5673181902
20
1065.9588015781
30
0.0
40
15.875
41
0.0
71
     1
72
     1
1
940.9
7
SLDTEXTSTYLE0
73
     1
44
1.0
0
MTEXT
5
615
330
60A
100
AcDbEntity
8
SLD-0
100
AcDbMText
10
1027.2028707022
20
1064.3464971011
30
0.0
40
15.875
41
0.0
71
     1
72
     1
1
909.1
7
SLDTEXTSTYLE0
73
     1
44
1.0
0
MTEXT
5
622
330
618
100
AcDbEntity
8
SLD-0
100
AcDbMText
10
903.2258833558
20
579.9191580981
30
0.0
40
15.875
41
0.0
71
     1
72
     1
1
45.0
7
SLDTEXTSTYLE0
73
     1
44
1.0
0
MTEXT
5
62E
330
625
100
AcDbEntity
8
SLD-0
100
AcDbMText
10
855.9687669561
20
768.8963015781
30
0.0
40
15.875
41
0.0
71
     1
72
     1
1
225.00
7
SLDTEXTSTYLE0
73
     1
44
1.0
0
MTEXT
5
639
330
631
100
AcDbEntity
8
SLD-0
100
AcDbMText
10
841.1544425324
20
976.9623489129
30
0.0
40
15.875
41
0.0
71
     1
72
     1
1
23.5
7
SLDTEXTSTYLE0
73
     1
44
1.0
0
MTEXT
5
643
330
63B
100
AcDbEntity
8
SLD-0
100
AcDbMText
10
545.6937487222
20
988.4546896789
30
0.0
40
15.875
41
0.0
71
     1
72
     1
1
23.5
7
SLDTEXTSTYLE0
73
     1
44
1.0
0
MTEXT
5
64C
330
646
100
AcDbEntity
8
SLD-0
100
AcDbMText
10
403.1392250983
20
852.2384412286
30
0.0
40
15.875
41
0.0
71
     1
72
     1
1
36X
7
SLDTEXTSTYLE0
73
     1
44
1.0
0
MTEXT
5
64D
330
646
100
AcDbEntity
8
SLD-0
100
AcDbMText
10
445.3623172669
20
851.9959064948
30
0.0
40
15.875
41
0.0
71
     1
72
     1
1
%%c
7
SLDTEXTSTYLE0
73
     1
44
1.0
0
MTEXT
5
64E
330
646
100
AcDbEntity
8
SLD-0
100
AcDbMText
10
475.2569237529
20
852.2384412286
30
0.0
40
15.875
41
0.0
71
     1
72
     1
1
5.0 THRU
7
SLDTEXTSTYLE0
73
     1
44
1.0
0
MTEXT
5
64F
330
646
100
AcDbEntity
8
SLD-0
100
AcDbMText
10
386.2246183483
20
826.7943452743
30
0.0
40
15.875
41
0.0
71
     1
72
     1
1
M6X1.0 - 6H THRU
7
SLDTEXTSTYLE0
73
     1
44
1.0
0
MTEXT
5
650
330
646
100
AcDbEntity
8
SLD-0
100
AcDbMText
10
273.6223553149
20
801.5927820166
30
0.0
40
15.875
41
0.0
71
     1
72
     1
1
ALL 4 SIDES OF SQUARE TUBE
7
SLDTEXTSTYLE0
73
     1
44
1.0
0
MTEXT
5
65C
330
652
100
AcDbEntity
8
SLD-0
100
AcDbMText
10
903.2258833558
20
940.4218066375
30
0.0
40
15.875
41
0.0
71
     1
72
     1
1
45.0
7
SLDTEXTSTYLE0
73
     1
44
1.0
0
MTEXT
5
669
330
65F
100
AcDbEntity
8
SLD-0
100
AcDbMText
10
477.8906114885
20
1444.4163624815
30
0.0
40
15.875
41
0.0
71
     1
72
     1
1
30.0
7
SLDTEXTSTYLE0
73
     1
44
1.0
0
MTEXT
5
674
330
66B
100
AcDbEntity
8
SLD-0
100
AcDbMText
10
841.1544425324
20
1450.5213015781
30
0.0
40
15.875
41
0.0
71
     1
72
     1
1
80.0
7
SLDTEXTSTYLE0
73
     1
44
1.0
0
MTEXT
5
67E
330
676
100
AcDbEntity
8
SLD-0
100
AcDbMText
10
574.4449747515
20
1325.0881037561
30
0.0
40
15.875
41
0.0
71
     1
72
     1
1
23.5
7
SLDTEXTSTYLE0
73
     1
44
1.0
0
MTEXT
5
686
330
680
100
AcDbEntity
8
SLD-0
100
AcDbMText
10
294.2603402826
20
1294.7011286237
30
0.0
40
15.875
41
0.0
71
     1
72
     1
1
4X
7
SLDTEXTSTYLE0
73
     1
44
1.0
0
MTEXT
5
687
330
680
100
AcDbEntity
8
SLD-0
100
AcDbMText
10
324.7535689789
20
1294.4585938899
30
0.0
40
15.875
41
0.0
71
     1
72
     1
1
%%c
7
SLDTEXTSTYLE0
73
     1
44
1.0
0
MTEXT
5
688
330
680
100
AcDbEntity
8
SLD-0
100
AcDbMText
10
354.6481801215
20
1294.7011286237
30
0.0
40
15.875
41
0.0
71
     1
72
     1
1
5.0 THRU
7
SLDTEXTSTYLE0
73
     1
44
1.0
0
MTEXT
5
689
330
680
100
AcDbEntity
8
SLD-0
100
AcDbMText
10
282.9146699998
20
1269.2570326694
30
0.0
40
15.875
41
0.0
71
     1
72
     1
1
M6X1.0 - 6H THRU
7
SLDTEXTSTYLE0
73
     1
44
1.0
0
MTEXT
5
68A
330
680
100
AcDbEntity
8
SLD-0
100
AcDbMText
10
370.1279528224
20
1244.0554694117
30
0.0
40
15.875
41
0.0
71
     1
72
     1
1

7
SLDTEXTSTYLE0
73
     1
44
1.0
0
MTEXT
5
68C
330
680
100
AcDbEntity
8
SLD-0
100
AcDbMText
10
277.9647563639
20
1218.853906154
30
0.0
40
15.875
41
0.0
71
     1
72
     1
1
2X AS SHOWN, 2X
7
SLDTEXTSTYLE20
73
     1
44
1.0
0
MTEXT
5
68D
330
680
100
AcDbEntity
8
SLD-0
100
AcDbMText
10
268.2302934173
20
1193.6523428963
30
0.0
40
15.875
41
0.0
71
     1
72
     1
1
ON OPPOSITE FACE
7
SLDTEXTSTYLE0
73
     1
44
1.0
0
MTEXT
5
698
330
68F
100
AcDbEntity
8
SLD-0
100
AcDbMText
10
967.2028715753
20
803.4588015781
30
0.0
40
15.875
41
0.0
71
     1
72
     1
1
384.1
7
SLDTEXTSTYLE0
73
     1
44
1.0
0
MTEXT
5
6A3
330
69A
100
AcDbEntity
8
SLD-0
100
AcDbMText
10
961.3379421675
20
1090.5213015781
30
0.0
40
15.875
41
0.0
71
     1
72
     1
1
190.00
7
SLDTEXTSTYLE0
73
     1
44
1.0
0
MTEXT
5
6AE
330
6A5
100
AcDbEntity
8
SLD-0
100
AcDbMText
10
961.3379421675
20
1280.5213015781
30
0.0
40
15.875
41
0.0
71
     1
72
     1
1
190.00
7
SLDTEXTSTYLE0
73
     1
44
1.0
0
MTEXT
5
781
330
775
100
AcDbEntity
8
SLD-0
62
     0
100
AcDbMText
10
-41.1637361624
20
-7.8163154271
30
0.0
40
17.5
41
0.0
71
     1
72
     1
1
6mm
7
SLDTEXTSTYLE0
73
     1
44
1.0
0
MTEXT
5
78B
330
785
100
AcDbEntity
8
SLD-0
62
     0
100
AcDbMText
10
-41.1637361624
20
-7.8163154271
30
0.0
40
17.5
41
0.0
71
     1
72
     1
1
6mm
7
SLDTEXTSTYLE0
73
     1
44
1.0
0
MTEXT
5
82E
330
82A
100
AcDbEntity
8
SLD-0
100
AcDbMText
10
489.0333441168
20
1746.5522298644
30
0.0
40
15.875
41
0.0
71
     1
72
     1
1
0
7
SLDTEXTSTYLE0
73
     1
44
1.0
0
MTEXT
5
837
330
831
100
AcDbEntity
8
SLD-0
100
AcDbMText
10
447.978831277
20
1837.0170982699
30
0.0
40
15.875
41
0.0
71
     1
72
     1
1
101.6
7
SLDTEXTSTYLE0
73
     1
44
1.0
0
MTEXT
5
83F
330
839
100
AcDbEntity
8
SLD-0
100
AcDbMText
10
447.978831277
20
1865.8790193096
30
0.0
40
15.875
41
0.0
71
     1
72
     1
1
111.6
7
SLDTEXTSTYLE0
73
     1
44
1.0
0
MTEXT
5
84C
330
842
100
AcDbEntity
8
SLD-0
100
AcDbMText
10
387.5766670413
20
1949.7522298644
30
0.0
40
15.875
41
0.0
71
     1
72
     1
1
203.2
7
SLDTEXTSTYLE0
73
     1
44
1.0
0
MTEXT
5
84D
330
842
100
AcDbEntity
8
SLD-0
100
AcDbMText
10
450.0348690513
20
1949.7522298644
30
0.0
40
15.875
41
0.0
71
     1
72
     1
1
8.00
7
SLDTEXTSTYLE0
73
     1
44
1.0
0
MTEXT
5
853
330
84F
100
AcDbEntity
8
SLD-0
100
AcDbMText
10
617.131888081
20
1673.1530958053
30
0.0
40
15.875
41
0.0
71
     1
72
     1
1
0
7
SLDTEXTSTYLE0
11
6.123233995736766E-17
21
1.0
31
0.0
73
     1
44
1.0
0
MTEXT
5
85A
330
856
100
AcDbEntity
8
SLD-0
100
AcDbMText
10
658.731888081
20
1620.3687241499
30
0.0
40
15.875
41
0.0
71
     1
72
     1
1
41.600
7
SLDTEXTSTYLE0
11
6.123233995736766E-17
21
1.0
31
0.0
73
     1
44
1.0
0
MTEXT
5
860
330
85C
100
AcDbEntity
8
SLD-0
100
AcDbMText
10
718.731888081
20
1632.0985829656
30
0.0
40
15.875
41
0.0
71
     1
72
     1
1
101.6
7
SLDTEXTSTYLE0
11
6.123233995736766E-17
21
1.0
31
0.0
73
     1
44
1.0
0
MTEXT
5
866
330
862
100
AcDbEntity
8
SLD-0
100
AcDbMText
10
778.731888081
20
1608.6388653342
30
0.0
40
15.875
41
0.0
71
     1
72
     1
1
161.600
7
SLDTEXTSTYLE0
11
6.123233995736766E-17
21
1.0
31
0.0
73
     1
44
1.0
0
MTEXT
5
872
330
868
100
AcDbEntity
8
SLD-0
100
AcDbMText
10
820.331888081
20
1571.6964187299
30
0.0
40
15.875
41
0.0
71
     1
72
     1
1
203.2
7
SLDTEXTSTYLE0
11
6.123233995736766E-17
21
1.0
31
0.0
73
     1
44
1.0
0
MTEXT
5
873
330
868
100
AcDbEntity
8
SLD-0
100
AcDbMText
10
820.331888081
20
1634.1546207399
30
0.0
40
15.875
41
0.0
71
     1
72
     1
1
8.00
7
SLDTEXTSTYLE0
11
6.123233995736766E-17
21
1.0
31
0.0
73
     1
44
1.0
0
MTEXT
5
87A
330
874
100
AcDbEntity
8
SLD-0
62
     0
100
AcDbMText
10
0.0
20
20.4639503689
30
0.0
40
15.875
41
0.0
71
     1
72
     1
1
4X
7
SLDTEXTSTYLE0
73
     1
44
1.0
0
MTEXT
5
87B
330
874
100
AcDbEntity
8
SLD-0
62
     0
100
AcDbMText
10
30.4932286963
20
20.4639503689
30
0.0
40
15.875
41
0.0
71
     1
72
     1
1
10.0
7
SLDTEXTSTYLE0
73
     1
44
1.0
0
MTEXT
5
87C
330
874
100
AcDbEntity
8
SLD-0
62
     0
100
AcDbMText
10
77.5008688644
20
20.4639503689
30
0.0
40
15.875
41
0.0
71
     1
72
     1
1
X
7
SLDTEXTSTYLE0
73
     1
44
1.0
0
MTEXT
5
87D
330
874
100
AcDbEntity
8
SLD-0
62
     0
100
AcDbMText
10
96.1760431528
20
20.4639503689
30
0.0
40
15.875
41
0.0
71
     1
72
     1
1
45°
7
SLDTEXTSTYLE0
73
     1
44
1.0
0
MTEXT
5
887
330
881
100
AcDbEntity
8
SLD-0
100
AcDbMText
10
889.8285236882
20
1921.3705535379
30
0.0
40
15.875
41
0.0
71
     1
72
     1
1
%%c
7
SLDTEXTSTYLE0
73
     1
44
1.0
0
MTEXT
5
888
330
881
100
AcDbEntity
8
SLD-0
100
AcDbMText
10
913.7700075025
20
1921.6130882718
30
0.0
40
15.875
41
0.0
71
     1
72
     1
1
170.00
7
SLDTEXTSTYLE0
73
     1
44
1.0
0
MTEXT
5
894
330
88B
100
AcDbEntity
8
SLD-0
100
AcDbMText
10
710.6318636754
20
1963.3951490974
30
0.0
40
15.875
41
0.0
71
     1
72
     1
1
90°
7
SLDTEXTSTYLE0
73
     1
44
1.0
0
MTEXT
5
89E
330
896
100
AcDbEntity
8
SLD-0
100
AcDbMText
10
604.2586311021
20
1892.2134654697
30
0.0
40
15.875
41
0.0
71
     1
72
     1
1
45°
7
SLDTEXTSTYLE0
73
     1
44
1.0
0
MTEXT
5
8A7
330
8A1
100
AcDbEntity
8
SLD-0
100
AcDbMText
10
990.5190499184
20
1744.2850294484
30
0.0
40
15.875
41
0.0
71
     1
72
     1
1
4X
7
SLDTEXTSTYLE0
73
     1
44
1.0
0
MTEXT
5
8A8
330
8A1
100
AcDbEntity
8
SLD-0
100
AcDbMText
10
1021.0122786147
20
1744.0424947146
30
0.0
40
15.875
41
0.0
71
     1
72
     1
1
%%c
7
SLDTEXTSTYLE0
73
     1
44
1.0
0
MTEXT
5
8A9
330
8A1
100
AcDbEntity
8
SLD-0
100
AcDbMText
10
1050.9068897573
20
1744.2850294484
30
0.0
40
15.875
41
0.0
71
     1
72
     1
1
6.8 THRU
7
SLDTEXTSTYLE0
73
     1
44
1.0
0
MTEXT
5
8AA
330
8A1
100
AcDbEntity
8
SLD-0
100
AcDbMText
10
970.2877992449
20
1718.8409334941
30
0.0
40
15.875
41
0.0
71
     1
72
     1
1
M8X1.25 - 6H THRU
7
SLDTEXTSTYLE0
73
     1
44
1.0
0
MTEXT
5
8B3
330
8AD
100
AcDbEntity
8
SLD-0
100
AcDbMText
10
969.0911149291
20
1831.0752032991
30
0.0
40
15.875
41
0.0
71
     1
72
     1
1
2X
7
SLDTEXTSTYLE0
73
     1
44
1.0
0
MTEXT
5
8B4
330
8AD
100
AcDbEntity
8
SLD-0
100
AcDbMText
10
999.5843436254
20
1830.8326685652
30
0.0
40
15.875
41
0.0
71
     1
72
     1
1
%%c
7
SLDTEXTSTYLE0
73
     1
44
1.0
0
MTEXT
5
8B5
330
8AD
100
AcDbEntity
8
SLD-0
100
AcDbMText
10
1029.478954768
20
1831.0752032991
30
0.0
40
15.875
41
0.0
71
     1
72
     1
1
8.000
7
SLDTEXTSTYLE0
73
     1
44
1.0
0
MTEXT
5
8BE
330
8AD
100
AcDbEntity
8
SLD-0
100
AcDbMText
10
1116.6745989231
20
1831.0752032991
30
0.0
40
15.875
41
0.0
71
     1
72
     1
1
10.0
7
SLDTEXTSTYLE0
73
     1
44
1.0
0
MTEXT
5
8BF
330
8AD
100
AcDbEntity
8
SLD-0
100
AcDbMText
10
981.7089805064
20
1805.6311073448
30
0.0
40
15.875
41
0.0
71
     1
72
     1
1
P.F. FOR DOWEL
7
SLDTEXTSTYLE0
73
     1
44
1.0
0
MTEXT
5
949
330
945
100
AcDbEntity
8
SLD-0
100
AcDbMText
10
541.92896134
20
245.2389658348
30
0.0
40
15.875
41
0.0
71
     1
72
     1
1
0
7
SLDTEXTSTYLE0
73
     1
44
1.0
0
MTEXT
5
94F
330
94B
100
AcDbEntity
8
SLD-0
100
AcDbMText
10
489.1445896846
20
272.2389658348
30
0.0
40
15.875
41
0.0
71
     1
72
     1
1
27.000
7
SLDTEXTSTYLE0
73
     1
44
1.0
0
MTEXT
5
955
330
951
100
AcDbEntity
8
SLD-0
100
AcDbMText
10
477.4147308689
20
372.2389658348
30
0.0
40
15.875
41
0.0
71
     1
72
     1
1
127.000
7
SLDTEXTSTYLE0
73
     1
44
1.0
0
MTEXT
5
95B
330
957
100
AcDbEntity
8
SLD-0
100
AcDbMText
10
477.4147308689
20
472.2389658348
30
0.0
40
15.875
41
0.0
71
     1
72
     1
1
227.000
7
SLDTEXTSTYLE0
73
     1
44
1.0
0
MTEXT
5
968
330
95E
100
AcDbEntity
8
SLD-0
100
AcDbMText
10
428.7424254489
20
499.2389658348
30
0.0
40
15.875
41
0.0
71
     1
72
     1
1
254.0
7
SLDTEXTSTYLE0
73
     1
44
1.0
0
MTEXT
5
969
330
95E
100
AcDbEntity
8
SLD-0
100
AcDbMText
10
491.2006274589
20
499.2389658348
30
0.0
40
15.875
41
0.0
71
     1
72
     1
1
10.00
7
SLDTEXTSTYLE0
73
     1
44
1.0
0
MTEXT
5
96F
330
96B
100
AcDbEntity
8
SLD-0
100
AcDbMText
10
591.731888081
20
187.3205873552
30
0.0
40
15.875
41
0.0
71
     1
72
     1
1
0
7
SLDTEXTSTYLE0
11
-7.044195017643634E-15
21
1.0
31
0.0
73
     1
44
1.0
0
MTEXT
5
975
330
971
100
AcDbEntity
8
SLD-0
100
AcDbMText
10
618.731888081
20
134.5362156998
30
0.0
40
15.875
41
0.0
71
     1
72
     1
1
27.000
7
SLDTEXTSTYLE0
11
-7.044195017643634E-15
21
1.0
31
0.0
73
     1
44
1.0
0
MTEXT
5
97B
330
977
100
AcDbEntity
8
SLD-0
100
AcDbMText
10
718.731888081
20
122.8063568841
30
0.0
40
15.875
41
0.0
71
     1
72
     1
1
127.000
7
SLDTEXTSTYLE0
11
-7.044195017643634E-15
21
1.0
31
0.0
73
     1
44
1.0
0
MTEXT
5
981
330
97D
100
AcDbEntity
8
SLD-0
100
AcDbMText
10
818.731888081
20
122.8063568841
30
0.0
40
15.875
41
0.0
71
     1
72
     1
1
227.000
7
SLDTEXTSTYLE0
11
-7.044195017643634E-15
21
1.0
31
0.0
73
     1
44
1.0
0
MTEXT
5
98D
330
983
100
AcDbEntity
8
SLD-0
100
AcDbMText
10
845.731888081
20
74.1340514641
30
0.0
40
15.875
41
0.0
71
     1
72
     1
1
254.0
7
SLDTEXTSTYLE0
11
-7.044195017643634E-15
21
1.0
31
0.0
73
     1
44
1.0
0
MTEXT
5
98E
330
983
100
AcDbEntity
8
SLD-0
100
AcDbMText
10
845.731888081
20
136.5922534741
30
0.0
40
15.875
41
0.0
71
     1
72
     1
1
10.00
7
SLDTEXTSTYLE0
11
-7.044195017643634E-15
21
1.0
31
0.0
73
     1
44
1.0
0
MTEXT
5
995
330
98F
100
AcDbEntity
8
SLD-0
62
     0
100
AcDbMText
10
0.0
20
20.4639503689
30
0.0
40
15.875
41
0.0
71
     1
72
     1
1
4X
7
SLDTEXTSTYLE0
73
     1
44
1.0
0
MTEXT
5
996
330
98F
100
AcDbEntity
8
SLD-0
62
     0
100
AcDbMText
10
30.4932286963
20
20.4639503689
30
0.0
40
15.875
41
0.0
71
     1
72
     1
1
10.0
7
SLDTEXTSTYLE0
73
     1
44
1.0
0
MTEXT
5
997
330
98F
100
AcDbEntity
8
SLD-0
62
     0
100
AcDbMText
10
77.5008688644
20
20.4639503689
30
0.0
40
15.875
41
0.0
71
     1
72
     1
1
X
7
SLDTEXTSTYLE0
73
     1
44
1.0
0
MTEXT
5
998
330
98F
100
AcDbEntity
8
SLD-0
62
     0
100
AcDbMText
10
96.1760431528
20
20.4639503689
30
0.0
40
15.875
41
0.0
71
     1
72
     1
1
45°
7
SLDTEXTSTYLE0
73
     1
44
1.0
0
MTEXT
5
9A1
330
99B
100
AcDbEntity
8
SLD-0
100
AcDbMText
10
926.1011175116
20
449.7169019334
30
0.0
40
15.875
41
0.0
71
     1
72
     1
1
4X
7
SLDTEXTSTYLE0
73
     1
44
1.0
0
MTEXT
5
9A2
330
99B
100
AcDbEntity
8
SLD-0
100
AcDbMText
10
956.5943462079
20
449.4743671996
30
0.0
40
15.875
41
0.0
71
     1
72
     1
1
%%c
7
SLDTEXTSTYLE0
73
     1
44
1.0
0
MTEXT
5
9A3
330
99B
100
AcDbEntity
8
SLD-0
100
AcDbMText
10
986.4889573505
20
449.7169019334
30
0.0
40
15.875
41
0.0
71
     1
72
     1
1
11.0 THRU
7
SLDTEXTSTYLE0
73
     1
44
1.0
0
MTEXT
5
9AB
330
9A5
100
AcDbEntity
8
SLD-0
100
AcDbMText
10
927.4930471479
20
406.913885962
30
0.0
40
15.875
41
0.0
71
     1
72
     1
1
4X
7
SLDTEXTSTYLE0
73
     1
44
1.0
0
MTEXT
5
9AC
330
9A5
100
AcDbEntity
8
SLD-0
100
AcDbMText
10
957.9862758442
20
406.6713512282
30
0.0
40
15.875
41
0.0
71
     1
72
     1
1
%%c
7
SLDTEXTSTYLE0
73
     1
44
1.0
0
MTEXT
5
9AD
330
9A5
100
AcDbEntity
8
SLD-0
100
AcDbMText
10
987.8808869868
20
406.913885962
30
0.0
40
15.875
41
0.0
71
     1
72
     1
1
8.000 THRU ALL
7
SLDTEXTSTYLE0
73
     1
44
1.0
0
MTEXT
5
9AE
330
9A5
100
AcDbEntity
8
SLD-0
100
AcDbMText
10
951.9322553574
20
381.4697900077
30
0.0
40
15.875
41
0.0
71
     1
72
     1
1
S.F. FOR DOWEL
7
SLDTEXTSTYLE0
73
     1
44
1.0
0
ATTRIB
5
49B
330
49A
100
AcDbEntity
67
     1
8
FORMAT
62
     7
100
AcDbText
10
2461.3437263723
20
715.8667881163
30
0.0
40
17.5
1
PLAIN CARBON STEEL
41
0.75
7
SLDTEXTSTYLE0
11
2461.3437263723
21
706.8146017223
31
0.0
100
AcDbAttribute
2
AUTOATTR0_0
70
     0
74
     1
0
ATTRIB
5
49C
330
49A
100
AcDbEntity
67
     1
8
FORMAT
62
     7
100
AcDbText
10
2461.3437263723
20
647.9813701595
30
0.0
40
17.5
1
POWDERCOAT RAL 7035
41
0.75
7
SLDTEXTSTYLE0
11
2461.3437263723
21
638.9291837654
31
0.0
100
AcDbAttribute
2
AUTOATTR0_1
70
     0
74
     1
0
MTEXT
5
4A5
330
1B
100
AcDbEntity
67
     1
8
RAHMEN_DICK
100
AcDbMText
10
140.575
20
2068.7175136777
30
0.0
40
12.5
41
0.0
71
     1
72
     1
1
1
7
SLDTEXTSTYLE2
73
     1
44
1.0
0
MTEXT
5
4A7
330
1B
100
AcDbEntity
67
     1
8
RAHMEN_DICK
100
AcDbMText
10
356.516665
20
2068.7175136777
30
0.0
40
12.5
41
0.0
71
     1
72
     1
1
2
7
SLDTEXTSTYLE3
73
     1
44
1.0
0
MTEXT
5
4A8
330
1B
100
AcDbEntity
67
     1
8
RAHMEN_DICK
100
AcDbMText
10
606.516665
20
2068.7175136777
30
0.0
40
12.5
41
0.0
71
     1
72
     1
1
3
7
SLDTEXTSTYLE3
73
     1
44
1.0
0
MTEXT
5
4AA
330
1B
100
AcDbEntity
67
     1
8
RAHMEN_DICK
100
AcDbMText
10
855.783335
20
2068.7175136777
30
0.0
40
12.5
41
0.0
71
     1
72
     1
1
4
7
SLDTEXTSTYLE4
73
     1
44
1.0
0
MTEXT
5
4AB
330
1B
100
AcDbEntity
67
     1
8
RAHMEN_DICK
100
AcDbMText
10
1106.516665
20
2068.7175136777
30
0.0
40
12.5
41
0.0
71
     1
72
     1
1
5
7
SLDTEXTSTYLE3
73
     1
44
1.0
0
MTEXT
5
4AC
330
1B
100
AcDbEntity
67
     1
8
RAHMEN_DICK
100
AcDbMText
10
1356.516665
20
2068.7175136777
30
0.0
40
12.5
41
0.0
71
     1
72
     1
1
6
7
SLDTEXTSTYLE3
73
     1
44
1.0
0
MTEXT
5
4AD
330
1B
100
AcDbEntity
67
     1
8
RAHMEN_DICK
100
AcDbMText
10
1606.516665
20
2068.7175136777
30
0.0
40
12.5
41
0.0
71
     1
72
     1
1
7
7
SLDTEXTSTYLE3
73
     1
44
1.0
0
MTEXT
5
4AE
330
1B
100
AcDbEntity
67
     1
8
RAHMEN_DICK
100
AcDbMText
10
1856.516665
20
2068.7175136777
30
0.0
40
12.5
41
0.0
71
     1
72
     1
1
8
7
SLDTEXTSTYLE3
73
     1
44
1.0
0
MTEXT
5
4AF
330
1B
100
AcDbEntity
67
     1
8
RAHMEN_DICK
100
AcDbMText
10
2106.516665
20
2068.7175136777
30
0.0
40
12.5
41
0.0
71
     1
72
     1
1
9
7
SLDTEXTSTYLE3
73
     1
44
1.0
0
MTEXT
5
4B1
330
1B
100
AcDbEntity
67
     1
8
RAHMEN_DICK
100
AcDbMText
10
2354.59167
20
2068.7175136777
30
0.0
40
12.5
41
0.0
71
     1
72
     1
1
10
7
SLDTEXTSTYLE5
73
     1
44
1.0
0
MTEXT
5
4B3
330
1B
100
AcDbEntity
67
     1
8
RAHMEN_DICK
100
AcDbMText
10
2606.15
20
2068.7175136777
30
0.0
40
12.5
41
0.0
71
     1
72
     1
1
11
7
SLDTEXTSTYLE6
73
     1
44
1.0
0
MTEXT
5
4B4
330
1B
100
AcDbEntity
67
     1
8
RAHMEN_DICK
100
AcDbMText
10
33.283335
20
1931.2175136777
30
0.0
40
12.5
41
0.0
71
     1
72
     1
1
A
7
SLDTEXTSTYLE4
73
     1
44
1.0
0
MTEXT
5
4B6
330
1B
100
AcDbEntity
67
     1
8
RAHMEN_DICK
100
AcDbMText
10
33.65
20
1681.2175136777
30
0.0
40
12.5
41
0.0
71
     1
72
     1
1
B
7
SLDTEXTSTYLE7
73
     1
44
1.0
0
MTEXT
5
4B8
330
1B
100
AcDbEntity
67
     1
8
RAHMEN_DICK
100
AcDbMText
10
33.833335
20
1431.2175136777
30
0.0
40
12.5
41
0.0
71
     1
72
     1
1
C
7
SLDTEXTSTYLE8
73
     1
44
1.0
0
MTEXT
5
4B9
330
1B
100
AcDbEntity
67
     1
8
RAHMEN_DICK
100
AcDbMText
10
33.833335
20
1181.2175136777
30
0.0
40
12.5
41
0.0
71
     1
72
     1
1
D
7
SLDTEXTSTYLE8
73
     1
44
1.0
0
MTEXT
5
4BB
330
1B
100
AcDbEntity
67
     1
8
RAHMEN_DICK
100
AcDbMText
10
34.2
20
931.2175136777
30
0.0
40
12.5
41
0.0
71
     1
72
     1
1
E
7
SLDTEXTSTYLE9
73
     1
44
1.0
0
MTEXT
5
4BC
330
1B
100
AcDbEntity
67
     1
8
RAHMEN_DICK
100
AcDbMText
10
34.2
20
681.2175136777
30
0.0
40
12.5
41
0.0
71
     1
72
     1
1
F
7
SLDTEXTSTYLE9
73
     1
44
1.0
0
MTEXT
5
4BE
330
1B
100
AcDbEntity
67
     1
8
RAHMEN_DICK
100
AcDbMText
10
33.741665
20
431.2175136777
30
0.0
40
12.5
41
0.0
71
     1
72
     1
1
G
7
SLDTEXTSTYLE10
73
     1
44
1.0
0
MTEXT
5
4BF
330
1B
100
AcDbEntity
67
     1
8
RAHMEN_DICK
100
AcDbMText
10
33.833335
20
181.2175136777
30
0.0
40
12.5
41
0.0
71
     1
72
     1
1
H
7
SLDTEXTSTYLE8
73
     1
44
1.0
0
MTEXT
5
4C0
330
1B
100
AcDbEntity
67
     1
8
RAHMEN_DICK
100
AcDbMText
10
2928.283335
20
1931.2175136777
30
0.0
40
12.5
41
0.0
71
     1
72
     1
1
A
7
SLDTEXTSTYLE4
73
     1
44
1.0
0
MTEXT
5
4C1
330
1B
100
AcDbEntity
67
     1
8
RAHMEN_DICK
100
AcDbMText
10
2928.65
20
1681.2175136777
30
0.0
40
12.5
41
0.0
71
     1
72
     1
1
B
7
SLDTEXTSTYLE7
73
     1
44
1.0
0
MTEXT
5
4C2
330
1B
100
AcDbEntity
67
     1
8
RAHMEN_DICK
100
AcDbMText
10
2928.833335
20
1431.2175136777
30
0.0
40
12.5
41
0.0
71
     1
72
     1
1
C
7
SLDTEXTSTYLE8
73
     1
44
1.0
0
MTEXT
5
4C3
330
1B
100
AcDbEntity
67
     1
8
RAHMEN_DICK
100
AcDbMText
10
2928.833335
20
1181.2175136777
30
0.0
40
12.5
41
0.0
71
     1
72
     1
1
D
7
SLDTEXTSTYLE8
73
     1
44
1.0
0
MTEXT
5
4C4
330
1B
100
AcDbEntity
67
     1
8
RAHMEN_DICK
100
AcDbMText
10
2929.2
20
931.2175136777
30
0.0
40
12.5
41
0.0
71
     1
72
     1
1
E
7
SLDTEXTSTYLE9
73
     1
44
1.0
0
MTEXT
5
4C5
330
1B
100
AcDbEntity
67
     1
8
RAHMEN_DICK
100
AcDbMText
10
2929.2
20
681.2175136777
30
0.0
40
12.5
41
0.0
71
     1
72
     1
1
F
7
SLDTEXTSTYLE9
73
     1
44
1.0
0
MTEXT
5
4C6
330
1B
100
AcDbEntity
67
     1
8
RAHMEN_DICK
100
AcDbMText
10
2928.741665
20
431.2175136777
30
0.0
40
12.5
41
0.0
71
     1
72
     1
1
G
7
SLDTEXTSTYLE10
73
     1
44
1.0
0
MTEXT
5
4C7
330
1B
100
AcDbEntity
67
     1
8
RAHMEN_DICK
100
AcDbMText
10
2928.833335
20
181.2175136777
30
0.0
40
12.5
41
0.0
71
     1
72
     1
1
H
7
SLDTEXTSTYLE8
73
     1
44
1.0
0
MTEXT
5
4C8
330
1B
100
AcDbEntity
67
     1
8
RAHMEN_DICK
100
AcDbMText
10
2928.833335
20
181.2175136777
30
0.0
40
12.5
41
0.0
71
     1
72
     1
1
H
7
SLDTEXTSTYLE8
73
     1
44
1.0
0
MTEXT
5
4C9
330
1B
100
AcDbEntity
67
     1
8
RAHMEN_DICK
100
AcDbMText
10
140.575
20
43.7175136777
30
0.0
40
12.5
41
0.0
71
     1
72
     1
1
1
7
SLDTEXTSTYLE2
73
     1
44
1.0
0
MTEXT
5
4CA
330
1B
100
AcDbEntity
67
     1
8
RAHMEN_DICK
100
AcDbMText
10
356.516665
20
43.7175136777
30
0.0
40
12.5
41
0.0
71
     1
72
     1
1
2
7
SLDTEXTSTYLE3
73
     1
44
1.0
0
MTEXT
5
4CB
330
1B
100
AcDbEntity
67
     1
8
RAHMEN_DICK
100
AcDbMText
10
606.516665
20
43.7175136777
30
0.0
40
12.5
41
0.0
71
     1
72
     1
1
3
7
SLDTEXTSTYLE3
73
     1
44
1.0
0
MTEXT
5
4CC
330
1B
100
AcDbEntity
67
     1
8
RAHMEN_DICK
100
AcDbMText
10
855.783335
20
43.7175136777
30
0.0
40
12.5
41
0.0
71
     1
72
     1
1
4
7
SLDTEXTSTYLE4
73
     1
44
1.0
0
MTEXT
5
4CD
330
1B
100
AcDbEntity
67
     1
8
RAHMEN_DICK
100
AcDbMText
10
1106.516665
20
43.7175136777
30
0.0
40
12.5
41
0.0
71
     1
72
     1
1
5
7
SLDTEXTSTYLE3
73
     1
44
1.0
0
MTEXT
5
4CE
330
1B
100
AcDbEntity
67
     1
8
RAHMEN_DICK
100
AcDbMText
10
1606.516665
20
43.7175136777
30
0.0
40
12.5
41
0.0
71
     1
72
     1
1
7
7
SLDTEXTSTYLE3
73
     1
44
1.0
0
MTEXT
5
4CF
330
1B
100
AcDbEntity
67
     1
8
RAHMEN_DICK
100
AcDbMText
10
1856.516665
20
43.7175136777
30
0.0
40
12.5
41
0.0
71
     1
72
     1
1
8
7
SLDTEXTSTYLE3
73
     1
44
1.0
0
MTEXT
5
4D0
330
1B
100
AcDbEntity
67
     1
8
RAHMEN_DICK
100
AcDbMText
10
2106.516665
20
43.7175136777
30
0.0
40
12.5
41
0.0
71
     1
72
     1
1
9
7
SLDTEXTSTYLE3
73
     1
44
1.0
0
MTEXT
5
4D1
330
1B
100
AcDbEntity
67
     1
8
RAHMEN_DICK
100
AcDbMText
10
2354.59167
20
43.7175136777
30
0.0
40
12.5
41
0.0
71
     1
72
     1
1
10
7
SLDTEXTSTYLE5
73
     1
44
1.0
0
MTEXT
5
4D2
330
1B
100
AcDbEntity
67
     1
8
RAHMEN_DICK
100
AcDbMText
10
2606.15
20
43.7175136777
30
0.0
40
12.5
41
0.0
71
     1
72
     1
1
11
7
SLDTEXTSTYLE6
73
     1
44
1.0
0
MTEXT
5
4D3
330
1B
100
AcDbEntity
67
     1
8
RAHMEN_DICK
100
AcDbMText
10
2822.09167
20
2068.7175136777
30
0.0
40
12.5
41
0.0
71
     1
72
     1
1
12
7
SLDTEXTSTYLE5
73
     1
44
1.0
0
MTEXT
5
4D4
330
1B
100
AcDbEntity
67
     1
8
RAHMEN_DICK
100
AcDbMText
10
2822.09167
20
43.7175136777
30
0.0
40
12.5
41
0.0
71
     1
72
     1
1
12
7
SLDTEXTSTYLE5
73
     1
44
1.0
0
MTEXT
5
4D5
330
1B
100
AcDbEntity
67
     1
8
RAHMEN_DICK
100
AcDbMText
10
1356.516665
20
43.7175136777
30
0.0
40
12.5
41
0.0
71
     1
72
     1
1
6
7
SLDTEXTSTYLE3
73
     1
44
1.0
0
MTEXT
5
4D7
330
1B
100
AcDbEntity
67
     1
8
TEXT
100
AcDbMText
10
2320.0
20
215.5977116057
30
0.0
40
10.5
41
0.0
71
     1
72
     1
1
23.07.2026
7
SLDTEXTSTYLE11
73
     1
44
1.0
0
MTEXT
5
4D9
330
1B
100
AcDbEntity
67
     1
8
20
100
AcDbMText
10
2831.0068975819
20
103.6458194057
30
0.0
40
10.5
41
0.0
71
     1
72
     1
1
SP
7
SLDTEXTSTYLE12
73
     1
44
1.0
0
MTEXT
5
4DB
330
1B
100
AcDbEntity
67
     1
8
TEXT
100
AcDbMText
10
2840.2608602349
20
87.9565291343
30
0.0
40
10.5
41
0.0
71
     2
72
     1
1
en
7
SLDTEXTSTYLE13
73
     1
44
1.0
0
MTEXT
5
4DC
330
1B
100
AcDbEntity
67
     1
8
20
100
AcDbMText
10
2485.5992725856
20
134.1263115301
30
0.0
40
10.5
41
0.0
71
     1
72
     1
1
Z-Nr.
7
SLDTEXTSTYLE12
73
     1
44
1.0
0
MTEXT
5
4DD
330
1B
100
AcDbEntity
67
     1
8
20
100
AcDbMText
10
2486.0357103847
20
87.9727116057
30
0.0
40
10.5
41
0.0
71
     1
72
     1
1
Item No.
7
SLDTEXTSTYLE12
73
     1
44
1.0
0
MTEXT
5
4DE
330
1B
100
AcDbEntity
67
     1
8
20
100
AcDbMText
10
1992.117626844
20
341.591251752
30
0.0
40
10.5
41
0.0
71
     1
72
     1
1
Item No.
7
SLDTEXTSTYLE12
73
     1
44
1.0
0
MTEXT
5
4E0
330
1B
100
AcDbEntity
67
     1
8
TEXT
100
AcDbMText
10
2874.242595067
20
155.1804140928
30
0.0
40
15.0
41
0.0
71
     2
72
     1
1
0
7
SLDTEXTSTYLE14
73
     1
44
1.0
0
MTEXT
5
4E1
330
1B
100
AcDbEntity
67
     1
8
20
100
AcDbMText
10
2050.6648129368
20
388.8731242642
30
0.0
40
10.5
41
0.0
71
     1
72
     1
1
.
7
SLDTEXTSTYLE12
73
     1
44
1.0
0
MTEXT
5
4E2
330
1B
100
AcDbEntity
67
     1
8
20
100
AcDbMText
10
1992.117626844
20
364.1954192134
30
0.0
40
10.5
41
0.0
71
     1
72
     1
1
A-Nr.
7
SLDTEXTSTYLE12
73
     1
44
1.0
0
MTEXT
5
4E3
330
1B
100
AcDbEntity
67
     1
8
TEXT
100
AcDbMText
10
2552.3145734014
20
94.9545188992
30
0.0
40
17.5
41
0.0
71
     1
72
     1
1
1006941
7
SLDTEXTSTYLE13
73
     1
44
1.0
0
MTEXT
5
4E4
330
1B
100
AcDbEntity
67
     1
8
20
100
AcDbMText
10
1987.378744098
20
64.3542087246
30
0.0
40
8.0
41
0.0
71
     1
72
     1
1
Index
7
SLDTEXTSTYLE12
73
     1
44
1.0
0
MTEXT
5
4E5
330
1B
100
AcDbEntity
67
     1
8
20
100
AcDbMText
10
2028.00003
20
64.3542087246
30
0.0
40
8.0
41
0.0
71
     1
72
     1
1
Änd.Nr./Mod.no.
7
SLDTEXTSTYLE12
73
     1
44
1.0
0
MTEXT
5
4E6
330
1B
100
AcDbEntity
67
     1
8
20
100
AcDbMText
10
2122.5277608486
20
64.1042089444
30
0.0
40
8.0
41
0.0
71
     1
72
     1
1
Datum/Date
7
SLDTEXTSTYLE12
73
     1
44
1.0
0
MTEXT
5
4E7
330
1B
100
AcDbEntity
67
     1
8
20
100
AcDbMText
10
2184.4171537983
20
321.460861609
30
0.0
40
10.5
41
0.0
71
     2
72
     1
1
Werkstückkanten
7
SLDTEXTSTYLE12
73
     1
44
1.0
0
MTEXT
5
4E8
330
1B
100
AcDbEntity
67
     1
8
20
100
AcDbMText
10
2186.9692362202
20
308.4998716057
30
0.0
40
10.5
41
0.0
71
     2
72
     1
1
Workpeace egdes
7
SLDTEXTSTYLE12
73
     1
44
1.0
0
MTEXT
5
4F5
330
1B
100
AcDbEntity
67
     1
8
20
100
AcDbMText
10
2434.4816927378
20
307.898361365
30
0.0
40
10.5
41
0.0
71
     2
72
     1
1
Surfaces
7
SLDTEXTSTYLE12
73
     1
44
1.0
0
MTEXT
5
4F6
330
1B
100
AcDbEntity
67
     1
8
20
100
AcDbMText
10
2436.2761087235
20
321.0633993278
30
0.0
40
10.5
41
0.0
71
     2
72
     1
1
Oberfläche
7
SLDTEXTSTYLE12
73
     1
44
1.0
0
MTEXT
5
4F7
330
1B
100
AcDbEntity
67
     1
8
20
100
AcDbMText
10
2346.9022337737
20
236.4828508051
30
0.0
40
10.5
41
0.0
71
     2
72
     1
1
Datum/Date
7
SLDTEXTSTYLE12
73
     1
44
1.0
0
MTEXT
5
4F8
330
1B
100
AcDbEntity
67
     1
8
20
100
AcDbMText
10
2260.6083460984
20
215.5977116057
30
0.0
40
10.5
41
0.0
71
     1
72
     1
1
erstel.
7
SLDTEXTSTYLE12
73
     1
44
1.0
0
MTEXT
5
4F9
330
1B
100
AcDbEntity
67
     1
8
20
100
AcDbMText
10
2260.6083460984
20
194.3477116057
30
0.0
40
10.5
41
0.0
71
     1
72
     1
1
geneh.
7
SLDTEXTSTYLE12
73
     1
44
1.0
0
MTEXT
5
4FA
330
1B
100
AcDbEntity
67
     1
8
20
100
AcDbMText
10
2854.7332782036
20
133.6276111339
30
0.0
40
10.0
41
0.0
71
     1
72
     1
1
Blatt/Sheet
7
SLDTEXTSTYLE12
73
     1
44
1.0
0
MTEXT
5
4FB
330
1B
100
AcDbEntity
67
     1
8
20
100
AcDbMText
10
2878.6069547892
20
84.1857473061
30
0.0
40
10.5
41
0.0
71
     1
72
     1
1
Bl./Sh.
7
SLDTEXTSTYLE12
73
     1
44
1.0
0
MTEXT
5
502
330
1B
100
AcDbEntity
67
     1
8
20
100
AcDbMText
10
2486.8873993241
20
316.5227216057
30
0.0
40
10.5
41
0.0
71
     1
72
     1
1
Maßstab/Scale
7
SLDTEXTSTYLE12
73
     1
44
1.0
0
MTEXT
5
504
330
1B
100
AcDbEntity
67
     1
8
TEXT
100
AcDbMText
10
2486.8873993241
20
269.5369189277
30
0.0
40
17.5
41
0.0
71
     1
72
     1
1
Robotersockel
7
SLDTEXTSTYLE15
73
     1
44
1.0
0
MTEXT
5
505
330
1B
100
AcDbEntity
67
     1
8
20
100
AcDbMText
10
2486.8873993241
20
288.0301350405
30
0.0
40
10.5
41
0.0
71
     1
72
     1
1
Beschreibung
7
SLDTEXTSTYLE12
73
     1
44
1.0
0
MTEXT
5
506
330
1B
100
AcDbEntity
67
     1
8
20
100
AcDbMText
10
2487.5486881164
20
236.4828508051
30
0.0
40
10.5
41
0.0
71
     1
72
     1
1
Description
7
SLDTEXTSTYLE12
73
     1
44
1.0
0
MTEXT
5
507
330
1B
100
AcDbEntity
67
     1
8
20
100
AcDbMText
10
2486.8873993241
20
366.1657759656
30
0.0
40
10.5
41
0.0
71
     1
72
     1
1
Werkstoff/Material
7
SLDTEXTSTYLE12
73
     1
44
1.0
0
MTEXT
5
50E
330
1B
100
AcDbEntity
67
     1
8
20
100
AcDbMText
10
2186.9546529082
20
256.0272278456
30
0.0
40
10.5
41
0.0
71
     2
72
     1
1
ISO 13715
7
SLDTEXTSTYLE12
73
     1
44
1.0
0
MTEXT
5
50F
330
1B
100
AcDbEntity
67
     1
8
20
100
AcDbMText
10
1994.3294988166
20
388.8731242642
30
0.0
40
10.5
41
0.0
71
     1
72
     1
1
Customer:
7
SLDTEXTSTYLE12
73
     1
44
1.0
0
MTEXT
5
510
330
1B
100
AcDbEntity
67
     1
8
20
100
AcDbMText
10
1994.3294988166
20
403.8731242642
30
0.0
40
10.5
41
0.0
71
     1
72
     1
1
Auftraggeber
7
SLDTEXTSTYLE12
73
     1
44
1.0
0
MTEXT
5
511
330
1B
100
AcDbEntity
67
     1
8
20
100
AcDbMText
10
2320.6152188957
20
256.0272278456
30
0.0
40
10.5
41
0.0
71
     2
72
     1
1
ISO 2768-mK
7
SLDTEXTSTYLE12
73
     1
44
1.0
0
MTEXT
5
512
330
1B
100
AcDbEntity
67
     1
8
20
100
AcDbMText
10
2876.2921950398
20
396.4837793639
30
0.0
40
15.0
41
0.0
71
     1
72
     1
1
A2
7
SLDTEXTSTYLE12
73
     1
44
1.0
0
MTEXT
5
513
330
1B
100
AcDbEntity
67
     1
8
20
100
AcDbMText
10
2846.5054970003
20
394.7327493304
30
0.0
40
10.5
41
0.0
71
     1
72
     1
1
U-F:
7
SLDTEXTSTYLE12
73
     1
44
1.0
0
MTEXT
5
514
330
1B
100
AcDbEntity
67
     1
8
20
100
AcDbMText
10
2486.8873993241
20
102.0977066057
30
0.0
40
10.5
41
0.0
71
     1
72
     1
1
Art-Nr.
7
SLDTEXTSTYLE12
73
     1
44
1.0
0
MTEXT
5
515
330
1B
100
AcDbEntity
67
     1
8
20
100
AcDbMText
10
2485.5992725856
20
119.7227106911
30
0.0
40
10.5
41
0.0
71
     1
72
     1
1
DRW No.
7
SLDTEXTSTYLE12
73
     1
44
1.0
0
MTEXT
5
516
330
1B
100
AcDbEntity
67
     1
8
20
100
AcDbMText
10
2429.2763594365
20
236.4828508051
30
0.0
40
10.5
41
0.0
71
     2
72
     1
1
Name
7
SLDTEXTSTYLE12
73
     1
44
1.0
0
MTEXT
5
517
330
1B
100
AcDbEntity
67
     1
8
20
100
AcDbMText
10
2196.9400744639
20
64.1042089444
30
0.0
40
8.0
41
0.0
71
     1
72
     1
1
Name
7
SLDTEXTSTYLE12
73
     1
44
1.0
0
MTEXT
5
518
330
1B
100
AcDbEntity
67
     1
8
20
100
AcDbMText
10
2269.50073
20
65.5977116057
30
0.0
40
10.5
41
0.0
71
     1
72
     1
1
Urspr.
7
SLDTEXTSTYLE12
73
     1
44
1.0
0
MTEXT
5
519
330
1B
100
AcDbEntity
67
     1
8
20
100
AcDbMText
10
2434.4197201917
20
256.0272278456
30
0.0
40
10.5
41
0.0
71
     2
72
     1
1
1302
7
SLDTEXTSTYLE12
73
     1
44
1.0
0
MTEXT
5
51A
330
1B
100
AcDbEntity
67
     1
8
20
100
AcDbMText
10
2434.2210191289
20
271.083796653
30
0.0
40
10.5
41
0.0
71
     2
72
     1
1
EN ISO
7
SLDTEXTSTYLE12
73
     1
44
1.0
0
MTEXT
5
51B
330
1B
100
AcDbEntity
67
     1
8
20
100
AcDbMText
10
1998.514815
20
308.4998716057
30
0.0
40
10.5
41
0.0
71
     1
72
     1
1
CAD: SolidWorks
7
SLDTEXTSTYLE12
73
     1
44
1.0
0
MTEXT
5
51C
330
1B
100
AcDbEntity
67
     1
8
TEXT
100
AcDbMText
10
2427.020012082
20
215.6055079156
30
0.0
40
7.5
41
0.0
71
     2
72
     1
1
Martini, Christopher
7
SLDTEXTSTYLE11
73
     1
44
1.0
0
MTEXT
5
51D
330
1B
100
AcDbEntity
67
     1
8
TEXT
100
AcDbMText
10
2552.99999
20
129.0170179846
30
0.0
40
17.5
41
0.0
71
     1
72
     1
1
314-092-59195-10
7
SLDTEXTSTYLE13
73
     1
44
1.0
0
MTEXT
5
51E
330
1B
100
AcDbEntity
67
     1
8
TEXT
100
AcDbMText
10
2486.8873993241
20
215.5795179846
30
0.0
40
17.5
41
0.0
71
     1
72
     1
1
robot pedestal
7
SLDTEXTSTYLE15
73
     1
44
1.0
0
MTEXT
5
520
330
1B
100
AcDbEntity
67
     1
8
TEXT
100
AcDbMText
10
2486.8873993241
20
349.6488534618
30
0.0
40
17.5
41
0.0
71
     1
72
     1
1
ST
7
SLDTEXTSTYLE16
73
     1
44
1.0
0
MTEXT
5
522
330
1B
100
AcDbEntity
67
     1
8
TEXT
100
AcDbMText
10
2887.2971092711
20
113.4861856105
30
0.0
40
15.0
41
0.0
71
     2
72
     1
1
1
7
SLDTEXTSTYLE17
73
     1
44
1.0
0
MTEXT
5
523
330
1B
100
AcDbEntity
67
     1
8
TEXT
100
AcDbMText
10
2864.2260535703
20
88.6728996402
30
0.0
40
15.0
41
0.0
71
     2
72
     1
1
1
7
SLDTEXTSTYLE17
73
     1
44
1.0
0
MTEXT
5
52B
330
1B
100
AcDbEntity
67
     1
8
0
6
Continuous
62
     7
370
     0
100
AcDbMText
10
2284.8447840568
20
354.1343498976
30
0.0
40
12.5
41
0.0
71
     1
72
     1
1
Size ISO 14405
7
SLDTEXTSTYLE18
73
     1
44
1.0
0
ENDSEC
0
EOF
